<svg id="Capa_1" data-name="Capa 1" stroke-width="3" xmlns="http://www.w3.org/2000/svg" viewBox="0 0 263.14 140.25"><defs><style>.cls-1{fill:#FDFCEE;fill-rule:evenodd;}</style></defs><title>levelIcon</title><path class="cls-1" d="M128.17.05a70.17,70.17,0,0,0-40.11,14.7,71,71,0,0,0-15.66,17,4.13,4.13,0,0,1-.61.83,11.1,11.1,0,0,1-1.17-1.1,53.55,53.55,0,0,0-14.2-10.39,55.31,55.31,0,0,0-22.57-5.91,48.1,48.1,0,0,0-8.65.34A55.61,55.61,0,0,0,3,23.2L1.2,24.33c-.92.54-1.19.77-1.19,1s.37.42,1,.14c1.25-.55,5.46-1,9.14-1a43.65,43.65,0,0,1,14.07,2.18,48,48,0,0,1,11.39,5.53,47.57,47.57,0,0,1,11.1,10.65,46.06,46.06,0,0,1,7.42,15.46,43.27,43.27,0,0,1,1.48,10.38v1.26l0,1-.07,1.35a45.24,45.24,0,0,1-9,24.93,39.43,39.43,0,0,1-4.07,4.69,44.18,44.18,0,0,1-12,8.69,45.43,45.43,0,0,1-22.3,4.74,43.46,43.46,0,0,1-5.58-.6c-1.83-.29-1.94-.3-2.06-.14s0,.54.9,1.15A55.91,55.91,0,0,0,16,122.48a58,58,0,0,0,10.53,2.06c.63.08,6,.31,6.1.27a16.27,16.27,0,0,1,1.85-.13,54.66,54.66,0,0,0,21.27-5.53c.94-.46,1.88-.94,2.09-1.05.69-.39,2.46-1.43,2.8-1.64l1-.68a55.46,55.46,0,0,0,8.58-7,7,7,0,0,1,1.48-1.28s.57.81,1.15,1.69a70.14,70.14,0,0,0,97.33,19.15,71.64,71.64,0,0,0,7.09-5.44c1.51-1.31,4.55-4.32,5.91-5.83a72.24,72.24,0,0,0,7.61-10.15,5.29,5.29,0,0,1,.52-.78s.71.66,1.52,1.46A53.34,53.34,0,0,0,207.43,118a55.12,55.12,0,0,0,21.1,5.53,57.31,57.31,0,0,0,13.4-.92,54.67,54.67,0,0,0,19.78-8c1-.63,1.17-.86.94-1.17s-.23-.15-2,.14a48,48,0,0,1-5.36.6,45.48,45.48,0,0,1-47.48-40.88c0-.55-.1-1.3-.11-1.66v-.67l-.07-1V68.1a45.3,45.3,0,0,1,8.9-26.41,46.85,46.85,0,0,1,9.08-9.15A40.78,40.78,0,0,1,232.9,28,43.86,43.86,0,0,1,253,23.34c3.68,0,7.89.47,9.14,1,.61.28,1,.22,1-.14s-.27-.49-1.19-1c-.42-.24-1.22-.74-1.8-1.09a55.44,55.44,0,0,0-18-7c-.45-.08-1-.19-1.14-.24s-1.06-.17-2-.28l-2.33-.29a54.93,54.93,0,0,0-45.28,17.21,5.66,5.66,0,0,1-1.17,1.07c-.08-.23-2.16-3.23-3.11-4.5A70.07,70.07,0,0,0,137.44.27a77.5,77.5,0,0,0-9.27-.22ZM236,15.05a52.26,52.26,0,0,1,13.31,2.79,48.13,48.13,0,0,1,6.7,2.85,34.59,34.59,0,0,1,3.42,1.9l.52.32-.52-.06a38.78,38.78,0,0,0-6.37-.38,36.42,36.42,0,0,0-6.6.42,47.08,47.08,0,0,0-10.55,2.8,62.93,62.93,0,0,0-6.83,3.4A46.34,46.34,0,0,0,206.66,67.8a34.65,34.65,0,0,0,.1,4.2,50,50,0,0,0,1.67,9.47,46.38,46.38,0,0,0,50.18,33.26c.65-.07,1.27-.17,1.38-.19.39-.11-.1.23-1.38,1a53.79,53.79,0,0,1-17.11,6.35,46.56,46.56,0,0,1-4.84.68,53.43,53.43,0,0,1-14.83-.64,52.27,52.27,0,0,1-14.45-4.85A53.94,53.94,0,0,1,177.69,65.4a52.35,52.35,0,0,1,2.67-13.64A55,55,0,0,1,186.57,39a54.09,54.09,0,0,1,18.15-17c1.44-.83,4.61-2.42,5.56-2.79l1.53-.62a54.76,54.76,0,0,1,13.63-3.38l2-.19a80.34,80.34,0,0,1,8.5,0ZM37.31,16.28a54.54,54.54,0,0,1,14,3.44l1.56.62c.26.1,1.46.67,2.66,1.27a52.15,52.15,0,0,1,12.16,8.22,41.44,41.44,0,0,1,4.14,4.24c0,.07,0,.13.09.13.33,0,3.26,3.78,5,6.41A55.77,55.77,0,0,1,82.8,52.87a52.43,52.43,0,0,1,2.67,13.64,54,54,0,0,1-41.1,55.88,52.15,52.15,0,0,1-12.81,1.53A52.54,52.54,0,0,1,19,122.43c-1.49-.36-2.07-.52-3.9-1.09-1.09-.35-1.63-.54-3.33-1.19a53.46,53.46,0,0,1-7.67-3.77c-1-.59-1.24-.78-.86-.69.11,0,.71.11,1.31.19a49,49,0,0,0,12.91-.24A46.32,46.32,0,0,0,4.68,23.9a9.86,9.86,0,0,1-1.3.1,40.11,40.11,0,0,1,4.8-2.66,44.94,44.94,0,0,1,5.89-2.41,54.45,54.45,0,0,1,13.41-2.79C29,16,35.54,16.09,37.31,16.28ZM181.64,91.56a16.63,16.63,0,0,1,1,1.92A53,53,0,0,0,189.53,104l1,1.15c.18.23.18.23-.61,1.5a70.11,70.11,0,0,1-15.44,17.41,69.24,69.24,0,0,1-89.14-2c-.68-.59-2.09-1.93-3.14-3a66.2,66.2,0,0,1-8.7-10.63l-1.14-1.7.4-.47c1.34-1.58,1.81-2.16,2.69-3.33a52,52,0,0,0,5-7.94l1-1.94.39-1,.18-.45c.09-.25.4-1,.66-1.68A54.06,54.06,0,0,0,86,76.94a46.54,46.54,0,0,0,.4-8,36.33,36.33,0,0,0-.4-5.52,53.3,53.3,0,0,0-2.66-11.51c-.64-1.8-.86-2.36-1.26-3.29L81.83,48l-.47-1.18a9.37,9.37,0,0,1-.7-1.28,51.65,51.65,0,0,0-4.72-7.81c-.67-.94-3-3.8-3.23-4a.72.72,0,0,1-.2-.32,15.87,15.87,0,0,1,1.06-1.72,69.12,69.12,0,0,1,52-30.52L127.36,1c1.18-.1,8.41,0,9.79.16h0a69.3,69.3,0,0,1,51.45,30.45c.61.91,1.11,1.68,1.11,1.72a14.18,14.18,0,0,1-.92,1.2,58,58,0,0,0-5.43,8.18c-.4.72-1.73,3.43-1.95,4a1.69,1.69,0,0,1-.3.54l-.31.77-.18.55a63.87,63.87,0,0,0-2.4,7.68,58.88,58.88,0,0,0-1.33,8.68c-.13,1.53-.12,6.16,0,7.76a55.85,55.85,0,0,0,3.66,16.17,10.23,10.23,0,0,1,.52,1.47Z" transform="translate(-0.01)"/></svg>