<svg id="Capa_1" data-name="Capa 1" xmlns="http://www.w3.org/2000/svg" viewBox="0 0 300 300"><defs><style>.cls-1,.cls-3{fill:#fdc629;}.cls-2,.cls-8{fill:#fff;}.cls-2,.cls-9{opacity:0.6;}.cls-3{opacity:0.2;}.cls-4{opacity:0.7;}.cls-5{opacity:0.5;}.cls-6{fill:none;}.cls-7{opacity:0.3;}.cls-9{fill:#010101;}</style></defs><title>NewMoon</title><circle class="cls-1" cx="150" cy="150" r="150"/><circle class="cls-2" cx="150" cy="150" r="150"/><path class="cls-3" d="M300,150A150,150,0,1,1,150,0c2.15,0,4.31,0,6.43.14A137.44,137.44,0,1,0,299.86,143.57C300,145.7,300,147.84,300,150Z"/><g class="cls-4"><g class="cls-5"><path class="cls-1" d="M20.82,95.74c.49,3.71,4.21,9.59,4.21,9.59s.23,6.78,0,10.29.46,12.16,2.1,14.5,5.15.7,5.38,6.31.7,17.78,3.74,21,13.1,10.06,14.27,9.83S56.83,165,58.71,165s5.14,1.4,5.84,1.17,3.28-3,4.68-2.81,1.87,4.44,2.34,6.78,1.87,4,1.87,5.15-1.64,4.44-3.74,5.38-9.12.47-10.76,0-5.85,8.18-5.15,11.22,7,4,7.72,8,2.57,6.08,4.45,6.78,3.74,8.18,5.38,9.35,3.5,3.51,5.37,0,1.88-4.21,3.75-7,4.21-4.91,3.27-8.19-.7-1.64-3.51-6.55-3.27-7-.46-7.72,10.75-2.57,11.46-3.27,2.8-7.25.93-8.65-7.25-6.55-8-7.72S82.09,158,82.09,158s-2.8-7.72-1.17-7.95,12.87.47,13.57,1.4-.23.7,0,2.11-3.27,2.8-3.74,5.61-2.34,6.08-1.41,8.65,2.88,5.85,5.42,7,8.15,1.4,9.79,1.17,4-1.64,3.74.23-1.87,4.45-3,5.85-3.51,1.64-3.74,4.44,0,8.42,0,8.42l2.8,7.72s4,7.49,5.15,8.89,4,2.57,5.61,2.11,1.87-2.34,7.25-2.34a26.51,26.51,0,0,1,9.12,1.4,12,12,0,0,0,4.68.47c.94-.24,1.87-1.41,2.34-3.51s-8.19-15-6.31-18,7-.23,8.88-1.17,5.38-3,5.62-5.38-8.66-8-8.66-9.59,8.66-3,5.85-5.61a77.3,77.3,0,0,0-6.32-5.61c-1.4-.94-5.37-4.68-5.61-5.85s-5.38,0-5.38,0-1.17,9.35-2.1,10.29-3.28,2.1-4.45.7-.46-6.31.47-8.65,4.68-4.45,7.25-9.12-.93-7,3.51-7,10.06,4.21,12.16,5.38,5.54.69,6.63-1.65,5.3-4.2,6.94-3.26,2.57,5.84,4.91,7,6.08-2.8,5.14-5.38-6.08-3.74-7.48-4.67-8-2.58-9.51-2.81-3.12,3.27-4.76-.47a62.08,62.08,0,0,1-2.34-6.08s-2.57-4,1.64-6.08,8.66-.94,11-1.17,3.28-1.87,6.09-3,6.08-4.44,4.44-5.61-7.72-2.34-7.72-2.34-1.87-5.62-4.91-5.85-9.36.47-10.06-.47-2.1-1.87-2.1-3.27-.47,0,4.91-.24,4.91-1.16,7.25-1.87,4-4,5.38-5.14.93-9.83.7-11.7-.94-4.21.23-4.91,5.68-4.44,7.4-4.44,4.53,3.27,6.87,3,1.64-6.32,2.11-7.49,1.4-5.14,2.57-7-.24-6.78,0-8.89-.24-8.42-1.64-8.65-2.57,1.4-4.91,0-4-7.25-6.08-8.42S155.77,37,153.43,36.56s-4.21-1.63-7.49-.93-6.31,1.64-9.35,2.1-5.38.71-6.55-.23-7.95-3.71-11-2.09-4.68,4-4.21,5.6,1.87,4,1.64,5.38a23.16,23.16,0,0,1-3.28,6.31c-.7.7-1.4,0-3.74,3.28s-6.56,6.55-9.48,5.14S95,56.68,93.09,55s-4.21-1.64-4.21-3.74,5.61-8.19,6.31-10.76.24-5.85.94-7,10.52-1.17,12.39-2.8,1.17-4.45,4.45-5.85,9.35,1.17,10.76,0a16.58,16.58,0,0,1,4.67-2.81c1.41-.46-6.31-2.34-8.18-2.1s-10.76.7-15.21,2.34-6.31,4.21-9.82,4.44a27.81,27.81,0,0,1-6.08-.23s-1.87-1.17-.94-2.11,2.58-3,2.58-3-3.74.47-4.45.7-.23.94-4,3S76,28.61,73.44,29.78s-5.38,1.4-5.61,3-.47,4.21-2.11,5.85-1.17,2.1-4.44,4.21-2.57,0-7,4.68-4.91,4.21-5.38,7.71.24,5.62-1.17,8.19S47,68.61,43,71a50.11,50.11,0,0,0-5.38,3.5c-.71.47-1.17,8.19-4.68,8.42s-3.74-2.34-4.21-3.51-6.32,4-6.78,6.79S20.52,93.47,20.82,95.74Z"/><path class="cls-1" d="M277.86,109.15c-2.19,2.49-3.12,1.87-2.81,6.86s-2.92,8.11-.06,11.22,5.05,3.75,5.67,6.24,1.56,7.48,3.75,7.48,4.67.32,5-4,3.75-6.86,3.75-9,1.56-.31-1.56-6.55-2.11-12.16-7.92-12.16Z"/><path class="cls-1" d="M199.89,44c5.47,2.45,6.55,9.67,9.36,6.55s1.25-6.24,5.92-6.55,11.54.94,11.85-2.18-5.53-6.28-8.92-6.86-3-.82-5.26-2-2.69-2.34-6.67-2.22-7.72.33-8.54,0-2.8,2.7-2.92,3.4S191.2,35,192.25,38s2.58,4.32,4.8,4.67S198.41,43.31,199.89,44Z"/><path class="cls-1" d="M172.37,27.21c2.33.74,8.77,2.92,8.77,4.44s-.81,3,1.06,3.28,1.87.46,3.39-.82,2.92-2.06,3.27-3.43.59-3.12-2.34-3.94-5.49.35-8.07-1.87-2.68-3.63-6.08-3.74-4.79.47-6.19.47-1.41-.24-2.34-1.17-1.17-1.06-1.17-2.23-2-2.69-2-2.69-.23-2.69-2.34-.58-.12,3.16-2.92,2.81-3.16,0-3.39-.59-1.76-1.52-2.58-1,.7.93-2,.93a13.88,13.88,0,0,0-4.09.24c-1.87.35-1.05,1.4-3,1.17s-6.2-2.46-3.51.11a10.51,10.51,0,0,0,8.31,2.81c2.22-.23,2.57.35,2.57,1.52s0,2.93,2.3,3.51a23.87,23.87,0,0,0,4,.58,23.11,23.11,0,0,0,4.21,0,4.39,4.39,0,0,1,4.29-2.35c3.08.25,2.73-.57,4.84.48s1.52,1.87,2.68,2S171.07,26.79,172.37,27.21Z"/><path class="cls-1" d="M160.68,32.35c1.17.94,1,1.41,2.34,1.41s3.39.23,4.33-.7.23-2.3-1.17-2.38-2.19-.5-3.67,0A2.82,2.82,0,0,0,160.68,32.35Z"/><path class="cls-1" d="M223.36,72.7c1.87-1.45-.47-3.51-1.17-4.21s-4.56-1.64-3.51-5,1.87-5.5,3.28-4.91S225.22,61,227,61.24s4.51-.94,4.51.58S229,65.1,229,65.1s-4.81.11-1.93,2.22,3.57,2.1,5.33,2.22,1.28,1.64,3.62-.47,1.52-2.69,3.28-2.69,1.87-1.63,3,1.06.7,3.86,2.1,5.26,1.64,1.52,3,3,4,3.86,1.4,4-6.78-.47-7.36.81.82,2.23-.7,2.11-4.45-3.16-5.73-3.74a5.14,5.14,0,0,0-2.69-.35,3.32,3.32,0,0,0-1.64,3c.12,2.1-1.29,2.69.7,4.32s2.81-.58,4.56,2.23a12.45,12.45,0,0,1,1.75,6.78c-.11.47-1.4-.35-1.28,2.45s.7,4.8.35,5.15a13.32,13.32,0,0,0-2,5.26c0,1.64-.93,2.46,1.64,3.74s3.62.71,5.61,2.23,5,3.15,6.78,1.4,2.34-.59,2.81-3.39-.35-4.33,1.05-4.68a2.84,2.84,0,0,1,3.16,1.4c.23.82.23,2.34.47,4s-.12,2.33.93,3.45a15.2,15.2,0,0,0,2.69,2c.47.35,1.88,1.17,1.41,2.57s-1.76,2.73-2.81,4.52-2.34,2.85-1.17,4.48,2.11,4.8,5.85,5.62,4.91.35,5.14,1.52-2,1.63-4,2.1-4.91,1.69-5,2.19-1.29.27-1.17,1.79-2.22,1.4.58,2.69,5.73,2,6.44,1.4a21.22,21.22,0,0,1,3.17-1.64,27.94,27.94,0,0,1,4.43,0c.82.24,2.1,4.68,2.8,6.2s3.16,2,4.1,4.33a35.14,35.14,0,0,1,1.87,7c.35,2.1-3.16,3.5.93,6.19s6.2,2,5.15,4.56-.94,4.92-1.64,7.61-5.73,4.32-6.9,6-1.87,4-3.27,4-6.78.11-7.6-.94.82-.82-3.28-2.69a21.79,21.79,0,0,0-8.18-2,3.14,3.14,0,0,1-2-.93c-.47-.59-.35-3.86,1.28-4.8s.36-1.52,2.34-3.16,3.86-2.22,5-4.32-5.14-1.17-5.14-3.16-1.64-3.27.7-5.38,7.37-2.57,7.6-4.33-.47-3-2.34-2.34-4.91,2-6.2,2.58-2.1,1.52-3.62,1.17.82.82-3.51-1.41-8.07-3.74-9.36-2.45-1.87-.24-3.62,4-2.46,3.86-2.69,6.44a34.67,34.67,0,0,0,.58,7.95c.24.7-.46,2.69-.23,4.21s-.47,2.45,1.52,4.09,4.33,5.38,6.31,6.55,3.63,1.52,4.8,2.81,1.17,4.21-.23,5.38-2.93,1.63-3,3.39.23,6-.12,7.13-.7,2.81-3.74,2.11-4.33-1.41-6.2-1.29-6.43-3.74-7-4.8-2.34-3.62-.23-5.26,3.62-1.64,4.44-2.8.47-2.69.82-4.45a7,7,0,0,1,1.64-3.51c.93-1.28-.82-2.69-1.76-2.57s-2.69,1.4-4,1.52-3.75-1.05-3.63-1.64a4,4,0,0,0,.24-2.45c-.36-1.05-3.4.11-4.8-2.34s-3.86-3.74-3.62-6.32-.35-4,.58-4.56a17.66,17.66,0,0,1,5.15-1.63c1.28-.12,3.74-.35,3.74-2.11a8.45,8.45,0,0,0-1.29-5.14c-1.17-1.76-3.62-1.06-5-2.34s-2.83-1.41-3.17-3.16a20.75,20.75,0,0,1,0-4.68c0-1.17-2.32-2.45-3.49-4.21s-1.29-5.14-.94-6.78,1.64-4.26,1.29-5.64-1.87-1.61-2.34-3.72.7-6.55,2.22-7.6,6.78-1,7.6-2,2.34-2.33,2.22-4.21-5.73-3.74-6.66-4-4.36.93-7.39-1-6.41-4.21-7.46-5.5a11,11,0,0,1-1.87-4.56c-.35-1.52-2.93-2.46-2.93-1.29s0,3.51-1.52,2.46-4-2.57-4.44-5.73a52.68,52.68,0,0,1-.82-5.73c0-1.29-.82-2,.94-3.16s1.87-1.87,1.63-3a6,6,0,0,0-1.87-3.16c-.7-.47-1.52,3.63-2.81,1.29s-1.52-2-1.16-3.51-.54-3.86,1.83-4.09,3-1.64,4.83.23,2.11,3.63,2.46,2.46-.24-1.41,0-3.86,2.92-3.39,3.51-4.45,1.4-2.92,2.22-3.62.93-2.34,4.21-1,4.56,2,5.14,3.15,6.2,4.45,7.84,4.92S222.31,73.52,223.36,72.7Z"/><path class="cls-1" d="M171.32,113.4c-1.75,1.52-2.57,2.18-1.29,5.47s-2,5.63,3.4,4.93,5.38-2.92,7.13-.58,1.75,3.86,3.27,4.68,1.11,1.63,3.25,1.63,4.36.82,5.52-.82,3.05-5,3.63-5.49,2.69-2,1.75-3.39,1.52-2.34-2.57-1.64-4.44,2.34-5.38,1.17a33.84,33.84,0,0,1-2.34-3.86s-1.28-2.92-1.75-3.16.23-2.45-4.44-1.87-5.62.47-6.67,1.52-1.4,1.64-2.46,1.52Z"/><path class="cls-1" d="M164.66,170.93c-1.06.24-2.58.47-2.46,2.22a6.71,6.71,0,0,0,1.22,4.1c1,1.4,5.21,1.52,5.21,1.52s2.93,1.17,2-2.11-.59-2.45-2.22-3.86A9.78,9.78,0,0,0,164.66,170.93Z"/><path class="cls-1" d="M221.37,49.78c-2.52.59-4.67-.12-3.74,2a10.15,10.15,0,0,0,3.74,4.32c.94.47,4.21,1.41,5.15,0s1.87-1.83,1.17-2.78-2.46-1.89-3.74-2.71S222.55,49.5,221.37,49.78Z"/><path class="cls-1" d="M64.55,218.6A3,3,0,0,0,62.84,223a8.47,8.47,0,0,0,4.21,2.5c1.4.46,2.49,1.55,3.27-.78s2.5-2.34,0-3.43S66.11,218.29,64.55,218.6Z"/><path class="cls-1" d="M91.84,193a11.53,11.53,0,0,0-1.56,7.18c.16,3-.78,5.61,1.56,7.32s5.61-.46,6.86,2,2.18,9.36,3.43,5.3,1.25-5-.78-8.26-4.19-6.24-4.75-7.8S92.68,191.58,91.84,193Z"/></g><path class="cls-1" d="M20.82,95.74c.71,3.46,2.64,6.53,4.47,9.5.64,8-.72,16.38,2.17,24,.88,1.83,2.7,1.35,4.38,2.94a6.11,6.11,0,0,1,1.5,4c.23,3.63.42,7.59.92,11.16.45,3,.86,6,2.25,8.63a16.29,16.29,0,0,0,3.76,3.54c3.24,2.39,6.55,4.95,10.22,6.61.08,0-.07,0-.11,0s-.13.05,0,0c.44-.12,1.09-.35,1.66-.54,2.19-.71,4.34-1.68,6.72-1.84a22.32,22.32,0,0,1,4.88,1l.71.14h0a.8.8,0,0,0-.2.06c1.78-1.27,4.44-4.36,6.68-2.15,1.74,2.3,1.57,5.24,2.29,7.7a32,32,0,0,0,1.45,3.34c.73,1.52,0,3.42-.84,4.72-.92,1.8-3.13,3.8-5.36,3.87a34.51,34.51,0,0,1-9.36-.36c-.06,0-.32-.09-.37-.09a.62.62,0,0,0,.28,0c.38-.07.16-.06,0,.09a18,18,0,0,0-3.82,8.42,2.56,2.56,0,0,0,.06,1.23c.69,1.35,2.32,2,3.7,3a8.78,8.78,0,0,1,3.68,4c.28.92.4,1.88.7,2.76a6.13,6.13,0,0,0,3.15,4,3.11,3.11,0,0,1,1,.68c1.93,2.26,2.51,5,3.78,7.45a4,4,0,0,0,1.36,1.79c.47.34,1.45,1.22,1.89,1.27.24.06.32,0,.64-.25,1.32-1.59,2.27-4.32,3.47-6.28,1.17-2.13,3.09-4.05,4.1-6.15s.06-4.38-1.19-6.17c-1.66-2.77-3.55-5.47-4.24-8.72-.36-1.83,1-3.05,2.69-3.31A103.49,103.49,0,0,0,90.66,183c.36-.05.55-.71.8-1.25.68-2,1.8-5,.61-6.86-.92-.79-1.89-1.65-2.77-2.52a52.11,52.11,0,0,1-5.1-5.52,65.65,65.65,0,0,0,8.26,7.63,3,3,0,0,1,.75,1.9A15.33,15.33,0,0,1,91.9,183c-.42,1-1.75,1.21-2.65,1.57-2.4.78-4.82,1.42-7.25,2.07-1.15.36-2.63.55-3.13,1.09s-.18,1.69.3,2.75c1.68,4.66,7.34,8.84,5.19,14.24-1.79,3.51-4.27,6.05-5.65,9.76-1.78,4-3.59,6.3-7.68,2.77-2.91-2.16-3.23-7-5.51-9.44-3.33-1.32-4.77-4.95-5.39-8.21-1.68-3.52-8.65-4.26-7.68-9.36A20,20,0,0,1,57,180.07a2.77,2.77,0,0,1,1.65-.82c3.14.44,7.65,1,10.58,0A7.11,7.11,0,0,0,72,175.72c.14-.57.16-.37,0-.91-1.58-2.74-1.93-6.08-2.63-9.07a3.69,3.69,0,0,0-.51-1.17s0,0,.08,0,.15,0,.17,0c-1,.26-2.36,1.59-3.23,2.23a2.52,2.52,0,0,1-1.23.58,4.6,4.6,0,0,1-1.63-.22,23.36,23.36,0,0,0-4.26-1c-2.71.31-5.14,1.54-7.82,2.25a2.8,2.8,0,0,1-1.66-.27,62.91,62.91,0,0,1-10.41-6.91c-1.5-1.3-3.21-2.49-4.23-4.3-2.5-5.34-2.43-11.31-2.82-17-.2-2.46.23-5.29-1.07-6.69-1.05-1-3.9-1.42-4.57-3.45-2.84-7.9-1-16.34-1.37-24.5-1.43-2.29-3.49-6.36-3.94-9.6Z"/><path class="cls-1" d="M95.19,40.54c.51-2.2,0-4.46.46-6.69a1.26,1.26,0,0,1,.42-.73c3.55-1.74,8.51-1.07,12-3,.9-.91,1-2,1.62-3.29,1.25-3,5-3.75,7.85-3.33,1.79.11,3.77.69,5.46.45.07,0,0,0,0,0s.06,0,.16-.12a17.51,17.51,0,0,1,4.75-2.9l.09,0,0,0-.07,0a1.16,1.16,0,0,0-.37,1.75l0,.06.08.07a24.47,24.47,0,0,0-7.18-1.47c-5.37.59-10.87.73-15.85,2.64-3.2,1.32-6.41,4.37-10.18,4.19a28.52,28.52,0,0,1-5.87-.4c-1.13-.68-2.71-2.4-1.55-3.93l2.74-3.18,1.11,1.94c-.72.09-2.84.34-3.54.45-.33,0-.93.22-.58,0a12.81,12.81,0,0,1-4.07,3L74,30.38c-1.81.93-3.89.95-5.37,2.08a1.37,1.37,0,0,0-.31.83A11.43,11.43,0,0,1,66.69,38c-1.63,1.89-3.17,3.76-5.41,4.88a11.28,11.28,0,0,0,3.37-3.37,8.29,8.29,0,0,0,2.27-4c.41-1.26,0-2.56.8-3.76C69.24,30.14,71.66,30,73.33,29l8.38-4.69a11.21,11.21,0,0,0,3.55-2.86,3.27,3.27,0,0,1,1.7-.66c1.18-.22,2.45-.43,3.64-.59l3.06-.43-4.16,5c0,.09-.35.41-.41.5s0,0,0,0,.1-.42.07-.41a2.51,2.51,0,0,0,.63.56l-.45-.17a20.47,20.47,0,0,0,7.28-.15c2.41-.91,4.38-2.68,6.93-3.71,5.13-2.08,10.78-2.19,16.11-2.73a17.17,17.17,0,0,1,5.69.7,15,15,0,0,1,3.7,1.28,1.43,1.43,0,0,1,.23,2.39,1.11,1.11,0,0,1-.33.18l-.64.24a16.48,16.48,0,0,0-3.67,2.24,3,3,0,0,1-1,.53c-2.23.47-4.3-.39-6.42-.58-2.46-.35-4.81-.22-6,2-.69,1.53-1.63,4-3.64,4.38-3.63,1.1-7.56.54-11.11,1.64-.09,0-.19.21-.25.39-.56,2.1-.34,4.4-1.06,6.5Z"/><path class="cls-1" d="M144.54,126.61a15.93,15.93,0,0,1,8.37-1.47,8.23,8.23,0,0,0,4.05-.45c1.19-.59,2.27-1.62,3.59-2.3a13.33,13.33,0,0,0,3.52-2.18c.67-.52,2-2,1.72-2.76a11.15,11.15,0,0,0-3.48-1.32c-1.5-.39-3-.71-4.55-1l-.17-.45c-.81-1.94-1.78-4.13-3.64-5-3.18-.56-6.3.3-9.68-.11a2.59,2.59,0,0,1-1.79-.84,10.42,10.42,0,0,1-2-2.58,4.11,4.11,0,0,1-.27-2,1.21,1.21,0,0,1,1.28-1c.5,0,.86.21,1.33.25,3.06.18,6.19.33,9-1.25.87-.47,1.6-.47,2.33-1.08,1.49-1.18,2.44-3,3.92-4.39.8-2.88.48-6.63.29-9.8-.07-2.31-1.68-5.55,1-7.17,1.34-1,2.68-2,4.07-2.9,4.13-2.89,5.23-1.25,8.94,1a3.8,3.8,0,0,0,1.5.5c-.08,0,0,0,.17-.3a5.23,5.23,0,0,0,.28-1.06c.38-1.85,0-3.9.76-5.78a34,34,0,0,1,2.57-6.78,2.84,2.84,0,0,0,.21-.91c.18-2.12-.52-4.84-.42-7a19.06,19.06,0,0,0-.83-7.7.29.29,0,0,0,.16.1c.21,0,.05,0,.05,0s-.08,0-.15,0c-3.8,1.51-6.17-.24-8-3.74-.81-1.35-1.85-3.95-3.06-4.89-4.87-2-10.53-1.82-15.5-3.58-3.6-1-7.16.81-10.74,1.37-2.89.45-5.81,1.23-8.74.44-3.1-1.86-6.8-3.55-10.51-3.06a8.92,8.92,0,0,0-4.48,3.08,3.24,3.24,0,0,0-.76,2.61c-.56-2.8,2.76-5.37,5.13-6.19,3.8-.68,7.69.78,11,2.58,4.54.62,9.07-1.29,13.56-2.26a11.45,11.45,0,0,1,6-.28c4.59,1.38,9.3,1.41,14,2.56a6.29,6.29,0,0,1,3.05,1.43c1.39,1.35,2.25,3.44,3.22,5s2,3.58,4,2.92a6.64,6.64,0,0,1,2.08-.48,2.22,2.22,0,0,1,1.87,1.14c1.21,2.43,1.21,5,1.32,7.6a18.81,18.81,0,0,0,0,2.71,35.75,35.75,0,0,1,.43,5.87,5.41,5.41,0,0,1-.8,2.5,38.55,38.55,0,0,0-2,5.79l-.24.71a16.37,16.37,0,0,0-.12,1.72c-.22,2.24.1,5.1-2.35,6.45-2.95,1-5.33-1.93-7.73-2.84-1.93.52-4,2.35-5.73,3.51-.23.15-.74.53-1,.66s0,0,0,0-.06.08-.06.43a53.38,53.38,0,0,1,.42,12.83,5.36,5.36,0,0,1-1.12,3.09c-1.41,1.32-2.45,3.24-4.15,4.51a10.37,10.37,0,0,1-2.77,1.32,12.43,12.43,0,0,1-5.89,1.48,17.71,17.71,0,0,1-5.66-.43,1,1,0,0,0,.71-.2c.43-.41.33-.44.4-.63s0,.47,0,.42a1.25,1.25,0,0,0,.08.35,12.57,12.57,0,0,0,1.72,2.15,42.33,42.33,0,0,0,5.89.18c1.54.06,3.05-.21,4.58.39,2.44,1.19,3.58,3.89,4.45,6.19l-.61-.53a34.68,34.68,0,0,1,7.34,2.2c2.73,1.2.51,4.06-1,5.19A14.3,14.3,0,0,1,161,123.2c-1.26.57-2.32,1.51-3.71,2.14a8.85,8.85,0,0,1-4.37.31,16.06,16.06,0,0,0-8.35,1Z"/><path class="cls-1" d="M143.37,150c2.62.93,5.39,0,6.33-2.6a8.27,8.27,0,0,1,6-3.65c3.24-.3,4.06,3.79,5.48,5.75.56.9,1.3,1.55,1.6,1.44,1.22,0,3.18-2.28,3-3.51-.92-2.47-5-3-7.11-4.57a61.76,61.76,0,0,0-8.74-3c-.56-.08-1.06.4-1.75.69-1.57.85-2.52-.33-2.91-1.74,2.07,3.52,2.73-.6,5.31-.06l.92.12a37.87,37.87,0,0,1,10.6,3c2.48,1,5.88,2.09,6.41,5.24.24,3.42-2.89,7-6.42,6.51-3.52-.91-3.78-5.37-5.78-7.58a6.3,6.3,0,0,0-5.83,2.92,5.19,5.19,0,0,1-7.08,1.05Z"/><path class="cls-1" d="M89.34,167.77c2.64,6.52,6.28,7.9,13,7.81a9.79,9.79,0,0,0,4-.64,3.79,3.79,0,0,1,1.62-.26,1.16,1.16,0,0,1,1,.86c.18,2.34-1.26,4.38-2.47,6.24-.64,1.18-2.37,2.13-3.19,2.86-1.25,1.18-.82,3.11-.91,4.69,0,1.84.08,3.69.18,5.53l-.06-.28,2.92,7.68-.06-.14c1.25,2.25,2.52,4.51,3.85,6.69a6,6,0,0,0,5,3.68,1.57,1.57,0,0,0,1.1-.32c4-3.13,9.47-2.3,14.11-1.42,2.16.55,4.54,1.45,6.56,1.05a4.31,4.31,0,0,0,1.22-2.45c0,.26,0-.11-.11-.3a5.9,5.9,0,0,0-.29-.79c-1.68-4.95-12.31-19.26-1.13-19.43,1.84,0,3.27.64,4.79.45a12.89,12.89,0,0,0,4.46-3.24,2.16,2.16,0,0,0,.5-1.08s0,0,0,0a3.67,3.67,0,0,0-.53-.84A60.58,60.58,0,0,0,139.3,179a12,12,0,0,1-2.24-2.46c-1.32-2.64,2.48-3.55,4-4.38a7.31,7.31,0,0,0,2.06-1.23c.11-.12.05-.09.07,0-.31-.35-1.74-1.67-2.21-2.14-2.74-2.86-6.08-4.91-8.61-8a6.43,6.43,0,0,1-1.39-2.2c0,.1.12.22.13.24a15.31,15.31,0,0,0-4.43.37l.64-.71c-.58,3.39-.88,6.87-2.13,10.16a2.62,2.62,0,0,1-1,1c-1.37,1-3.8,1.58-4.85-.25-1.1-2.94-.17-6.43,1-9.22,2.16-3.14,5.54-5.19,7.36-8.6-1.56,3.46-4.79,5.8-6.79,8.9-.9,2.51-1.59,5.85-.61,8.37.84,1.26,3.08.14,3.72-.82,1-3.29,1.29-6.89,1.76-10.36a16.25,16.25,0,0,1,5.78-.62,1.67,1.67,0,0,1,1.27,1.16c1.65,2.51,4.41,4.45,6.77,6.28,1.48,1.23,3,2.64,4.38,3.9.66.65,1.36,1,1.57,2.19a2.84,2.84,0,0,1-1.57,2.64c-1.35,1-3.65,1.63-4.87,2.57,0,0,.06,0,.11-.32,0-.09,0-.1,0-.16s-.06-.09,0,0a11.59,11.59,0,0,0,1.73,1.78c2.22,2.13,5.51,4.12,6.84,7,.68,3.66-3.3,5.83-5.87,7.33-2.37,1.34-5.52-.54-7.8.21-.75.37-1,.54-.82,1.61.95,4.27,3.37,8,5.17,12.08.61,1.58,1.45,2.61,1.32,4.51a6.35,6.35,0,0,1-2.48,4.17c-2.71,1.29-6-.19-8.59-.81-3.28-.7-7.42-1.27-10.61,0-.78.36-1.67,1.29-2.71,1.56-3.57.69-6.87-1.71-8.32-4.78-1.33-2.34-2.58-4.66-3.77-7l-2.7-7.76c-.18-1.95-.07-3.94-.08-5.91s-.13-4.39,1.58-5.84c.81-.73,1.7-1.12,2.28-1.63,1.42-1.57,3-3.83,3.3-6,0-.05.08,0,0,0a3.26,3.26,0,0,0-1.12.16c-3.23,1-6.65.38-9.88-.26-3.9-.69-6.18-4.49-7.35-8Z"/><path class="cls-1" d="M277.86,109.15c-.51.7-1.13,1.33-1.67,2-1.65,2.13-.14,5-.58,7.44-.12,2.49-1.49,4.84-.51,7.06,1.78,2.86,6.15,4.12,6.89,7.9.58,1.88,1,4.87,2.41,6.05,2.15,0,3.33.08,3.57-2.41.1-2.76,1.69-5.61,3.11-7.63,1-1.31.59-2.24,1.18-3.43a10.36,10.36,0,0,0-.95-2.66,37.24,37.24,0,0,1-2.66-7.45c-.66-2.34-.92-5-3.24-6-1.5-.57-5.9-.6-7.55-.8Zm0,0c2.56-.09,5.27-.75,7.9-.23,4.49,1.57,4.37,7.7,6.49,11.24l1.19,2.28c.68,1.44,1.88,3.36,1,5,0,3.17-2.66,5.1-3.32,7.73-.57,1.86-.17,3.6-1.44,5.39-1,1.48-3,1.84-4.65,1.75a3.92,3.92,0,0,1-1.87-.32c-2.71-1.7-2.92-5.13-3.65-7.89a3.48,3.48,0,0,0-.81-1.79c-6.05-5.78-7.05-5.5-4.45-14,.65-2.45-.46-5.61,1.63-7.53.67-.58,1.36-1.08,2-1.69Z"/><path class="cls-1" d="M199.89,44c2.52,1.06,4.36,3.51,6,5.6,1.47,1.9,2.51,2.09,3.81-.17,1.08-1.63.91-3.66,2.52-5.09,2.51-1.7,5.71-1,8.48-1.31,1.6-.12,3.83,0,5-1a1.09,1.09,0,0,0,0-.83c-2-3.73-7.16-4.58-10.84-5.6a39.91,39.91,0,0,1-4.9-2.94c-3.5-1.78-8.52-.29-12.41-1.27l-.12-.05s0,0,0,0,0,0-.18.1a8.13,8.13,0,0,0-2.15,2.71s-.15.43-.28.47a8.71,8.71,0,0,1-1.3.68,1.9,1.9,0,0,0-1.27,1.93,7.43,7.43,0,0,0,2.65,4.59c1.11.91,2.69.65,3.85,1.41a3.48,3.48,0,0,0,1.12.78Zm0,0a3.61,3.61,0,0,1-1.14-.76c-1.17-.73-2.75-.44-3.89-1.35a7.81,7.81,0,0,1-3-4.63,2.19,2.19,0,0,1,.27-1.47c.43-.82,1.57-1.25,2.17-1.73a8.59,8.59,0,0,1,2.26-3.55,1.39,1.39,0,0,1,1.29-.34,2.82,2.82,0,0,0,.43.05c4.22.3,8.74-1.58,12.8.28,1,.51,1.63,1,2.39,1.35a11.09,11.09,0,0,0,4.74,1.73c3.87.85,8.38,2.82,9.91,6.84,1.15,4.65-4.35,4.81-7.44,4.53-2.57,0-5.47-.84-7.78.3a4.25,4.25,0,0,0-1.36,2c-.71,1.72-2.77,5.8-4.94,3.55-2.08-2.44-3.65-5.47-6.73-6.82Z"/><path class="cls-1" d="M150,26.39a29.1,29.1,0,0,0,8.18.1l-.39.28A4.9,4.9,0,0,1,162,23.89a19.41,19.41,0,0,0,3.49-.19A6.18,6.18,0,0,1,170,26.08s-.05,0,0,0c.54.07,1.11-.18,1.7-.1a36.75,36.75,0,0,1,8.09,2.86c1,.59,2.43,1.27,2.57,2.79,0,.61-.15,1.54-.14,2,0,.1,0,.13,0,.08a.55.55,0,0,0-.14-.19s.09,0,.58.09.81.11,1,.11.05,0,.08,0a.86.86,0,0,0,.21-.13,32.84,32.84,0,0,0,3.22-2.75c.43-.63.67-1.79,0-2.26a4.11,4.11,0,0,0-1.57-.63c-2.33-.43-5.12.07-7.26-1.43-2-1.16-2.81-3.51-5-4.06a24,24,0,0,0-6.64.17,4.94,4.94,0,0,1-2.24-.26A6.12,6.12,0,0,1,163,21a6.18,6.18,0,0,1-.9-1.08c-.56-.95-.08-1.43-.52-2.23a7.93,7.93,0,0,0-1.65-1.79,2.38,2.38,0,0,0-.15-.89c-.09-.18-.07-.13-.06-.14s-.68.29-1,.66a3.25,3.25,0,0,0-.87,1.28c-.1.38-.31,1.4-1,1.42-1.5.06-2.79-.39-4.26-.45a.88.88,0,0,1-.55-.28,2.1,2.1,0,0,0-.83-1,1.84,1.84,0,0,0-1.68-.37,2,2,0,0,1,1.81.15,2.89,2.89,0,0,1,.79.57c.29.4.21.43.52.45,1.23-.12,3,.25,4.06,0,.1-2.69,4-6.11,4.83-1.82l-.3-.56c1.06.86,2.32,1.8,2.43,3.38-.07.86.95,1.33,1.61,2.09.24.18.14.11.45.16,3.43-.13,7.82-1.78,10.93.75a36.85,36.85,0,0,0,3.32,3c2.89,1.66,8.28-.43,10.25,3.56,1.07,2.62-.63,5.23-2.68,6.54-1,.72-2.26,2.19-3.77,2.11s-3.15-.08-3.86-1.71a6,6,0,0,1,0-2.9v-.2a.34.34,0,0,0,.06.26c-2-1.69-5-2.55-7.48-3.54a8.07,8.07,0,0,0-.92-.29,7.58,7.58,0,0,1-1.78,0,2,2,0,0,1-1-.48c-.55-.56-.55-.73-.78-.94a4.85,4.85,0,0,0-2.44-1.26,19.58,19.58,0,0,1-3.5-.08,3.85,3.85,0,0,0-3.5,2.13,25.49,25.49,0,0,1-8.5-1.06Z"/><path class="cls-6" d="M136.82,18.55"/><path class="cls-1" d="M160.68,32.35c.72.15,1.5.85,1.82.67a24.91,24.91,0,0,0,3.6-.75c.37-.18.28-.34.26-.15s.07,0-.22-.1c-1.84-.31-3.86-1.32-5.46.33Zm0,0c0-2.24,2.8-3.27,4.73-3a4,4,0,0,1,2.73.66A2.73,2.73,0,0,1,167,34.79a8.68,8.68,0,0,1-4.85-.45c-.94-.49-1-1.22-1.45-2Z"/><path class="cls-1" d="M255.87,108.48c.34,1.33.35,2.71.61,4s.09,2.67,1.32,3.54c1,.92,2.23,1.38,3.34,2.39,1.35,1.17.44,3-.37,4.16a52,52,0,0,0-3.11,5.11,1.34,1.34,0,0,0,.22,1.35c.84,1.17,1.4,2.39,2.23,3.32,2.05,2.62,5.33,1.88,8.21,2.79a1.86,1.86,0,0,1,1,1.64c-.27,2.65-4.28,2.52-6,3.32a13,13,0,0,0-3.08,1.41l0,0s.13-.16.13-.27,0,.1-.05.14a1,1,0,0,1-.12.25,2.69,2.69,0,0,1-.95.75s0-.08,0,.11A2.63,2.63,0,0,1,259,144a3.57,3.57,0,0,1-.44.63c-.13.13-.24.3-.13.12a.81.81,0,0,0,0-.57c-.12-.27,0-.11-.12-.23a14.72,14.72,0,0,0,6.18,1.89c.09,0,0,0-.1.08a4.47,4.47,0,0,1,.56-.39A26.73,26.73,0,0,1,268.1,144l.22,0a21.85,21.85,0,0,1,4.85,0,2.55,2.55,0,0,1,1.38,1.3,48.28,48.28,0,0,1,2.1,5.12,2.12,2.12,0,0,0,.86,1.14c.95.71,2.64,1.72,3.39,3.51a32.28,32.28,0,0,1,1.87,6.48c1.26,4.86-4,4.07,2.59,7.42,3.35,1.44,5,2.14,3.25,6.12-.91,2.72-.38,6.56-2.67,8.71-1.61,1.67-4.11,2.62-5.61,4a8.19,8.19,0,0,0-.73,1.11c-.78,1.44-1.93,3.71-4,3.49a28.13,28.13,0,0,1-6.78-.57,2.75,2.75,0,0,1-2-2c-.07-.43-.08-.25,0-.07a22.08,22.08,0,0,0-10.05-3.19A4,4,0,0,1,254,185.3a2.73,2.73,0,0,1-.55-1.7,5.42,5.42,0,0,1,2.54-5.14c.81-3.44,5.13-4,6.67-6.67,0,0,.07-.14,0,0s.05.07,0,.11.08.05,0,0c-1.52-.87-3.93-.35-5.06-2.15-.29-.9-.12-1.39-.42-2.24-1.05-2.7,1.31-4.78,3.48-5.64,1.64-.88,4.38-1.1,5.4-2.53.3-1.2-.13-2.66-1.68-2.07-1.27.48-4.68,1.79-6,2.28s-2.55,1.66-4,1.19c1.52.36,2.61-.92,3.91-1.45l3.93-1.77c1.22-.47,3.3-1.9,4.34-.37a3.29,3.29,0,0,1,.36,2.4c-.26.93-1.07,1.29-1.79,1.68-2.33,1.21-5.51,1.69-6.65,4.2-.32,1,.58,2.42.53,3.59,1,.87,3.51.51,4.83,1.55a1.63,1.63,0,0,1,.32,2.07c-1.21,2.65-4.7,3.51-6,5.72a5.57,5.57,0,0,1-.44,1.19,3.34,3.34,0,0,1-1.16,1.05c-.59.32-1,1.77-.92,2.86,0,.24.14.59,0,.33a1.49,1.49,0,0,0,.5.31,2.22,2.22,0,0,0,.6.16,23.5,23.5,0,0,1,9.79,2.53c.93.54,2.22.86,2.59,2.24a2.36,2.36,0,0,0,0,.25s0-.06,0,0a29.46,29.46,0,0,0,6.56.41c.1,0,0,0,0,0s0,0,0,0a1.75,1.75,0,0,0,.38-.43c.78-1.11,1.43-2.88,2.58-3.81,2-1.67,5.1-2.65,5.91-4.8.57-2.55.76-5.68,1.81-8.2,0-.05,0,0,0,.07a.25.25,0,0,0,.08.14c-2.53-1.43-6.06-2.3-7.33-5.33-.59-1.26.5-3.2.85-3.93a1,1,0,0,0,.08-.41,31.66,31.66,0,0,0-1.82-6.86c-.46-1.46-3.25-2.42-4-4.2s-1.31-4-2.27-5.67h0l.09.06a.78.78,0,0,0,.21.09,13.15,13.15,0,0,0-1.87-.06c-.7,0-1.41,0-2.1.08l.41-.1a24.86,24.86,0,0,0-2.6,1.24,3,3,0,0,1-1.33.62c-2.87.12-5.11-1-7.56-2.21a2.74,2.74,0,0,1-.85-.74,1.5,1.5,0,0,1-.12-1.46c.53-1,.72-.52.68-1.38a2.39,2.39,0,0,1,1.42-2.09c.05,0,.09-.05,0,0a.85.85,0,0,0-.19.27s-.05.2,0,0a1.8,1.8,0,0,1,.79-.92c2.42-1.61,5.7-1.78,8.18-2.85.18-.12.15-.14.13,0s0-.08,0-.05.07.05,0,0c-1.46-.39-3.21-.46-4.8-1-3-.66-4.61-3.7-5.9-6-1.1-1.39,0-3.27.87-4.36.6-1,1.65-2.37,2.35-3.35s1.63-2.1.62-3.15c-.86-.88-2.2-1.49-3.18-2.5-1.24-.93-1.18-2.5-1.23-3.89s-.09-2.73-.34-4.07Z"/><path class="cls-6" d="M234.82,107.78"/><path class="cls-1" d="M209.54,112.23c-3.57-2.4-8.47-4.29-9.43-9-.19-.57-.26-1.41-.78-1.8a2.08,2.08,0,0,0-1.56-.64c-.07,0,0,0,0,0a.63.63,0,0,0,0,.19c0,1.08.13,3.17-1.52,3.07a10.73,10.73,0,0,1-4.25-3.24,8.86,8.86,0,0,1-1.58-4.39,43.73,43.73,0,0,1-.69-4.47c0-.87-.43-1.45-.09-2.48.74-1.75,2.31-1.54,2.66-3a4.94,4.94,0,0,0-1.6-3.2.73.73,0,0,0,.8,0,7.6,7.6,0,0,1-1.24,1.78,1.56,1.56,0,0,1-1.32.39,2.28,2.28,0,0,1-1.43-1.25c-.3-.61-1.45-2.07-1.44-2.82A4.46,4.46,0,0,1,186.2,80c.17-1.26-.29-3.26,1.13-4.33,1.19-.83,2.16-.51,3.47-1.12,2.73-1.25,5,2,6,3.73a1.1,1.1,0,0,0-1.6.25c.13-.24,0-.57,0-1.16-.24-1.78-.1-3.8,1.1-5.14.79-1.06,2.09-1.63,2.6-2.47a13.9,13.9,0,0,1,2.49-3.9l.32-.42c1.21-1.87,3.91-1.36,5.52-.59a17.16,17.16,0,0,1,4.28,2.18,4.86,4.86,0,0,1,1.15,1.42c.06,0,.16.16.3.28a30,30,0,0,0,5.3,3.3c1.43.81,2.46.94,3.74,0a2.44,2.44,0,0,0,.71-.6c-.11-.63-.84-1.3-1.43-1.88-2.46-1.25-5-3.14-3.86-6.5.12-.39.4-1.22.53-1.61.55-1.43,1-3.2,2.54-4.06,2.62-1.18,4.89,2.69,7.06,2.59,1,0,2.21-.33,3.44-.19,1.87.17,2.31,2.25,1.46,3.61a8.91,8.91,0,0,1-2.72,2.78l-.29.21a7.3,7.3,0,0,0-2.2.31c.05,0,0,0,.1-.15s.06-.23.09-.31,0-.23,0-.25a.08.08,0,0,0,0,0,10.07,10.07,0,0,0,3.8,2.27c.94.14,2.28.13,3.06.72.14.09.18.09.13.08a.42.42,0,0,0-.22,0,9.4,9.4,0,0,0,2.69-2.62,2.52,2.52,0,0,1,1.31-1c.85-.24,1.1,0,1.73-.24a3.7,3.7,0,0,1,1.32-.36,2,2,0,0,1,1.62,1.11c1,1.64,1.25,3.64,1.83,5.33,1.75,2.48,4.29,4.07,6,6.85a1.76,1.76,0,0,1,.09,1.77,1.82,1.82,0,0,1-1.5.81c-1.9.13-3.75-.15-5.55,0a3.35,3.35,0,0,0-1.4.3c-.25.48,0,.79.07,1.42-.18,2.15-3.07.75-4-.05s-2-1.58-2.88-2.3a4,4,0,0,0-3-.8l.19-.07a2.77,2.77,0,0,0-1.37,2c-.07.45,0,1-.1,1.49-.1,1-.73,1.7-.05,2.51a2.79,2.79,0,0,0,2.23,1.21,2.91,2.91,0,0,1,1.63.32c1.7,1.39,2.25,3.46,2.69,5.47a7.15,7.15,0,0,1,.07,3c-.28.18-.51.12-.71.27-.61.45-.55,1.34-.58,2,0-.71-.12-1.63.5-2.15.21-.16.54-.17.66-.27a4.44,4.44,0,0,0,0-1.4c-.35-2.25-1.12-5-2.94-6.43-.82-.41-2.05.09-2.92-.52s-2-1.5-1.81-2.76a10.73,10.73,0,0,0,.31-3A3.91,3.91,0,0,1,232.16,78a6.32,6.32,0,0,1,2.17,0c2.55.52,4.13,3.22,6.52,3.88.14,0,.32,0,.21,0s-.35.44-.33.47c-.31-.75-.3-2.29.6-2.83,2.49-1.27,5.09-.43,7.63-.74.25,0,.3-.16.11.08s0,.22-.15,0a42.11,42.11,0,0,0-4.87-5.09c-2.13-1.56-1.88-4.93-3.32-6.89a.58.58,0,0,0,.37.13c.34,0-.07.07-.41.23a6.42,6.42,0,0,1-1.88.33s.06,0,.06,0A13.26,13.26,0,0,1,236.76,70c-.57.51-1.87,1.71-3.1,1.31-.56-.16-.79-.45-1.18-.53s-1.23-.08-1.79-.18a11.73,11.73,0,0,1-4.56-2.41A3.52,3.52,0,0,1,225,66.77a1.85,1.85,0,0,1,.51-2,5.64,5.64,0,0,1,3.46-1l-.68.22c.63-.4,1.94-1.67,2-2.18,0,0,.07.32.26.4s.17.08.09.08c-1,0-2,.26-3.15.24-2.12,0-3.87-1.54-5.53-2.54-.24-.16-.62-.29-.44-.24s.27-.11.14,0a12.73,12.73,0,0,0-1.46,3.5c-.07.22-.2.66-.24.88-.31,1.91,2.2,2.24,3.3,3.32,1.54,1.32,3.32,4,1.39,5.9-1.5,1.32-3.07,2.27-5.17,2a25,25,0,0,1-8.29-4.69,3.74,3.74,0,0,1-.82-.93c-.78-1.37-2.48-1.76-4.1-2.51a4.33,4.33,0,0,0-2.24-.53c-.07,0-.13.06-.31.29l-.36.46a9.66,9.66,0,0,0-2,3,4.9,4.9,0,0,1-1.72,2.09,9.12,9.12,0,0,0-1.45,1.28c-.82.92-.68,2.16-.6,3.24a4,4,0,0,1-.35,2.8,1.35,1.35,0,0,1-1.66.47,2.06,2.06,0,0,1-.87-.86,9.88,9.88,0,0,0-2.12-2.63c-.44-.25-.33-.27-1-.08a23.6,23.6,0,0,1-2.84.68c-.5.62-.12,2-.41,3a4.84,4.84,0,0,0-.15.78c.28.65.93,1.63,1.34,2.38,0-.06-.07-.05-.16-.07a.55.55,0,0,0-.32,0c.6-.56.83-1.71,1.78-2a1.27,1.27,0,0,1,1.07.22A6.41,6.41,0,0,1,194,86.62,3.33,3.33,0,0,1,192.49,89l-.89.63a1.17,1.17,0,0,0-.43.48c-.06.1-.06.28,0,.65a68.5,68.5,0,0,0,1,7.56c.54,2,2.18,3.37,3.92,4.58.14.09.25.16.33.15a4.13,4.13,0,0,0,.36-2c0-1.88,2.35-1,3.09-.14a4,4,0,0,1,.9,2.19c.78,4.59,5.4,6.51,8.74,9.14Z"/><path class="cls-1" d="M241.6,156.9c-.58.72-1.67.71-2.14,1.47-1.35,2.2-2.09,4.91-3.39,7.15-.83,2.95-.13,6.5.43,9.52.29,1.23-.2,2.44-.16,3.53,0,.68.18,1.89.17,2.56.2,1.5,2.23,2.36,3.06,3.58,1.52,1.6,2.69,3.36,4.42,4.5,1.56.93,3.44,1.37,4.86,2.7,2.07,2,1.91,6.05-.48,7.65-1,.84-1.9,1.07-2.12,2.07-.35,3.36,1.58,9.88-3.2,10.76-2.79.28-5.26-1.43-7.92-1.39a3.71,3.71,0,0,1-1-.08c-2.78-.83-4.77-2.62-6.71-4.48-1.38-1.69-2.71-4-1.86-6.33.88-2,3.14-2.78,4.88-3.68.91-.53.81-1,.94-2.27a9.71,9.71,0,0,1,1.8-5.71c.07-.11.28-.36.31-.44s0,0,0,0,0-.05-.15-.19a1,1,0,0,0-.42-.27c-.54.16-2,1-3.11,1.31a5.08,5.08,0,0,1-3.43-.35c-1.06-.46-2.65-1.21-2.38-2.72a6.44,6.44,0,0,0,.34-1.44,1.76,1.76,0,0,0-.06-.3.7.7,0,0,0,.29.35,15.49,15.49,0,0,1-2.65-.55,4.78,4.78,0,0,1-2.47-2.27c-.93-1.55-2.39-2.62-3.17-4.47a6.48,6.48,0,0,1-.25-3.07c.1-1.3-.42-3.83,1.25-4.57A18.62,18.62,0,0,1,224,167.8c.95-.18,1.66-.39,1.72-1.07v-.65c0-1.8-.37-4.28-2.22-5-.72-.29-1.63-.37-2.56-.76a34,34,0,0,1-3.36-2.43c-1.75-1.7-.77-4.7-.79-6.64-.59-1.52-2.45-2.56-3.26-4,1,1.56,2.83,2.17,3.67,3.94.11,1.79-.27,3.54.28,5.22.38,1.14,1.94,1.55,2.86,2.36,1.36,1.24,3.5.61,5,1.95,1.61,1.62,2,3.9,2,6.07s-2.64,2.81-4.39,3a16.69,16.69,0,0,0-4.66,1.54c-.2.11-.07.06-.11.08-.14,1,.09,2.94,0,4.08.2,2,2,2.87,3.34,5,.83,1.52,1.42,1.3,3.88,1.73,1.77.43,1.69,2.91,1.16,4.19l0,.09s0,0,0,0a.92.92,0,0,0,0-.49c-.19-.41-.12-.18,0-.15a3.71,3.71,0,0,0,2.65.67c1-.28,2.31-1.26,3.56-1.47a3.3,3.3,0,0,1,2.6,1,2.83,2.83,0,0,1,.42,3.7,6,6,0,0,0-1.23,2.31,32.77,32.77,0,0,0-.47,3.87c-.18,1.78-1.93,3.11-3.44,3.66-.94.58-2.55,1-2.43,2.3.52,2.86,3.83,5.15,6.19,6.32.73.33,1.55.06,2.32.26,1.85.34,3.46,1,5.17,1.32.73.14,1.26,0,1.35-.1.8-1.12.58-2.72.62-4.13a39.24,39.24,0,0,1,.05-4.2c.21-2.19,2.71-3,3.75-4.21a3,3,0,0,0-1.1-4.19C245,192,243,191.29,241.73,190c-2-1.95-3.27-4.15-5.29-5.95a4.46,4.46,0,0,1-1.53-4.16,13.76,13.76,0,0,1,.32-4.07c-.29-3.57-1.08-7.09.16-10.63.42-.85.93-1.54,1.34-2.32.89-1.54,1.4-3.3,2.57-4.67.61-.79,1.69-.66,2.3-1.33Z"/><path class="cls-1" d="M171.32,113.4c-2.23,2-1.75,3.23-.63,5.76.51,1.22.19,2.63.3,3.84,2,.24,4.84-.66,6.72-1.59s3.16,0,4.15,1.51c1.32,1.68,1.53,3.39,3,4,.56.29,1,1,1.47,1.17a2.86,2.86,0,0,0,.71.07c1.92-.06,3.42.56,4.37-.15.32-.31,1.38-2.14,1.7-2.57.66-1,1.61-2.82,2.6-3.5.45-.3,1.28-1.14,1.26-1.37,0,0,0,0,0,0s0,0-.08-.17a2.74,2.74,0,0,1-.2-2.22s-.08.06.1.48a.94.94,0,0,0,.4.43.4.4,0,0,0,.22.08s0,0,0,0a13.79,13.79,0,0,0-5,1,10.35,10.35,0,0,1-1.22.48,1.8,1.8,0,0,1-1.91-.83c-1.56-2.2-2.28-4.72-3.51-7,0,0,0-.06,0,0a0,0,0,0,0,0,0,.75.75,0,0,1-.17-.14c-.28-.36-.21-.6-.34-.92a1.84,1.84,0,0,0-1.52-1,9.44,9.44,0,0,0-2.2-.17,6,6,0,0,1,3.44,0,2.47,2.47,0,0,1,1.27,1.51l-.06,0a4,4,0,0,1,1,1.24,34.07,34.07,0,0,0,3.69,5.69c-.06-.06-.24-.07-.18-.07a16.12,16.12,0,0,1,5.39-1.9c1.65-.4,3.46,0,2.94,2,0,.24,0,.12,0,.19,1.28,1.85-.37,3.92-1.67,4.92-.44.34-.42.43-.79,1-1,1.52-2,3.46-3.15,4.92-1,1.22-3.1,1.32-4.3,1.14a36.47,36.47,0,0,1-3.64-.37c-1-.28-1.44-1-2.09-1.5-2-1-2.43-3.28-3.55-4.88a7.94,7.94,0,0,0-.56-.76c-.2-.24-.26-.21-.14-.21a1.49,1.49,0,0,0-.57.16c-2,.82-9.45,3-9.11-.89a9.24,9.24,0,0,0,.19-3.17c-.83-2.67-1.07-4.44,1.67-6Z"/><path class="cls-1" d="M164.66,170.93c-.84.43-2,.9-1.76,1.94a7,7,0,0,0,1.52,3.67,12,12,0,0,0,4.58.84c.23.19.85.19.68.22s-.26.23-.24.26a1.93,1.93,0,0,0,0-.82c-.11-.49-.38-1.76-.48-2.27-.05-.2,0-.21-.11-.33a15.15,15.15,0,0,0-4.16-3.51Zm0,0a9.25,9.25,0,0,1,5.53,2,5.88,5.88,0,0,1,1.39,2.61,6.68,6.68,0,0,1,.55,2.39,2.44,2.44,0,0,1-2.86,2.36,4.87,4.87,0,0,1-1.16-.27l.48.1c-2-.15-3.92-.3-5.64-1.65-1.53-1.48-1.71-3.71-1.45-5.72.22-1.6,1.84-2,3.16-1.87Z"/><path class="cls-1" d="M221.37,49.78c-1.09.28-2.3.29-3.31.66-.54.22-.34.58-.09,1.05,1.57,2.4,4.35,4.2,7.23,3.92.35-.08.2,0,.34-.12a13.73,13.73,0,0,1,1.4-1.39s.11.16.12,0c-.48-1.16-1.71-2-2.72-2.83-.89-.61-1.74-1.73-3-1.29Zm0,0c1.18-.46,2.15.54,3.17,1,1.31.67,2.94,1,4,2.32s-.54,2.85-1,3.74c-1.32,1.94-4,1.56-5.79.91s-3.18-2.5-4-4.18a5.57,5.57,0,0,1-.69-2.76,1,1,0,0,1,.82-.69,29,29,0,0,0,3.43-.3Z"/><path class="cls-1" d="M64.55,218.6c-2.09.47-2.68,3.63-.61,4.52a9.6,9.6,0,0,0,2.72.93,9.41,9.41,0,0,1,2.23.69c-.16,0-.2.13-.14.07a15,15,0,0,1,1.13-2,4.11,4.11,0,0,1,.72-.76s0,.25.09.43,0-.06-.12-.16c-1.08-.78-2.22-1.66-3.18-2.5a4,4,0,0,0-2.84-1.22Zm0,0c1.09-.17,2.08.47,3,.89a20.25,20.25,0,0,0,3.8,1.34,1.82,1.82,0,0,1,1.1.84,1.55,1.55,0,0,1,0,1.21c-.17.45-.41.84-.59,1.23a12.92,12.92,0,0,1-.92,2.31,2.5,2.5,0,0,1-1.39,1,2.69,2.69,0,0,1-1.57-.09c-1.87-.84-3.7-1.56-5.06-3.2a3.41,3.41,0,0,1,1.55-5.56Z"/><path class="cls-1" d="M91.84,193c-2.07,3.16-1.29,7-1.19,10.49,0,2.31,1.41,4,3.73,3.76l1.78-.12c4.19-.53,4.56,4.77,5.74,7.46.09.26.3.51.11.32a1.08,1.08,0,0,0-1-.15c-.46.19-.4.32-.4.27a15.78,15.78,0,0,0,1.18-4.41c0-2-1.61-4.19-2.52-6.05l-1.72-3.18c-1.51-2.86-2.27-6.36-4.91-8.47a.5.5,0,0,0-.77.08Zm0,0c1.07-1.27,4,4,4.59,4.89,1.51,3.28,4.15,5.82,6.16,8.83a8.11,8.11,0,0,1,1.6,3.77,12,12,0,0,1-.53,4c-.28,1.15-1,3.69-3,2.85a3.12,3.12,0,0,1-1.32-1.63c-.78-1.74-1.15-4.9-2.06-6-.36-.36-1.66-.33-2.94-.43a4.92,4.92,0,0,1-3.69-1.89,5.39,5.39,0,0,1-.82-3.84c.44-3.56-.07-7.37,2-10.48Z"/></g><g class="cls-7"><path class="cls-8" d="M110.09,116.72c-.43.75-1.57,1.14-1.6,1.5a8.89,8.89,0,0,0,0,2,2.17,2.17,0,0,0,2.92,2.28c1-.44,3-.21,3.4-1.5.21-1.24-.67-2.73-1.88-3.77l.07-.12c3.44,1.1,4.8,6.55-.24,6.39a4.85,4.85,0,0,1-5.6-4.31,2.72,2.72,0,0,1,.34-1.49,2,2,0,0,1,1.3-.75,7.4,7.4,0,0,0,1.16-.31l.09.11Z"/><path class="cls-8" d="M108.29,91.17a26,26,0,0,1,.55,8.51c.65,4.71,2,9.2,2.28,14l-.14,0a17,17,0,0,1-2-5.41c-.63-2.83-.29-5.74-.57-8.59a16.85,16.85,0,0,1-.24-8.55Z"/><path class="cls-8" d="M113.66,125.09a16.74,16.74,0,0,1,1.44,6.72c1.15,3.67,3,7,3.71,10.81l-.12.07a11.36,11.36,0,0,1-2.55-4c-.92-2.17-.9-4.56-1.48-6.81a11.15,11.15,0,0,1-1.14-6.82Z"/><path class="cls-8" d="M117.26,96.28a17.11,17.11,0,0,1-1.77,6.65c-.65,3.79-.52,7.55-1.61,11.31h-.14a11.35,11.35,0,0,1-.47-4.69c.16-2.35,1.27-4.47,1.78-6.74a11,11,0,0,1,2.08-6.59l.13,0Z"/><path class="cls-8" d="M118.2,121a16.93,16.93,0,0,1,6.85-.55c3.79-.66,7.3-2,11.2-2.27l.05.12a11.16,11.16,0,0,1-4.25,2c-2.27.64-4.65.31-7,.59a11.1,11.1,0,0,1-6.91.24V121Z"/><path class="cls-8" d="M104.21,142.6a16.78,16.78,0,0,1,2.49-6.42c1.06-3.69,1.34-7.45,2.83-11.06h.14a11.49,11.49,0,0,1,0,4.71c-.42,2.32-1.75,4.31-2.5,6.51a11.13,11.13,0,0,1-2.79,6.32l-.13-.06Z"/><path class="cls-8" d="M128.67,95.94a29.37,29.37,0,0,1-5.76,6.6c-2.88,3.94-5.06,8.22-8.09,12.09l-.13,0a16,16,0,0,1,2.22-5.52c1.51-2.57,3.81-4.5,5.65-6.8a16.92,16.92,0,0,1,6-6.42l.1.1Z"/><path class="cls-8" d="M116.2,124.45a29.48,29.48,0,0,1,8.08,3.37c4.65,1.5,9.4,2.2,14,3.86v.14a16.48,16.48,0,0,1-5.94-.36c-2.91-.63-5.47-2.2-8.24-3.21a17.06,17.06,0,0,1-8-3.68l.06-.12Z"/><path class="cls-8" d="M85,116a20.61,20.61,0,0,1,7.57,1.15c4.26.32,8.45-.14,12.71.68V118a14.17,14.17,0,0,1-5.14.83c-2.6,0-5.08-.9-7.64-1.2A13.8,13.8,0,0,1,85,116.13l0-.14Z"/><path class="cls-8" d="M81.84,126c3.3.27,6.44.57,9.71.81,5.42-.56,10.36-2.83,15.34-5l.09.12c-3.87,4.38-9.9,5.16-15.4,5.3-3.27.58-6.83.7-9.79-1.14l0-.13Z"/><path class="cls-8" d="M92.77,97.77a25.73,25.73,0,0,1,5.43,6.57c3.29,3.43,7,6.25,10,10l-.08.11a16.84,16.84,0,0,1-4.81-3.2c-2.17-1.92-3.6-4.47-5.5-6.62a16.81,16.81,0,0,1-5.21-6.78l.12-.08Z"/><path class="cls-8" d="M128.08,246c-8.18.53-3.89,8.48,2.07,7.49,4.42-.88,2.25-4.84-.19-6.76a6.66,6.66,0,0,1,4.11,3.91c1.3,4.26-4.22,6.66-7.57,5.32-6.74-1.84-6.44-12.13,1.58-10Z"/><path class="cls-8" d="M131.14,257.45c7.66,6.78,14.49,14.49,21.85,21.53-5-1.7-9.11-5.23-12.79-8.88a45.16,45.16,0,0,1-9.06-12.65Z"/><path class="cls-8" d="M135.13,248.45c8.79-1.3,17-4.74,25.17-8a179,179,0,0,0,23.85-11.57c-10.35,10.48-34.23,21-49,19.55Z"/><path class="cls-8" d="M138.78,251.73c10.81-1.29,21.13-4.64,31.47-7.87a236.42,236.42,0,0,0,30.31-11.69c-14.2,11-43.84,21.06-61.78,19.56Z"/><path class="cls-8" d="M119.2,283c1.28-9,3.81-17.22,6.39-25.83.91,4.49.13,9.11-1,13.48A38.16,38.16,0,0,1,119.2,283Z"/><path class="cls-8" d="M108,288.23c4.8-10.71,11-21.81,16-32.44-.41,6.16-2.85,12-5.53,17.43-2.84,5.4-6.05,10.67-10.42,15Z"/><path class="cls-8" d="M136.7,255.79c9.09,2.27,17.76,5.78,26.59,8.7-4.77.74-9.59-.45-14.09-1.93a39.13,39.13,0,0,1-12.5-6.77Z"/><path class="cls-8" d="M129.71,258c4.23,10.3,7.2,21.2,10.84,31.68-3.83-4.26-6-9.68-7.85-15a55.64,55.64,0,0,1-3-16.66Z"/><path class="cls-8" d="M155,228.9c-7,6.2-14.82,11.37-22.23,17,2.1-4.35,5.81-7.65,9.58-10.52A39.2,39.2,0,0,1,155,228.9Z"/><path class="cls-8" d="M114,220.75c3.65,7.54,6.29,15.91,9.24,23.68C117,238.88,113.8,229,114,220.75Z"/><path class="cls-8" d="M86.26,246c11.38.33,22.83,1.84,34.17,2.21-5.48,2.07-11.51,2.07-17.27,1.67A53.67,53.67,0,0,1,86.26,246Z"/><path class="cls-8" d="M77.68,266.47c14.79-2.47,29.36-5.79,42.75-12.73C109.27,264,92.55,268,77.68,266.47Z"/><path class="cls-8" d="M96.09,220c8.09,9.42,15.78,19,25.57,26.74C109.88,242.5,100.74,231.4,96.09,220Z"/></g><circle class="cls-9" cx="150" cy="150" r="150"/></svg>