<svg id="Capa_1" data-name="Capa 1" xmlns="http://www.w3.org/2000/svg" viewBox="0 0 298.14 298.14"><defs><style>.cls-1,.cls-3{fill:#fdc629;}.cls-2,.cls-8{fill:#fff;}.cls-2,.cls-9{opacity:0.6;}.cls-3{opacity:0.2;}.cls-4{opacity:0.7;}.cls-5{opacity:0.5;}.cls-6{fill:none;}.cls-7{opacity:0.3;}.cls-9{fill:#010101;}</style></defs><title>WaxingMoon</title><circle class="cls-1" cx="149.07" cy="149.07" r="149.07"/><circle class="cls-2" cx="149.07" cy="149.07" r="149.07"/><path class="cls-3" d="M299,150A149.07,149.07,0,1,1,149.87.93c2.14,0,4.28,0,6.39.14A136.59,136.59,0,1,0,298.81,143.61C298.91,145.73,299,147.86,299,150Z" transform="translate(-0.8 -0.93)"/><g class="cls-4"><g class="cls-5"><path class="cls-1" d="M21.49,96.07c.49,3.7,4.19,9.53,4.19,9.53s.23,6.74,0,10.23.46,12.09,2.09,14.41,5.11.7,5.34,6.28.7,17.66,3.72,20.92,13,10,14.18,9.76,6.28-2.33,8.14-2.33,5.11,1.4,5.81,1.17,3.25-3,4.65-2.79,1.86,4.41,2.32,6.74,1.86,3.95,1.86,5.11-1.63,4.42-3.72,5.35-9.06.46-10.69,0-5.81,8.13-5.11,11.15,7,4,7.67,7.91,2.55,6,4.41,6.74,3.72,8.13,5.35,9.3,3.49,3.48,5.34,0,1.86-4.19,3.72-7S85,203.69,84,200.44s-.7-1.63-3.49-6.51-3.25-7-.46-7.67S90.76,183.7,91.46,183s2.79-7.2.93-8.6-7.21-6.5-7.91-7.67-2.09-8.83-2.09-8.83-2.79-7.67-1.16-7.9,12.78.46,13.48,1.39-.23.7,0,2.09-3.25,2.79-3.72,5.58-2.32,6.05-1.39,8.6,2.85,5.81,5.37,7,8.11,1.39,9.73,1.16,4-1.63,3.72.23-1.86,4.42-3,5.81-3.48,1.63-3.72,4.42,0,8.37,0,8.37l2.79,7.67s4,7.44,5.12,8.83,4,2.56,5.57,2.09,1.86-2.32,7.21-2.32a26.58,26.58,0,0,1,9.07,1.39,11.83,11.83,0,0,0,4.64.47c.93-.24,1.86-1.4,2.33-3.49s-8.14-14.88-6.28-17.9,7-.23,8.84-1.16,5.34-3,5.57-5.35-8.6-7.9-8.6-9.53,8.6-3,5.81-5.57a77.18,77.18,0,0,0-6.27-5.58c-1.4-.93-5.35-4.65-5.58-5.81s-5.35,0-5.35,0-1.16,9.29-2.09,10.22-3.25,2.1-4.41.7-.47-6.28.46-8.6,4.65-4.42,7.21-9.06-.93-7,3.48-7,10,4.19,12.09,5.35,5.5.68,6.59-1.64,5.26-4.17,6.89-3.24,2.56,5.81,4.88,7,6-2.79,5.12-5.35-6.05-3.71-7.44-4.64-8-2.56-9.45-2.79-3.1,3.25-4.73-.47a59.89,59.89,0,0,1-2.33-6s-2.55-4,1.63-6.05,8.6-.93,10.93-1.16,3.25-1.86,6-3,6-4.42,4.42-5.58-7.67-2.32-7.67-2.32-1.86-5.58-4.89-5.81-9.29.46-10-.47-2.09-1.86-2.09-3.25-.47,0,4.88-.23,4.88-1.17,7.2-1.86,4-4,5.35-5.12.93-9.76.7-11.62-.93-4.18.23-4.88S165.2,77,166.91,77s4.5,3.26,6.83,3,1.63-6.27,2.09-7.43,1.4-5.12,2.56-7-.23-6.74,0-8.83-.23-8.37-1.63-8.6-2.56,1.39-4.88,0-3.95-7.21-6-8.37-10.23-2.09-12.56-2.55-4.18-1.63-7.43-.93-6.28,1.62-9.3,2.09-5.35.7-6.51-.23-7.9-3.69-10.92-2.08-4.65,3.93-4.19,5.56,1.86,4,1.63,5.35a22.85,22.85,0,0,1-3.25,6.27c-.7.7-1.4,0-3.72,3.26s-6.52,6.51-9.42,5.11-5-4.41-6.85-6S89.13,54,89.13,51.91s5.58-8.14,6.28-10.69.23-5.81.93-7,10.46-1.16,12.32-2.79,1.16-4.41,4.41-5.81,9.3,1.17,10.69,0a16.78,16.78,0,0,1,4.65-2.79c1.4-.46-6.27-2.32-8.13-2.09s-10.69.7-15.11,2.33-6.28,4.18-9.76,4.41a26.82,26.82,0,0,1-6-.23s-1.86-1.16-.93-2.09,2.56-3,2.56-3-3.72.46-4.42.69-.23.93-3.95,3-6.27,3.48-8.83,4.65-5.35,1.39-5.58,3-.46,4.18-2.09,5.81S65,41.45,61.7,43.54s-2.55,0-7,4.65-4.88,4.18-5.35,7.67.24,5.58-1.16,8.14-.69,5.11-4.65,7.43a50.15,50.15,0,0,0-5.34,3.49c-.7.47-1.16,8.14-4.65,8.37S29.86,81,29.39,79.8s-6.27,4-6.74,6.74S21.19,93.82,21.49,96.07Z" transform="translate(-0.8 -0.93)"/><path class="cls-1" d="M276.94,109.4c-2.17,2.48-3.1,1.86-2.79,6.82s-2.9,8.06-.06,11.15,5,3.72,5.64,6.2,1.55,7.44,3.72,7.44,4.65.31,5-4,3.72-6.82,3.72-9,1.55-.31-1.55-6.5-2.1-12.09-7.87-12.09Z" transform="translate(-0.8 -0.93)"/><path class="cls-1" d="M199.46,44.63c5.44,2.43,6.51,9.6,9.3,6.5s1.24-6.19,5.89-6.5,11.47.93,11.78-2.17-5.51-6.24-8.88-6.82-3-.81-5.23-2-2.67-2.32-6.62-2.21-7.67.34-8.48,0-2.79,2.68-2.91,3.38-3.49.92-2.44,3.83,2.56,4.3,4.76,4.65S198,44,199.46,44.63Z" transform="translate(-0.8 -0.93)"/><path class="cls-1" d="M172.11,28c2.31.73,8.72,2.9,8.72,4.41s-.82,3,1,3.26,1.86.46,3.37-.81,2.91-2,3.26-3.41.58-3.1-2.33-3.92-5.46.35-8-1.86-2.68-3.6-6-3.72-4.76.47-6.16.47-1.39-.23-2.32-1.16-1.16-1.05-1.16-2.21-2-2.67-2-2.67-.23-2.68-2.32-.58-.12,3.13-2.91,2.78-3.14,0-3.37-.58-1.74-1.51-2.56-1,.7.93-2,.93a13.77,13.77,0,0,0-4.07.23c-1.86.35-1,1.39-3,1.16s-6.16-2.44-3.49.12A10.51,10.51,0,0,0,145,22.16c2.21-.24,2.56.35,2.56,1.51s0,2.9,2.29,3.48a23.67,23.67,0,0,0,4,.59,23.8,23.8,0,0,0,4.18,0,4.34,4.34,0,0,1,4.26-2.35c3.06.25,2.71-.56,4.8.49s1.52,1.86,2.68,2S170.82,27.56,172.11,28Z" transform="translate(-0.8 -0.93)"/><path class="cls-1" d="M160.49,33.08c1.16.93,1,1.4,2.32,1.4s3.37.23,4.3-.7.24-2.28-1.16-2.36-2.17-.5-3.64,0A2.81,2.81,0,0,0,160.49,33.08Z" transform="translate(-0.8 -0.93)"/><path class="cls-1" d="M222.78,73.18c1.86-1.45-.46-3.49-1.16-4.19s-4.53-1.62-3.49-5,1.86-5.47,3.26-4.89,3.24,2.45,5.05,2.68,4.48-.93,4.48.58-2.56,3.25-2.56,3.25-4.78.12-1.92,2.21S230,69.92,231.73,70s1.28,1.63,3.61-.47,1.51-2.67,3.25-2.67,1.86-1.63,3,1,.7,3.83,2.09,5.23,1.63,1.51,3,3,4,3.83,1.4,4-6.74-.46-7.32.81.81,2.21-.7,2.1-4.42-3.14-5.69-3.72a5.22,5.22,0,0,0-2.68-.35,3.31,3.31,0,0,0-1.62,3c.11,2.09-1.28,2.67.69,4.3s2.79-.58,4.54,2.21a12.47,12.47,0,0,1,1.74,6.74c-.12.46-1.4-.35-1.28,2.44s.7,4.76.35,5.11a13.3,13.3,0,0,0-2,5.23c0,1.63-.93,2.44,1.63,3.72s3.6.7,5.58,2.21,5,3.14,6.74,1.39,2.32-.58,2.79-3.37-.35-4.3,1-4.64a2.81,2.81,0,0,1,3.14,1.39c.23.81.23,2.33.47,4s-.12,2.32.93,3.43a14.19,14.19,0,0,0,2.67,2c.47.35,1.86,1.17,1.39,2.56s-1.74,2.72-2.78,4.5-2.33,2.82-1.17,4.45,2.1,4.76,5.81,5.58,4.89.35,5.12,1.51-2,1.63-3.95,2.09-4.88,1.68-5,2.18-1.28.26-1.16,1.77-2.21,1.4.58,2.68,5.69,2,6.39,1.39a21,21,0,0,1,3.15-1.63,27.57,27.57,0,0,1,4.4,0c.82.24,2.1,4.65,2.79,6.16s3.14,2,4.07,4.3a34.74,34.74,0,0,1,1.86,7c.35,2.09-3.14,3.48.93,6.16s6.16,2,5.11,4.53-.93,4.88-1.62,7.55-5.7,4.3-6.86,5.93-1.86,3.95-3.25,3.95-6.74.12-7.56-.93.82-.81-3.25-2.67a21.65,21.65,0,0,0-8.14-2,3.09,3.09,0,0,1-2-.93c-.47-.58-.35-3.83,1.27-4.76s.35-1.51,2.33-3.14,3.83-2.21,5-4.3-5.12-1.16-5.12-3.14-1.62-3.25.7-5.34,7.32-2.56,7.55-4.3-.46-3-2.32-2.33-4.88,2-6.16,2.56-2.09,1.51-3.6,1.16.81.81-3.49-1.39-8-3.72-9.3-2.44-1.86-.24-3.6,3.95-2.44,3.83-2.67,6.39a34.23,34.23,0,0,0,.58,7.9c.23.7-.47,2.67-.23,4.19s-.47,2.44,1.51,4.06,4.3,5.35,6.27,6.51,3.61,1.51,4.77,2.79,1.16,4.18-.23,5.35-2.91,1.62-3,3.37.24,5.92-.11,7.09-.7,2.79-3.72,2.09-4.3-1.4-6.16-1.28-6.39-3.72-7-4.76-2.33-3.61-.24-5.23,3.61-1.63,4.42-2.79.47-2.68.81-4.42a7,7,0,0,1,1.63-3.49c.93-1.28-.81-2.67-1.74-2.55s-2.68,1.39-3.95,1.51-3.72-1-3.61-1.63a4,4,0,0,0,.24-2.44c-.35-1.05-3.37.12-4.77-2.32s-3.83-3.72-3.6-6.28-.35-4,.58-4.53a17.7,17.7,0,0,1,5.11-1.63c1.28-.12,3.72-.35,3.72-2.09a8.38,8.38,0,0,0-1.28-5.12c-1.16-1.74-3.6-1-5-2.32s-2.82-1.39-3.16-3.14a21.08,21.08,0,0,1,0-4.65c0-1.16-2.31-2.44-3.47-4.18s-1.28-5.11-.93-6.74,1.63-4.23,1.28-5.6-1.86-1.61-2.32-3.7.69-6.51,2.2-7.55,6.74-1.05,7.56-2,2.32-2.32,2.21-4.18-5.7-3.72-6.63-3.95-4.33.93-7.34-1.05-6.37-4.18-7.42-5.46a11.14,11.14,0,0,1-1.86-4.54c-.35-1.51-2.9-2.44-2.9-1.27s0,3.48-1.51,2.44-4-2.56-4.42-5.7a50.88,50.88,0,0,1-.81-5.69c0-1.28-.82-2,.93-3.14s1.86-1.86,1.62-3a5.94,5.94,0,0,0-1.86-3.14c-.69-.46-1.51,3.6-2.79,1.28s-1.51-2-1.16-3.49-.53-3.83,1.83-4.07,2.94-1.62,4.8.24,2.09,3.6,2.44,2.44-.24-1.4,0-3.84,2.9-3.37,3.48-4.41a15.82,15.82,0,0,1,2.21-3.61c.82-.69.93-2.32,4.19-1s4.53,2,5.11,3.13,6.16,4.42,7.79,4.89S221.74,74,222.78,73.18Z" transform="translate(-0.8 -0.93)"/><path class="cls-1" d="M171.07,113.62c-1.75,1.51-2.56,2.17-1.28,5.45s-2,5.59,3.37,4.9,5.34-2.91,7.09-.59,1.74,3.84,3.25,4.65,1.1,1.63,3.23,1.63,4.33.81,5.49-.81,3-5,3.6-5.47,2.67-2,1.74-3.37,1.51-2.32-2.55-1.62-4.42,2.32-5.35,1.16a32.17,32.17,0,0,1-2.32-3.84s-1.28-2.9-1.75-3.13.24-2.44-4.41-1.86-5.58.46-6.63,1.51-1.39,1.62-2.44,1.51Z" transform="translate(-0.8 -0.93)"/><path class="cls-1" d="M164.44,170.8c-1,.23-2.56.47-2.44,2.21a6.64,6.64,0,0,0,1.22,4.07c1,1.39,5.17,1.51,5.17,1.51s2.91,1.16,2-2.09-.58-2.44-2.21-3.84A9.76,9.76,0,0,0,164.44,170.8Z" transform="translate(-0.8 -0.93)"/><path class="cls-1" d="M220.81,50.4c-2.51.59-4.65-.12-3.72,2a10,10,0,0,0,3.72,4.3c.93.47,4.18,1.4,5.11,0s1.86-1.82,1.16-2.77-2.44-1.87-3.72-2.69S222,50.12,220.81,50.4Z" transform="translate(-0.8 -0.93)"/><path class="cls-1" d="M65,218.18a2.93,2.93,0,0,0-1.71,4.34A8.49,8.49,0,0,0,67.44,225c1.39.46,2.48,1.55,3.25-.78s2.48-2.32,0-3.41S66.5,217.87,65,218.18Z" transform="translate(-0.8 -0.93)"/><path class="cls-1" d="M92.08,192.77a11.37,11.37,0,0,0-1.55,7.13c.15,2.94-.78,5.57,1.55,7.28s5.57-.47,6.81,2,2.17,9.3,3.41,5.27,1.24-5-.77-8.21-4.17-6.2-4.72-7.75S92.91,191.32,92.08,192.77Z" transform="translate(-0.8 -0.93)"/></g><path class="cls-1" d="M21.49,96.07c.72,3.44,2.63,6.5,4.45,9.45.64,7.9-.71,16.27,2.16,23.82.87,1.82,2.67,1.34,4.35,2.92a6.08,6.08,0,0,1,1.49,4c.23,3.62.42,7.55.92,11.1.44,3,.84,6,2.23,8.57a16.16,16.16,0,0,0,3.74,3.53C44,161.78,47.34,164.32,51,166c.09,0-.07,0-.1,0s-.14,0-.05,0c.44-.12,1.08-.34,1.65-.54,2.18-.7,4.32-1.67,6.68-1.83a23.5,23.5,0,0,1,4.86,1,4.73,4.73,0,0,0,.7.14s.09,0,0,0a.67.67,0,0,0-.2.06c1.76-1.27,4.41-4.33,6.64-2.14,1.73,2.28,1.55,5.21,2.28,7.65a30.19,30.19,0,0,0,1.43,3.33c.73,1.5,0,3.39-.83,4.69-.92,1.78-3.11,3.77-5.33,3.84a34.08,34.08,0,0,1-9.3-.36c-.06,0-.32-.09-.36-.09a.58.58,0,0,0,.27,0c.38-.06.16,0,.05.09a18,18,0,0,0-3.8,8.37,2.38,2.38,0,0,0,.07,1.22c.68,1.34,2.3,2,3.67,3a8.83,8.83,0,0,1,3.66,3.94c.28.92.4,1.87.69,2.76a6.13,6.13,0,0,0,3.13,4,3.09,3.09,0,0,1,1,.67c1.92,2.25,2.49,5,3.76,7.4a3.88,3.88,0,0,0,1.35,1.78c.46.34,1.44,1.22,1.87,1.26.24.07.32,0,.64-.24,1.31-1.58,2.26-4.29,3.45-6.24,1.16-2.11,3.07-4,4.08-6.11s0-4.36-1.19-6.14c-1.65-2.75-3.52-5.43-4.21-8.66-.36-1.83,1-3,2.67-3.29a104.68,104.68,0,0,0,10.73-2.73c.36,0,.55-.71.8-1.24.67-2,1.79-5,.6-6.83-.91-.78-1.87-1.64-2.75-2.5a50.66,50.66,0,0,1-5.07-5.49,66.35,66.35,0,0,0,8.21,7.59,2.92,2.92,0,0,1,.75,1.89,15.11,15.11,0,0,1-1.3,6.55c-.42,1-1.75,1.21-2.63,1.56-2.4.78-4.8,1.42-7.21,2.07-1.14.36-2.62.54-3.11,1.08s-.18,1.68.29,2.73c1.68,4.63,7.3,8.79,5.17,14.15-1.78,3.49-4.25,6-5.62,9.7-1.77,4-3.57,6.26-7.63,2.76-2.89-2.15-3.21-6.94-5.48-9.39-3.31-1.3-4.75-4.92-5.36-8.16C58.9,195.77,52,195,52.93,190a19.92,19.92,0,0,1,4.56-10.08,2.77,2.77,0,0,1,1.65-.81c3.11.44,7.6,1,10.5,0a6.94,6.94,0,0,0,2.68-3.55c.14-.57.16-.36,0-.91-1.57-2.71-1.91-6-2.61-9a4,4,0,0,0-.51-1.16s0,0,.07,0,.16,0,.18,0c-1,.26-2.34,1.58-3.21,2.22a2.61,2.61,0,0,1-1.22.57,4.88,4.88,0,0,1-1.63-.21,22.11,22.11,0,0,0-4.23-1c-2.69.31-5.1,1.53-7.77,2.23a2.75,2.75,0,0,1-1.65-.26,62.81,62.81,0,0,1-10.35-6.87c-1.49-1.29-3.18-2.47-4.2-4.27-2.48-5.31-2.41-11.25-2.8-16.93-.2-2.44.23-5.26-1.07-6.65-1-1-3.87-1.41-4.53-3.42-2.83-7.86-1-16.24-1.37-24.36-1.42-2.27-3.47-6.32-3.92-9.54Z" transform="translate(-0.8 -0.93)"/><path class="cls-1" d="M95.41,41.22c.5-2.19,0-4.44.46-6.65a1.19,1.19,0,0,1,.41-.72c3.52-1.73,8.46-1.07,11.87-3,.9-.91,1-2,1.62-3.27,1.23-3,4.92-3.73,7.8-3.32,1.78.11,3.75.68,5.42.45.08,0,0,0,0,0s.06,0,.15-.12a17.69,17.69,0,0,1,4.72-2.88l.09,0,0,0-.07,0a1.18,1.18,0,0,0-.37,1.75l0,.05c.09.09.09.08.09.08a24.54,24.54,0,0,0-7.14-1.47c-5.33.59-10.8.73-15.76,2.63-3.17,1.31-6.36,4.35-10.11,4.16a27.46,27.46,0,0,1-5.83-.4c-1.12-.67-2.69-2.38-1.55-3.9.42-.48,2.27-2.64,2.73-3.16l1.1,1.93c-.72.09-2.82.33-3.52.44-.32,0-.92.23-.58.05a12.73,12.73,0,0,1-4,3l-8.69,4.29c-1.8.93-3.87.94-5.34,2.07a1.34,1.34,0,0,0-.31.82,11.14,11.14,0,0,1-1.59,4.68c-1.62,1.88-3.15,3.74-5.38,4.85a11.27,11.27,0,0,0,3.36-3.34,8.23,8.23,0,0,0,2.25-4c.41-1.26,0-2.54.8-3.74,1.51-1.58,3.91-1.75,5.57-2.75L82,25.05a11.06,11.06,0,0,0,3.52-2.85,3.26,3.26,0,0,1,1.69-.65c1.18-.22,2.45-.43,3.62-.58l3-.43-4.13,5c0,.09-.35.41-.41.5s0,0,0,0,.09-.43.07-.41a2.6,2.6,0,0,0,.62.56L89.59,26a20.18,20.18,0,0,0,7.23-.15c2.4-.9,4.36-2.66,6.9-3.68,5.1-2.07,10.71-2.18,16-2.71a16.7,16.7,0,0,1,5.66.69,14.88,14.88,0,0,1,3.68,1.27,1.42,1.42,0,0,1,.22,2.38A1.59,1.59,0,0,1,129,24l-.64.24a16.5,16.5,0,0,0-3.65,2.22,3,3,0,0,1-1,.53c-2.22.46-4.28-.39-6.38-.58-2.44-.34-4.78-.22-6,2-.69,1.52-1.63,4-3.62,4.35-3.61,1.09-7.51.53-11,1.63-.09,0-.19.21-.25.38-.56,2.09-.34,4.38-1,6.47Z" transform="translate(-0.8 -0.93)"/><path class="cls-1" d="M144.45,126.75a15.83,15.83,0,0,1,8.32-1.45,8.4,8.4,0,0,0,4-.45c1.18-.59,2.25-1.61,3.56-2.29a13.42,13.42,0,0,0,3.5-2.16c.66-.52,2-2,1.71-2.75a11,11,0,0,0-3.46-1.31c-1.49-.39-3-.7-4.52-1l-.17-.45c-.8-1.93-1.77-4.11-3.62-5-3.16-.56-6.26.29-9.61-.11a2.59,2.59,0,0,1-1.79-.84,10.37,10.37,0,0,1-2-2.55,4.11,4.11,0,0,1-.27-2,1.12,1.12,0,0,1,.47-.77,1.15,1.15,0,0,1,.8-.23c.5,0,.85.21,1.33.25,3,.18,6.14.33,8.9-1.24.87-.47,1.6-.47,2.32-1.08,1.49-1.17,2.43-3,3.89-4.36.8-2.86.48-6.59.3-9.74-.08-2.29-1.67-5.52,1-7.12,1.33-1,2.67-2,4.05-2.89,4.09-2.86,5.19-1.24,8.87,1a3.76,3.76,0,0,0,1.5.49c-.08,0,.05,0,.16-.3a4.93,4.93,0,0,0,.29-1c.38-1.84,0-3.88.75-5.74a33.62,33.62,0,0,1,2.56-6.74,2.74,2.74,0,0,0,.2-.91c.19-2.1-.51-4.81-.42-7a18.65,18.65,0,0,0-.82-7.65.37.37,0,0,0,.16.1c.21,0,.05,0,.05,0a.4.4,0,0,0-.15,0c-3.78,1.5-6.13-.24-8-3.72-.8-1.34-1.84-3.93-3-4.86-4.84-2-10.46-1.81-15.4-3.56-3.59-1-7.12.8-10.68,1.36-2.87.45-5.77,1.22-8.68.44-3.09-1.85-6.76-3.53-10.45-3a8.87,8.87,0,0,0-4.45,3.06,3.24,3.24,0,0,0-.76,2.59c-.55-2.78,2.75-5.33,5.1-6.15,3.78-.68,7.64.78,10.91,2.56,4.51.63,9-1.27,13.47-2.24a11.33,11.33,0,0,1,6-.27c4.56,1.37,9.24,1.39,13.87,2.54a6.16,6.16,0,0,1,3,1.42c1.38,1.34,2.23,3.42,3.2,5s2,3.55,4,2.89a6.88,6.88,0,0,1,2.07-.47,2.19,2.19,0,0,1,1.86,1.14c1.2,2.41,1.2,5,1.31,7.54a18.67,18.67,0,0,0,0,2.7,35.35,35.35,0,0,1,.43,5.83,5.37,5.37,0,0,1-.8,2.49,38,38,0,0,0-2,5.75l-.24.71a14,14,0,0,0-.12,1.71c-.22,2.23.1,5.07-2.34,6.4-2.93,1-5.29-1.91-7.68-2.81-1.92.51-4,2.33-5.7,3.48-.22.15-.73.53-.95.66s0,0,0,0-.06.08-.06.43a52.7,52.7,0,0,1,.42,12.75,5.25,5.25,0,0,1-1.12,3.07c-1.4,1.31-2.43,3.22-4.12,4.49a11,11,0,0,1-2.75,1.31,12.49,12.49,0,0,1-5.85,1.46,17.22,17.22,0,0,1-5.63-.43,1,1,0,0,0,.71-.19c.42-.41.33-.44.4-.63s0,.47,0,.42a.8.8,0,0,0,.08.35,11.9,11.9,0,0,0,1.71,2.13,41.59,41.59,0,0,0,5.84.18c1.54.06,3-.21,4.56.39,2.43,1.19,3.56,3.87,4.42,6.15l-.6-.53a35.17,35.17,0,0,1,7.29,2.19c2.71,1.2.5,4-1,5.16a14.38,14.38,0,0,1-3.79,2.13c-1.25.56-2.31,1.5-3.69,2.12a8.73,8.73,0,0,1-4.34.31,16,16,0,0,0-8.3,1Z" transform="translate(-0.8 -0.93)"/><path class="cls-1" d="M143.29,150c2.6.93,5.35,0,6.28-2.58a8.24,8.24,0,0,1,6-3.63c3.21-.3,4,3.77,5.43,5.71.56.9,1.3,1.54,1.6,1.43,1.21,0,3.16-2.26,3-3.48-.91-2.45-5-3-7.07-4.54a61,61,0,0,0-8.68-3c-.56-.08-1.06.4-1.74.69-1.56.85-2.51-.33-2.89-1.73,2,3.5,2.71-.6,5.27-.06l.92.12a37.71,37.71,0,0,1,10.53,3c2.47,1,5.85,2.07,6.38,5.21.24,3.4-2.87,6.92-6.39,6.47-3.5-.91-3.76-5.34-5.75-7.53-2-.39-4.72,1.06-5.78,2.9a5.17,5.17,0,0,1-7,1Z" transform="translate(-0.8 -0.93)"/><path class="cls-1" d="M89.6,167.66c2.62,6.48,6.24,7.85,12.88,7.76a9.59,9.59,0,0,0,3.93-.64,4,4,0,0,1,1.62-.25,1.15,1.15,0,0,1,1,.85c.18,2.33-1.25,4.36-2.45,6.2-.64,1.18-2.36,2.12-3.18,2.84-1.24,1.18-.81,3.1-.9,4.66,0,1.83.08,3.68.18,5.51l-.06-.29,2.9,7.63-.06-.13c1.24,2.23,2.51,4.48,3.83,6.64a6,6,0,0,0,5,3.67,1.55,1.55,0,0,0,1.1-.33c3.93-3.1,9.41-2.28,14-1.41,2.15.56,4.5,1.45,6.51,1a4.15,4.15,0,0,0,1.21-2.42c0,.25,0-.11-.1-.31a7.11,7.11,0,0,0-.29-.79c-1.67-4.91-12.23-19.13-1.12-19.3,1.82,0,3.24.63,4.76.45a12.82,12.82,0,0,0,4.43-3.22,2.35,2.35,0,0,0,.5-1.08c-.05,0,0,0,0,0a3.56,3.56,0,0,0-.52-.83,59.9,59.9,0,0,0-5.49-5.13,11.78,11.78,0,0,1-2.22-2.44c-1.32-2.63,2.46-3.53,4-4.36a7.56,7.56,0,0,0,2-1.22c.11-.12,0-.09.07,0-.31-.35-1.73-1.66-2.2-2.12-2.72-2.85-6-4.89-8.56-7.92a6.63,6.63,0,0,1-1.38-2.18c0,.1.12.22.13.23a15.08,15.08,0,0,0-4.4.37l.64-.7c-.58,3.36-.88,6.82-2.12,10.09a2.67,2.67,0,0,1-1,1c-1.37.95-3.78,1.57-4.82-.25-1.1-2.93-.17-6.39,1-9.17,2.15-3.12,5.5-5.15,7.32-8.54-1.56,3.44-4.76,5.76-6.75,8.84-.9,2.5-1.58,5.82-.61,8.33.84,1.25,3.06.13,3.7-.82a63.72,63.72,0,0,0,1.74-10.29,15.65,15.65,0,0,1,5.75-.62,1.63,1.63,0,0,1,1.26,1.15c1.64,2.49,4.38,4.42,6.73,6.24,1.47,1.22,2.93,2.62,4.35,3.88.66.64,1.36,1,1.57,2.17a2.84,2.84,0,0,1-1.56,2.62c-1.35,1-3.63,1.63-4.85,2.56,0,0,.07,0,.11-.32,0-.09,0-.1,0-.15s-.06-.1,0,0a11.1,11.1,0,0,0,1.73,1.77c2.2,2.11,5.47,4.09,6.79,7,.67,3.63-3.28,5.79-5.83,7.28-2.36,1.33-5.49-.53-7.76.21-.74.37-1,.54-.81,1.6.94,4.25,3.34,8,5.13,12,.62,1.56,1.45,2.59,1.32,4.48a6.39,6.39,0,0,1-2.46,4.15c-2.7,1.28-6-.2-8.54-.81-3.26-.7-7.37-1.26-10.54,0-.78.35-1.67,1.28-2.7,1.55-3.55.68-6.82-1.7-8.27-4.75-1.32-2.32-2.56-4.63-3.75-7L100.79,195c-.18-1.94-.07-3.92-.07-5.88s-.14-4.36,1.56-5.79c.81-.73,1.69-1.12,2.27-1.63,1.41-1.56,3-3.8,3.28-6,0-.05.08,0,0,0a3.18,3.18,0,0,0-1.11.16c-3.21,1-6.61.38-9.82-.26-3.88-.69-6.14-4.46-7.3-7.91Z" transform="translate(-0.8 -0.93)"/><path class="cls-1" d="M276.94,109.4c-.5.69-1.12,1.33-1.65,2-1.64,2.11-.14,5-.58,7.39-.12,2.48-1.48,4.81-.51,7,1.77,2.84,6.11,4.09,6.85,7.85.57,1.87,1,4.84,2.4,6,2.13,0,3.3.09,3.54-2.39.1-2.75,1.69-5.58,3.09-7.59,1-1.29.59-2.22,1.17-3.4a9.83,9.83,0,0,0-.94-2.64,37,37,0,0,1-2.64-7.41c-.66-2.33-.91-5-3.22-6-1.49-.57-5.87-.59-7.51-.8Zm0,0c2.55-.09,5.24-.74,7.86-.23,4.46,1.57,4.34,7.65,6.45,11.17l1.18,2.27c.68,1.43,1.86,3.34,1,5,0,3.15-2.64,5.07-3.3,7.69-.56,1.84-.16,3.57-1.42,5.35-1,1.47-3,1.83-4.63,1.74a3.88,3.88,0,0,1-1.86-.32c-2.69-1.69-2.89-5.1-3.63-7.84a3.51,3.51,0,0,0-.79-1.78c-6-5.74-7-5.47-4.43-13.88.64-2.43-.46-5.58,1.62-7.49.67-.58,1.35-1.07,2-1.68Z" transform="translate(-0.8 -0.93)"/><path class="cls-1" d="M199.46,44.63c2.5,1,4.33,3.49,6,5.56,1.46,1.89,2.5,2.08,3.79-.16,1.07-1.63.91-3.65,2.5-5.07,2.5-1.69,5.68-1,8.43-1.3,1.59-.12,3.8,0,4.95-1a1.06,1.06,0,0,0,0-.82c-2-3.7-7.11-4.55-10.78-5.56a41.34,41.34,0,0,1-4.86-2.92C206,31.54,201,33,197.1,32.05L197,32l.05,0c.14,0,0,0-.18.11a7.9,7.9,0,0,0-2.13,2.69s-.15.42-.28.46a8.2,8.2,0,0,1-1.29.68,1.88,1.88,0,0,0-1.26,1.92,7.36,7.36,0,0,0,2.63,4.56c1.1.91,2.67.65,3.82,1.4a3.64,3.64,0,0,0,1.12.78Zm0,0a3.79,3.79,0,0,1-1.14-.76c-1.16-.72-2.73-.44-3.86-1.34a7.71,7.71,0,0,1-3-4.6,2.19,2.19,0,0,1,.26-1.47c.43-.81,1.56-1.24,2.16-1.71a8.5,8.5,0,0,1,2.25-3.53,1.37,1.37,0,0,1,1.28-.34,1.93,1.93,0,0,0,.42.05c4.21.3,8.69-1.57,12.73.28,1,.51,1.62,1,2.37,1.34a11,11,0,0,0,4.72,1.72c3.84.84,8.32,2.81,9.84,6.8,1.14,4.62-4.32,4.78-7.39,4.5-2.56,0-5.44-.84-7.73.3a4.22,4.22,0,0,0-1.35,2c-.71,1.71-2.75,5.77-4.92,3.53-2.06-2.42-3.63-5.43-6.68-6.77Z" transform="translate(-0.8 -0.93)"/><path class="cls-1" d="M149.88,27.15a28.75,28.75,0,0,0,8.13.11l-.4.27a4.91,4.91,0,0,1,4.16-2.86,19.14,19.14,0,0,0,3.47-.19,6.11,6.11,0,0,1,4.54,2.37s0,0,.05,0c.53.08,1.1-.18,1.68-.09a36.29,36.29,0,0,1,8,2.84c1,.58,2.41,1.26,2.56,2.78,0,.6-.15,1.52-.14,2,0,.1,0,.13,0,.08a.72.72,0,0,0-.14-.19s.09,0,.58.09.8.11,1,.11h.08a1.13,1.13,0,0,0,.21-.13,33.61,33.61,0,0,0,3.2-2.73c.42-.63.66-1.78.05-2.25a4.28,4.28,0,0,0-1.57-.62c-2.31-.43-5.08.07-7.21-1.42-2-1.16-2.79-3.49-5-4a23.73,23.73,0,0,0-6.6.17,5.05,5.05,0,0,1-2.23-.26,5.86,5.86,0,0,1-1.56-1.41,5.7,5.7,0,0,1-.9-1.07c-.56-.94-.08-1.41-.52-2.21a7.62,7.62,0,0,0-1.64-1.78,2.22,2.22,0,0,0-.14-.89c-.09-.17-.07-.12-.06-.13s-.68.29-1,.65a3.11,3.11,0,0,0-.87,1.27c-.1.39-.31,1.39-1,1.42-1.49,0-2.77-.39-4.23-.46a.82.82,0,0,1-.55-.27,2.1,2.1,0,0,0-.82-1,1.81,1.81,0,0,0-1.67-.37,2,2,0,0,1,1.8.15,2.48,2.48,0,0,1,.78.57c.29.4.21.42.52.44,1.22-.11,3,.25,4,0,.1-2.67,4-6.08,4.81-1.81l-.31-.55c1.06.85,2.31,1.78,2.42,3.35-.06.86,1,1.33,1.61,2.08.23.18.13.11.44.16,3.4-.13,7.77-1.77,10.87.74a34,34,0,0,0,3.3,3c2.86,1.65,8.22-.43,10.18,3.54,1.06,2.6-.62,5.2-2.67,6.5-1,.71-2.24,2.17-3.74,2.09s-3.13-.07-3.84-1.7a5.84,5.84,0,0,1,0-2.88v-.2a.34.34,0,0,0,.06.26c-2-1.68-4.95-2.53-7.43-3.52a6.49,6.49,0,0,0-.91-.28,8.18,8.18,0,0,1-1.78,0,2.07,2.07,0,0,1-1-.47c-.55-.56-.54-.73-.78-.94a4.74,4.74,0,0,0-2.42-1.25,19.36,19.36,0,0,1-3.48-.08,3.82,3.82,0,0,0-3.48,2.12,25.4,25.4,0,0,1-8.44-1.06Z" transform="translate(-0.8 -0.93)"/><path class="cls-6" d="M136.78,19.37" transform="translate(-0.8 -0.93)"/><path class="cls-1" d="M160.49,33.08c.72.14,1.49.84,1.81.66a26.36,26.36,0,0,0,3.58-.74c.37-.18.27-.34.26-.15s.06,0-.22-.1c-1.83-.31-3.84-1.31-5.43.33Zm0,0c0-2.22,2.78-3.25,4.7-3a4,4,0,0,1,2.72.65,2.71,2.71,0,0,1-1.16,4.75,8.67,8.67,0,0,1-4.82-.44c-.94-.49-1-1.22-1.44-2Z" transform="translate(-0.8 -0.93)"/><path class="cls-1" d="M255.09,108.74c.34,1.32.35,2.69.61,4s.08,2.65,1.31,3.52c1,.91,2.21,1.37,3.32,2.37,1.34,1.17.43,3-.37,4.14a49.54,49.54,0,0,0-3.09,5.08,1.32,1.32,0,0,0,.22,1.34c.84,1.16,1.4,2.38,2.21,3.3,2.05,2.6,5.3,1.87,8.17,2.78a1.84,1.84,0,0,1,1,1.63c-.27,2.62-4.26,2.5-6,3.29a13.34,13.34,0,0,0-3.07,1.4l0,0a.75.75,0,0,0,.14-.26c0-.14,0,.09-.06.14a1.75,1.75,0,0,1-.11.24,2.69,2.69,0,0,1-.95.75s0-.08,0,.11a2.67,2.67,0,0,1-.25,1.47,3.44,3.44,0,0,1-.45.62c-.13.13-.24.31-.12.13a.94.94,0,0,0,0-.57c-.12-.28,0-.12-.13-.24a14.49,14.49,0,0,0,6.15,1.89c.09,0,0,0-.11.08.21-.17.4-.29.56-.4a29,29,0,0,1,3.06-1.52h.23a21.59,21.59,0,0,1,4.82,0,2.53,2.53,0,0,1,1.36,1.29,47.73,47.73,0,0,1,2.09,5.09,2.17,2.17,0,0,0,.85,1.13c1,.71,2.63,1.71,3.38,3.49a32.55,32.55,0,0,1,1.86,6.44c1.25,4.83-4,4,2.57,7.37,3.33,1.43,5,2.13,3.23,6.09-.91,2.7-.38,6.51-2.66,8.65-1.59,1.66-4.08,2.61-5.57,4a7.83,7.83,0,0,0-.72,1.11c-.78,1.43-1.93,3.69-4,3.47a28.25,28.25,0,0,1-6.74-.56,2.77,2.77,0,0,1-2-2c-.07-.44-.08-.26.05-.07a21.78,21.78,0,0,0-10-3.17,4.06,4.06,0,0,1-2.72-1.28,2.73,2.73,0,0,1-.54-1.69,5.38,5.38,0,0,1,2.52-5.1c.81-3.42,5.1-3.95,6.63-6.64,0,0,.06-.14,0,0s.05.08,0,.11.08.05,0,0c-1.51-.86-3.91-.35-5-2.13-.29-.9-.12-1.39-.42-2.23-1-2.69,1.3-4.75,3.46-5.6,1.63-.88,4.36-1.1,5.36-2.52.31-1.19-.12-2.64-1.66-2.06l-6,2.27c-1.31.44-2.54,1.65-4,1.18,1.51.36,2.59-.92,3.89-1.44l3.9-1.75c1.22-.47,3.28-1.9,4.31-.37a3.24,3.24,0,0,1,.37,2.38c-.26.93-1.07,1.29-1.79,1.67-2.31,1.2-5.47,1.68-6.61,4.17-.32,1,.58,2.41.53,3.57,1,.87,3.49.51,4.8,1.55a1.61,1.61,0,0,1,.32,2.05c-1.2,2.63-4.67,3.48-6,5.69a5.56,5.56,0,0,1-.44,1.17,3.33,3.33,0,0,1-1.15,1.05c-.59.32-1,1.76-.92,2.84,0,.24.14.59,0,.33a1.6,1.6,0,0,0,.5.31,2.28,2.28,0,0,0,.59.16,23.32,23.32,0,0,1,9.73,2.51c.93.54,2.22.86,2.58,2.23,0,.19,0,.27,0,.25s0-.06,0,0a29.26,29.26,0,0,0,6.53.4h0s0,0,0,0a2,2,0,0,0,.38-.43c.77-1.11,1.42-2.86,2.56-3.79,2-1.66,5.07-2.64,5.88-4.77.56-2.53.75-5.65,1.79-8.14,0-.06,0,0,0,.06a.32.32,0,0,0,.08.14c-2.52-1.42-6-2.29-7.28-5.3-.59-1.24.49-3.17.84-3.9a1,1,0,0,0,.08-.41,31.45,31.45,0,0,0-1.81-6.82c-.46-1.45-3.23-2.4-4-4.18s-1.3-4-2.25-5.63h0s0,0,.09.06a.78.78,0,0,0,.21.09,14.66,14.66,0,0,0-1.86-.06c-.69,0-1.4,0-2.09.08l.41-.1a24.61,24.61,0,0,0-2.59,1.24,3,3,0,0,1-1.31.61c-2.86.12-5.09-1-7.52-2.2a2.79,2.79,0,0,1-.84-.73,1.51,1.51,0,0,1-.13-1.45c.54-1,.73-.52.68-1.38a2.36,2.36,0,0,1,1.42-2.07c.05,0,.09,0,0,0a.85.85,0,0,0-.19.27s-.05.19,0,0a1.74,1.74,0,0,1,.78-.92c2.41-1.59,5.67-1.76,8.13-2.82.18-.13.15-.15.13,0s0-.08,0,0,.07,0,0,0c-1.45-.4-3.19-.47-4.77-.95-3-.66-4.58-3.68-5.87-6-1.09-1.39,0-3.25.87-4.34.59-1,1.64-2.35,2.34-3.32s1.62-2.1.61-3.13c-.85-.88-2.18-1.48-3.16-2.49-1.23-.93-1.17-2.49-1.22-3.87s-.09-2.71-.34-4Z" transform="translate(-0.8 -0.93)"/><path class="cls-6" d="M234.17,108" transform="translate(-0.8 -0.93)"/><path class="cls-1" d="M209.05,112.46c-3.55-2.38-8.42-4.26-9.37-8.9-.19-.56-.26-1.4-.77-1.79a2.11,2.11,0,0,0-1.55-.64c-.08,0,0,0,0,0a.63.63,0,0,0,0,.19c0,1.08.13,3.15-1.5,3.06a10.73,10.73,0,0,1-4.23-3.22A8.77,8.77,0,0,1,190,96.82a40.55,40.55,0,0,1-.69-4.44c0-.87-.43-1.44-.09-2.46.74-1.75,2.3-1.53,2.64-3a4.84,4.84,0,0,0-1.58-3.17.75.75,0,0,0,.79,0,8,8,0,0,1-1.23,1.76,1.55,1.55,0,0,1-1.31.39,2.29,2.29,0,0,1-1.43-1.24c-.3-.61-1.43-2.06-1.43-2.8a4.79,4.79,0,0,1,.15-1.39c.17-1.25-.29-3.24,1.12-4.3,1.19-.82,2.16-.51,3.45-1.11,2.72-1.24,5,2,6,3.7a1.08,1.08,0,0,0-1.58.25c.13-.24,0-.56,0-1.16a6.42,6.42,0,0,1,1.1-5.1c.79-1,2.07-1.61,2.59-2.45a13.52,13.52,0,0,1,2.47-3.88l.32-.42c1.2-1.86,3.88-1.34,5.48-.58A16.67,16.67,0,0,1,211,67.58a4.91,4.91,0,0,1,1.14,1.4,3.08,3.08,0,0,0,.3.28,29.92,29.92,0,0,0,5.26,3.28c1.43.81,2.45.94,3.72,0a2.78,2.78,0,0,0,.71-.6A4.68,4.68,0,0,0,220.68,70c-2.45-1.25-4.92-3.12-3.84-6.46.12-.39.4-1.21.52-1.6.56-1.42,1-3.18,2.53-4,2.61-1.18,4.86,2.66,7,2.57,1,.05,2.19-.33,3.41-.19,1.86.17,2.3,2.23,1.45,3.58a8.79,8.79,0,0,1-2.69,2.77l-.29.21a7.2,7.2,0,0,0-2.19.3c.05,0,0,0,.1-.14s.06-.23.09-.31,0-.23,0-.25a.08.08,0,0,0,0,0,9.89,9.89,0,0,0,3.78,2.26c.93.13,2.26.12,3,.71.15.09.19.09.13.08a.52.52,0,0,0-.21,0,9.3,9.3,0,0,0,2.67-2.61,2.57,2.57,0,0,1,1.31-1c.84-.23,1.09,0,1.71-.23a3.41,3.41,0,0,1,1.32-.36,2,2,0,0,1,1.6,1.1c1,1.63,1.24,3.62,1.82,5.3,1.74,2.46,4.27,4,5.95,6.8a1.79,1.79,0,0,1,.09,1.76,1.82,1.82,0,0,1-1.49.81c-1.9.13-3.73-.15-5.52,0a3.44,3.44,0,0,0-1.4.3c-.24.48.05.79.08,1.41-.18,2.14-3.05.74-4,0s-1.95-1.57-2.87-2.28a3.88,3.88,0,0,0-3-.8l.18-.07a2.76,2.76,0,0,0-1.36,1.94c-.07.45,0,1-.09,1.48-.1.95-.73,1.69-.06,2.49a2.81,2.81,0,0,0,2.22,1.21,2.88,2.88,0,0,1,1.62.32c1.69,1.38,2.24,3.43,2.67,5.43a7.22,7.22,0,0,1,.08,3c-.29.18-.52.12-.72.27-.59.44-.54,1.33-.57,2,0-.71-.12-1.63.5-2.14.21-.16.54-.17.66-.27a4.69,4.69,0,0,0,0-1.39c-.35-2.24-1.11-5-2.93-6.4-.82-.4-2,.1-2.9-.51s-2-1.49-1.79-2.74a11,11,0,0,0,.3-2.94,3.88,3.88,0,0,1,1.92-2.89,6,6,0,0,1,2.15,0c2.54.51,4.11,3.2,6.49,3.85.13,0,.31,0,.2,0s-.35.44-.32.47c-.31-.75-.3-2.28.59-2.81,2.48-1.27,5.06-.43,7.59-.74.24,0,.29-.16.1.08s0,.21-.14,0a42.48,42.48,0,0,0-4.85-5.06c-2.11-1.55-1.86-4.9-3.29-6.84a.68.68,0,0,0,.36.13c.34-.06-.06.06-.4.22a6.36,6.36,0,0,1-1.88.33s.07,0,.07,0a13.47,13.47,0,0,1-2.1,2.42c-.57.51-1.86,1.7-3.08,1.31-.55-.17-.79-.45-1.17-.53s-1.23-.08-1.79-.18a11.59,11.59,0,0,1-4.52-2.39,3.44,3.44,0,0,1-1.16-1.43,1.84,1.84,0,0,1,.51-1.93,5.55,5.55,0,0,1,3.44-1l-.68.22c.63-.41,1.93-1.67,2-2.17,0,0,.07.31.26.4s.17.07.09.07c-1,0-1.95.26-3.13.24-2.11,0-3.85-1.53-5.5-2.53-.23-.15-.61-.28-.43-.23s.27-.11.13,0a13,13,0,0,0-1.45,3.48c-.07.22-.2.66-.24.88-.3,1.9,2.19,2.23,3.29,3.3,1.53,1.31,3.29,4,1.38,5.86-1.5,1.32-3.06,2.26-5.14,2a25.16,25.16,0,0,1-8.24-4.65,3.87,3.87,0,0,1-.81-.93c-.78-1.37-2.47-1.75-4.09-2.5a4.32,4.32,0,0,0-2.22-.52c-.06,0-.13.06-.31.29l-.35.45a9.54,9.54,0,0,0-2,2.94A4.92,4.92,0,0,1,199.19,73a9,9,0,0,0-1.44,1.27,4.13,4.13,0,0,0-.6,3.22,4,4,0,0,1-.35,2.78,1.36,1.36,0,0,1-1.65.48,2.18,2.18,0,0,1-.86-.87,9.91,9.91,0,0,0-2.11-2.61c-.43-.24-.33-.27-1-.08a23,23,0,0,1-2.83.68c-.49.61-.11,2-.4,3a6.25,6.25,0,0,0-.15.78c.28.64.92,1.62,1.33,2.36,0,0-.07,0-.16-.07a.5.5,0,0,0-.32.05c.6-.57.83-1.71,1.77-2a1.23,1.23,0,0,1,1.07.21A6.34,6.34,0,0,1,193.64,87a3.29,3.29,0,0,1-1.53,2.38l-.89.62a1.24,1.24,0,0,0-.43.48c-.06.1-.06.28,0,.65a67.63,67.63,0,0,0,1,7.51c.53,2,2.16,3.35,3.89,4.55.14.09.25.16.33.15.36-.44.31-1.39.36-2,0-1.88,2.34-1,3.07-.15a4.08,4.08,0,0,1,.89,2.18c.78,4.56,5.37,6.47,8.69,9.08Z" transform="translate(-0.8 -0.93)"/><path class="cls-1" d="M240.91,156.86c-.57.72-1.66.7-2.12,1.45-1.35,2.19-2.09,4.89-3.38,7.11-.82,2.93-.12,6.47.43,9.46.29,1.23-.2,2.43-.15,3.51,0,.67.17,1.88.16,2.55.2,1.49,2.22,2.34,3,3.55,1.51,1.6,2.68,3.35,4.39,4.48,1.55.92,3.42,1.36,4.83,2.68,2.06,2,1.9,6-.47,7.61-1,.82-1.89,1.06-2.11,2.05-.34,3.34,1.57,9.82-3.18,10.7-2.77.27-5.23-1.43-7.87-1.39a3.71,3.71,0,0,1-1-.08c-2.76-.83-4.73-2.6-6.66-4.45-1.37-1.68-2.7-4-1.85-6.29.87-2,3.12-2.76,4.85-3.66.9-.52.81-.95.93-2.25a9.66,9.66,0,0,1,1.79-5.68,4.55,4.55,0,0,0,.31-.44s0,0,0,0,0-.05-.15-.19a1,1,0,0,0-.42-.26c-.54.15-2,1-3.09,1.3a5.08,5.08,0,0,1-3.41-.34c-1-.46-2.63-1.21-2.36-2.71a6.88,6.88,0,0,0,.33-1.43,1.17,1.17,0,0,0,0-.3c.14.33.36.38.29.35a15.39,15.39,0,0,1-2.64-.55,4.79,4.79,0,0,1-2.45-2.25c-.92-1.54-2.38-2.61-3.15-4.45a6.4,6.4,0,0,1-.25-3c.1-1.29-.42-3.81,1.24-4.54a18.4,18.4,0,0,1,6.66-1.7c1-.18,1.66-.39,1.72-1.07V166c0-1.8-.37-4.26-2.21-5-.72-.28-1.62-.37-2.54-.75a35.41,35.41,0,0,1-3.34-2.42c-1.74-1.69-.77-4.67-.79-6.6-.58-1.51-2.43-2.54-3.24-4,1,1.55,2.82,2.16,3.65,3.91.11,1.78-.26,3.53.28,5.19.38,1.14,1.93,1.54,2.84,2.35,1.35,1.22,3.48.6,4.92,1.94,1.6,1.61,2,3.87,2,6s-2.62,2.79-4.36,3a16.69,16.69,0,0,0-4.63,1.53c-.2.11-.08,0-.11.08-.14,1,.09,2.92,0,4.05.2,1.95,2,2.85,3.32,4.92.82,1.51,1.41,1.29,3.86,1.72,1.75.43,1.67,2.89,1.15,4.16l0,.09s0,0,0,0a.88.88,0,0,0,0-.17,1,1,0,0,0-.05-.31c-.19-.41-.12-.18,0-.15a3.67,3.67,0,0,0,2.63.67c1-.28,2.3-1.26,3.54-1.46a3.27,3.27,0,0,1,2.59,1,2.8,2.8,0,0,1,.42,3.67,6,6,0,0,0-1.23,2.3,35.09,35.09,0,0,0-.46,3.84c-.18,1.77-1.92,3.1-3.42,3.64-.93.58-2.53,1-2.41,2.29.51,2.84,3.8,5.12,6.14,6.28.73.33,1.55.06,2.31.26,1.84.34,3.44,1,5.14,1.31.73.14,1.25,0,1.34-.1.8-1.11.58-2.71.61-4.1a41.67,41.67,0,0,1,.05-4.18c.21-2.18,2.7-3,3.74-4.18a3,3,0,0,0-1.1-4.16c-1.43-.86-3.46-1.55-4.7-2.81-2-1.94-3.24-4.13-5.25-5.91a4.44,4.44,0,0,1-1.52-4.14,13.59,13.59,0,0,1,.32-4c-.29-3.54-1.07-7.05.16-10.56.42-.85.92-1.54,1.33-2.31.88-1.53,1.39-3.28,2.56-4.64.6-.78,1.67-.66,2.28-1.32Z" transform="translate(-0.8 -0.93)"/><path class="cls-1" d="M171.07,113.62c-2.23,2-1.74,3.21-.63,5.73.5,1.22.19,2.62.3,3.81,2,.24,4.81-.65,6.67-1.57s3.14,0,4.13,1.49c1.31,1.67,1.52,3.37,3,4,.55.29,1,.95,1.45,1.17a3,3,0,0,0,.71.06c1.9,0,3.39.56,4.34-.14.32-.31,1.37-2.13,1.69-2.56.66-1,1.6-2.81,2.58-3.48.45-.3,1.28-1.13,1.26-1.35a0,0,0,0,0,0,0s0,0-.08-.17a2.74,2.74,0,0,1-.21-2.2.85.85,0,0,0,.1.47,1.05,1.05,0,0,0,.4.43.42.42,0,0,0,.22.08s0,0,0,0a13.93,13.93,0,0,0-4.93,1,8.15,8.15,0,0,1-1.21.48,1.79,1.79,0,0,1-1.9-.82c-1.55-2.19-2.27-4.7-3.48-7l0,0h0a.75.75,0,0,1-.17-.14c-.28-.35-.21-.59-.34-.92a1.86,1.86,0,0,0-1.51-1,9.35,9.35,0,0,0-2.19-.16,6,6,0,0,1,3.43,0,2.5,2.5,0,0,1,1.25,1.5s0,0-.06,0a3.81,3.81,0,0,1,1,1.23,34.21,34.21,0,0,0,3.66,5.65c0-.06-.23-.06-.18-.07a16.23,16.23,0,0,1,5.36-1.88c1.64-.4,3.44,0,2.92,2,0,.24,0,.12,0,.19,1.28,1.84-.36,3.9-1.66,4.89a3.08,3.08,0,0,0-.78,1c-1,1.51-2,3.45-3.14,4.89-1,1.21-3.07,1.31-4.27,1.14a36.18,36.18,0,0,1-3.61-.37c-1-.28-1.43-1-2.08-1.49-2-1-2.41-3.26-3.53-4.85-.19-.28-.39-.56-.55-.75s-.26-.21-.14-.21-.25,0-.57.15c-2,.82-9.4,2.94-9.06-.88a9.13,9.13,0,0,0,.19-3.15c-.82-2.66-1.06-4.41,1.67-6Z" transform="translate(-0.8 -0.93)"/><path class="cls-1" d="M164.44,170.8c-.82.42-2,.9-1.74,1.93a6.94,6.94,0,0,0,1.51,3.65,11.85,11.85,0,0,0,4.55.83c.23.19.85.18.67.22s-.26.23-.23.26a2,2,0,0,0,0-.82c-.1-.48-.37-1.75-.47-2.25-.05-.21,0-.21-.11-.33a15,15,0,0,0-4.14-3.49Zm0,0a9.22,9.22,0,0,1,5.5,2,6,6,0,0,1,1.39,2.59,6.83,6.83,0,0,1,.54,2.38,2.42,2.42,0,0,1-2.84,2.34,4.27,4.27,0,0,1-1.15-.27l.47.1c-2-.14-3.9-.3-5.61-1.64-1.51-1.47-1.69-3.69-1.44-5.68.22-1.59,1.84-2,3.14-1.86Z" transform="translate(-0.8 -0.93)"/><path class="cls-1" d="M220.81,50.4c-1.08.28-2.29.29-3.3.66-.53.22-.33.57-.08,1,1.56,2.38,4.32,4.18,7.18,3.89.35-.07.2,0,.34-.11a15,15,0,0,1,1.39-1.39s.11.16.12,0c-.48-1.14-1.7-2-2.7-2.81-.89-.61-1.73-1.71-2.95-1.28Zm0,0c1.17-.46,2.13.54,3.15,1,1.3.66,2.92,1,4,2.31s-.54,2.83-1,3.72c-1.31,1.92-3.94,1.55-5.76.9s-3.15-2.48-3.95-4.15a5.5,5.5,0,0,1-.68-2.75,1,1,0,0,1,.81-.68,31.1,31.1,0,0,0,3.41-.3Z" transform="translate(-0.8 -0.93)"/><path class="cls-1" d="M65,218.18c-2.08.47-2.67,3.6-.62,4.49a9.43,9.43,0,0,0,2.71.92,10,10,0,0,1,2.22.69c-.16.05-.2.13-.15.07a15,15,0,0,1,1.13-2,4.88,4.88,0,0,1,.72-.76.89.89,0,0,0,.08.43c.22.24,0-.06-.11-.16-1.08-.78-2.21-1.64-3.16-2.48A3.91,3.91,0,0,0,65,218.18Zm0,0a5.61,5.61,0,0,1,3,.88,19.54,19.54,0,0,0,3.78,1.33,1.83,1.83,0,0,1,1.09.84,1.56,1.56,0,0,1,0,1.2c-.16.44-.41.83-.58,1.22a12.13,12.13,0,0,1-.92,2.3A2.52,2.52,0,0,1,70,227a2.68,2.68,0,0,1-1.57-.09c-1.85-.84-3.68-1.54-5-3.18A3.38,3.38,0,0,1,65,218.18Z" transform="translate(-0.8 -0.93)"/><path class="cls-1" d="M92.08,192.77c-2.06,3.14-1.28,6.92-1.19,10.42,0,2.29,1.4,4,3.71,3.74l1.77-.13c4.16-.52,4.54,4.75,5.71,7.42.08.26.29.51.1.32a1.06,1.06,0,0,0-1-.15c-.46.19-.4.32-.4.27a15.68,15.68,0,0,0,1.18-4.38c0-2-1.61-4.17-2.51-6l-1.71-3.16c-1.5-2.84-2.25-6.32-4.88-8.42a.5.5,0,0,0-.76.09Zm0,0c1.06-1.27,4,4,4.56,4.85,1.5,3.26,4.12,5.79,6.12,8.78a8,8,0,0,1,1.59,3.74,11.81,11.81,0,0,1-.53,4c-.27,1.14-1,3.67-3,2.84a3.15,3.15,0,0,1-1.31-1.63c-.77-1.72-1.14-4.86-2-6-.36-.37-1.65-.34-2.92-.43A5,5,0,0,1,90.86,207a5.35,5.35,0,0,1-.81-3.81c.44-3.53-.07-7.33,2-10.41Z" transform="translate(-0.8 -0.93)"/></g><g class="cls-7"><path class="cls-8" d="M110.21,116.93c-.42.74-1.56,1.13-1.59,1.49a9.46,9.46,0,0,0,0,2,2.16,2.16,0,0,0,2.91,2.26c1-.44,3-.21,3.37-1.49.22-1.23-.67-2.71-1.86-3.75l.07-.12c3.42,1.09,4.77,6.52-.24,6.35a4.83,4.83,0,0,1-5.57-4.28,2.71,2.71,0,0,1,.34-1.48,1.88,1.88,0,0,1,1.29-.74,9.8,9.8,0,0,0,1.15-.31l.09.11Z" transform="translate(-0.8 -0.93)"/><path class="cls-8" d="M108.42,91.53A25.68,25.68,0,0,1,109,100c.65,4.68,2,9.14,2.26,13.91l-.13,0a16.83,16.83,0,0,1-2-5.39c-.62-2.81-.29-5.7-.57-8.53a16.77,16.77,0,0,1-.24-8.5Z" transform="translate(-0.8 -0.93)"/><path class="cls-8" d="M113.76,125.24a16.9,16.9,0,0,1,1.44,6.69c1.13,3.64,3,6.92,3.68,10.73l-.12.08a11.32,11.32,0,0,1-2.53-3.94c-.92-2.15-.9-4.54-1.47-6.77a11,11,0,0,1-1.14-6.77l.14,0Z" transform="translate(-0.8 -0.93)"/><path class="cls-8" d="M117.34,96.61a16.86,16.86,0,0,1-1.76,6.61c-.65,3.76-.52,7.51-1.6,11.24h-.14a11.38,11.38,0,0,1-.47-4.66c.17-2.33,1.27-4.45,1.77-6.7a11,11,0,0,1,2.07-6.55l.13,0Z" transform="translate(-0.8 -0.93)"/><path class="cls-8" d="M118.27,121.21a16.74,16.74,0,0,1,6.81-.55c3.77-.65,7.26-2,11.13-2.26l.06.13a11.43,11.43,0,0,1-4.23,2c-2.26.63-4.62.3-6.91.58a11,11,0,0,1-6.86.24v-.14Z" transform="translate(-0.8 -0.93)"/><path class="cls-8" d="M104.37,142.64a16.91,16.91,0,0,1,2.47-6.37c1.06-3.67,1.33-7.41,2.82-11h.14a11.13,11.13,0,0,1,0,4.67c-.41,2.31-1.74,4.29-2.48,6.47a11.09,11.09,0,0,1-2.77,6.29l-.13-.07Z" transform="translate(-0.8 -0.93)"/><path class="cls-8" d="M128.68,96.28a29.69,29.69,0,0,1-5.72,6.56c-2.87,3.9-5,8.17-8,12l-.13,0a16.25,16.25,0,0,1,2.21-5.49c1.5-2.55,3.79-4.47,5.62-6.76a16.83,16.83,0,0,1,6-6.37l.1.1Z" transform="translate(-0.8 -0.93)"/><path class="cls-8" d="M116.29,124.6a29.58,29.58,0,0,1,8,3.36c4.61,1.48,9.34,2.19,13.94,3.83v.14a16,16,0,0,1-5.9-.36c-2.9-.62-5.44-2.18-8.19-3.19a16.91,16.91,0,0,1-7.94-3.65l.07-.13Z" transform="translate(-0.8 -0.93)"/><path class="cls-8" d="M85.3,116.2a20.55,20.55,0,0,1,7.52,1.14c4.24.32,8.4-.13,12.63.68l0,.14a14,14,0,0,1-5.11.82c-2.59,0-5.06-.89-7.6-1.19a13.64,13.64,0,0,1-7.49-1.45l0-.14Z" transform="translate(-0.8 -0.93)"/><path class="cls-8" d="M82.14,126.14c3.28.27,6.4.56,9.65.8,5.38-.55,10.29-2.81,15.25-4.92l.08.11c-3.84,4.35-9.83,5.13-15.3,5.27-3.26.58-6.79.7-9.73-1.13l0-.13Z" transform="translate(-0.8 -0.93)"/><path class="cls-8" d="M93,98.09a25.81,25.81,0,0,1,5.4,6.53c3.27,3.41,7,6.22,10,9.94l-.08.11a16.89,16.89,0,0,1-4.79-3.18c-2.15-1.91-3.58-4.44-5.46-6.58a16.77,16.77,0,0,1-5.18-6.74l.12-.08Z" transform="translate(-0.8 -0.93)"/><path class="cls-8" d="M128.09,245.44c-8.13.53-3.86,8.43,2.06,7.44,4.39-.86,2.23-4.8-.19-6.71a6.59,6.59,0,0,1,4.08,3.88c1.3,4.24-4.19,6.62-7.52,5.29-6.69-1.82-6.4-12.05,1.57-9.9Z" transform="translate(-0.8 -0.93)"/><path class="cls-8" d="M131.13,256.79c7.62,6.74,14.41,14.4,21.72,21.39-5-1.69-9.06-5.2-12.71-8.82a45,45,0,0,1-9-12.57Z" transform="translate(-0.8 -0.93)"/><path class="cls-8" d="M135.1,247.84c8.74-1.29,16.87-4.71,25-7.93a178.66,178.66,0,0,0,23.71-11.5c-10.29,10.41-34,20.9-48.72,19.43Z" transform="translate(-0.8 -0.93)"/><path class="cls-8" d="M138.73,251.1c10.74-1.28,21-4.61,31.27-7.82a235,235,0,0,0,30.12-11.62c-14.11,10.89-43.56,20.93-61.39,19.44Z" transform="translate(-0.8 -0.93)"/><path class="cls-8" d="M119.26,282.18c1.28-8.91,3.79-17.11,6.36-25.67.9,4.47.13,9.06-1,13.4a37.59,37.59,0,0,1-5.41,12.27Z" transform="translate(-0.8 -0.93)"/><path class="cls-8" d="M108.12,287.37C112.89,276.73,119,265.7,124,255.14c-.41,6.12-2.84,11.88-5.5,17.32-2.82,5.37-6,10.61-10.35,14.91Z" transform="translate(-0.8 -0.93)"/><path class="cls-8" d="M136.66,255.14c9,2.25,17.65,5.74,26.43,8.65-4.74.73-9.54-.45-14-1.93a38.71,38.71,0,0,1-12.42-6.72Z" transform="translate(-0.8 -0.93)"/><path class="cls-8" d="M129.72,257.36c4.2,10.24,7.15,21.07,10.76,31.48-3.8-4.22-6-9.61-7.8-14.92a55,55,0,0,1-3-16.56Z" transform="translate(-0.8 -0.93)"/><path class="cls-8" d="M154.81,228.41c-7,6.17-14.72,11.3-22.08,16.89,2.08-4.32,5.77-7.61,9.51-10.46a39,39,0,0,1,12.57-6.43Z" transform="translate(-0.8 -0.93)"/><path class="cls-8" d="M114.08,220.31c3.63,7.49,6.25,15.82,9.19,23.54-6.18-5.52-9.37-15.39-9.19-23.54Z" transform="translate(-0.8 -0.93)"/><path class="cls-8" d="M86.53,245.43c11.31.34,22.69,1.84,34,2.2-5.45,2.06-11.44,2.06-17.16,1.66a53.31,53.31,0,0,1-16.8-3.86Z" transform="translate(-0.8 -0.93)"/><path class="cls-8" d="M78,265.75c14.69-2.45,29.18-5.76,42.48-12.65C109.4,263.32,92.78,267.25,78,265.75Z" transform="translate(-0.8 -0.93)"/><path class="cls-8" d="M96.3,219.59c8,9.37,15.68,18.88,25.42,26.58-11.71-4.24-20.8-15.27-25.42-26.58Z" transform="translate(-0.8 -0.93)"/></g><path class="cls-9" d="M223.64,150a149.09,149.09,0,0,1-111.4,144.27,149.07,149.07,0,1,0,0-288.54A149.09,149.09,0,0,1,223.64,150Z" transform="translate(-0.8 -0.93)"/></svg>