<svg id="Capa_1" data-name="Capa 1" xmlns="http://www.w3.org/2000/svg" viewBox="0 0 124.88 84.75"><defs><style>.cls-1{fill:none;stroke:#fdfcef;stroke-linecap:round;stroke-linejoin:round;}.cls-2{fill:#1f193b;stroke:#fff;stroke-miterlimit:10;}</style></defs><title>closed-eye</title><path class="cls-1" d="M120.2,49.91S68,127.17,4.66,49.91h0C5.85,49.09,62.61,10.44,120.2,49.91Z"/><path class="cls-2" d="M120.2,49.91c-3,4-4,6.12-11.12,12.83C93,77.86,77,84.2,64.34,84.25c-21.52.07-35.77-10.72-45.83-19.64C8.9,56.08,5.08,49.62,4.68,49.9,5.8,48.28,59.93-27.92,120.2,49.91Z"/><line class="cls-1" x1="62.44" y1="9.54" x2="62.44" y2="0.5"/><line class="cls-1" x1="73.38" y1="10.74" x2="74.62" y2="1.3"/><line class="cls-1" x1="84.14" y1="12.87" x2="86.6" y2="3.67"/><line class="cls-1" x1="93.12" y1="17.79" x2="96.76" y2="8.99"/><line class="cls-1" x1="102.3" y1="23.09" x2="107.05" y2="14.84"/><line class="cls-1" x1="109.93" y1="30.87" x2="115.72" y2="23.31"/><line class="cls-1" x1="117.65" y1="38.62" x2="124.38" y2="31.88"/><line class="cls-1" x1="51.5" y1="10.74" x2="50.25" y2="1.3"/><line class="cls-1" x1="40.74" y1="12.87" x2="38.28" y2="3.67"/><line class="cls-1" x1="31.75" y1="17.79" x2="28.11" y2="8.99"/><line class="cls-1" x1="22.57" y1="23.09" x2="17.82" y2="14.84"/><line class="cls-1" x1="14.94" y1="30.87" x2="9.16" y2="23.31"/><line class="cls-1" x1="7.22" y1="38.62" x2="0.5" y2="31.88"/></svg>