<svg width="638" height="973" viewBox="0 0 638 973" fill="none" xmlns="http://www.w3.org/2000/svg">
<g clip-path="url(#clip0_119_627)">
<path d="M9.83282 344.246V969.219H628.129V344.208" stroke="#FDFCEE" stroke-width="2" stroke-miterlimit="10"/>
<path d="M9.83282 308.592C9.83282 140.269 148.249 3.78076 318.962 3.78076C489.675 3.78076 628.129 140.269 628.129 308.592" stroke="#FDFCEE" stroke-width="2" stroke-miterlimit="10"/>
<path d="M9.83284 336.23C15.2634 336.23 19.6657 331.829 19.6657 326.4C19.6657 320.971 15.2634 316.57 9.83284 316.57C4.40231 316.57 0 320.971 0 326.4C0 331.829 4.40231 336.23 9.83284 336.23Z" fill="#FDFCEE"/>
<path d="M628.205 336.987C633.636 336.987 638.038 332.585 638.038 327.156C638.038 321.727 633.636 317.326 628.205 317.326C622.774 317.326 618.372 321.727 618.372 327.156C618.372 332.585 622.774 336.987 628.205 336.987Z" fill="#FDFCEE"/>
</g>
<defs>
<clipPath id="clip0_119_627">
<rect width="638" height="973" fill="white"/>
</clipPath>
</defs>
</svg>
