<svg id="Capa_1" data-name="Capa 1" xmlns="http://www.w3.org/2000/svg" viewBox="0 0 486.09 789.47"><defs><style>.cls-1{fill:none;stroke:#e6da75;stroke-linecap:round;stroke-linejoin:round;stroke-width:1.67px;}</style></defs><title>CombatBox1</title><path class="cls-1" d="M216.74,733.53l-21.1.3-19.5-.3c-97-.8-175.31-79.7-175.31-176.8V139.83"/><path class="cls-1" d="M485,139.83v416.9c0,97.1-78.3,176-175.2,176.8l-19.51.1-21.2-.1"/><path class="cls-1" d="M260.92,19.68A18.1,18.1,0,1,0,242.08,37,18.1,18.1,0,0,0,260.92,19.68Z"/><path class="cls-1" d="M242.86,30.54A15.48,15.48,0,0,1,230.26,6a18.1,18.1,0,1,0,25.6.2l-.2-.2a15.42,15.42,0,0,1-3.7,21.6A16.1,16.1,0,0,1,242.86,30.54Z"/><path class="cls-1" d="M242.94,762a20.3,20.3,0,1,0-20.3-20.3A20.3,20.3,0,0,0,242.94,762Z"/><path class="cls-1" d="M245.74,721.63a191.65,191.65,0,0,0-2.2-22.7l-.7-4.5-.7,4.5c-1.1,7.5-1.8,15.1-2.2,22.7A18.8,18.8,0,0,1,245.74,721.63Z"/><path class="cls-1" d="M239.69,761.43a193.71,193.71,0,0,0,2.2,22.7l.7,4.5.7-4.5c1.1-7.5,1.8-15.1,2.2-22.7A18.79,18.79,0,0,1,239.69,761.43Z"/><path class="cls-1" d="M263,744.53a191.65,191.65,0,0,0,22.7-2.2l4.5-.7-4.5-.7c-7.5-1.1-15.1-1.8-22.7-2.2A28.1,28.1,0,0,1,263,744.53Z"/><path class="cls-1" d="M222.84,738.93a191.65,191.65,0,0,0-22.7,2.2l-4.5.7,4.5.7c7.5,1.1,15.1,1.8,22.7,2.2A18.8,18.8,0,0,1,222.84,738.93Z"/><path class="cls-1" d="M234.74,715.53c-2.9-1.4-5.7-4.5-6.3-7.5s-1.5-7.3-5.6-7.2c0,0,3.5,2.3,3.4,6.2-.1,2.7-1.3,6,.9,8.3s4.1,4.4,4.1,6.9a7.68,7.68,0,0,1-.9,3.6,19.51,19.51,0,0,1,9.7-4.1A11.37,11.37,0,0,0,234.74,715.53Z"/><path class="cls-1" d="M251,715.53c2.9-1.4,5.7-4.5,6.3-7.5s1.5-7.3,5.6-7.2c0,0-3.5,2.3-3.4,6.2.1,2.7,1.3,6-.9,8.3s-4.1,4.4-4.1,6.9a7.68,7.68,0,0,0,.9,3.6,19.51,19.51,0,0,0-9.7-4.1C245.74,721.63,247.44,717.33,251,715.53Z"/><path class="cls-1" d="M251,767.93c2.9,1.4,5.7,4.5,6.3,7.5s1.5,7.3,5.6,7.2c0,0-3.5-2.3-3.4-6.2.1-2.7,1.3-6-.9-8.3s-4.1-4.4-4.1-6.9a7.68,7.68,0,0,1,.9-3.6,19.51,19.51,0,0,1-9.7,4.1S247.44,766.13,251,767.93Z"/><path class="cls-1" d="M234.74,767.93c-2.9,1.4-5.7,4.5-6.3,7.5s-1.5,7.3-5.6,7.2c0,0,3.5-2.3,3.4-6.2-.1-2.7-1.3-6,.9-8.3s4.1-4.4,4.1-6.9a7.68,7.68,0,0,0-.9-3.6,19.51,19.51,0,0,0,9.7,4.1S238.44,766.13,234.74,767.93Z"/><path class="cls-1" d="M230.64,725.53a200.81,200.81,0,0,0-17.5-14.5l-3.6-2.7,2.7,3.6a204,204,0,0,0,14.5,17.5c.6-.7,1.2-1.5,1.8-2.1Z"/><path class="cls-1" d="M255.14,757.93a200.81,200.81,0,0,0,17.5,14.5l3.6,2.7-2.7-3.6A204,204,0,0,0,259,754c-.6.7-1.2,1.5-1.8,2.1Z"/><path class="cls-1" d="M259,729.53a200.81,200.81,0,0,0,14.5-17.5l2.7-3.6-3.6,2.7a204,204,0,0,0-17.5,14.5c.7.6,1.5,1.2,2.1,1.8A9.09,9.09,0,0,1,259,729.53Z"/><path class="cls-1" d="M226.74,753.93a200.81,200.81,0,0,0-14.5,17.5l-2.7,3.6,3.6-2.7a204,204,0,0,0,17.5-14.5A16.05,16.05,0,0,1,226.74,753.93Z"/><path class="cls-1" d="M269,733.53c1.4-2.9,4.5-5.7,7.5-6.3s7.3-1.5,7.2-5.6c0,0-2.3,3.5-6.2,3.4-2.7-.1-6-1.3-8.3.9s-4.4,4.1-6.9,4.1a7.68,7.68,0,0,1-3.6-.9,19.51,19.51,0,0,1,4.1,9.7A11.05,11.05,0,0,0,269,733.53Z"/><path class="cls-1" d="M269,749.83c1.4,2.9,4.5,5.7,7.5,6.3s7.3,1.5,7.2,5.6c0,0-2.3-3.5-6.2-3.4-2.7.1-6,1.3-8.3-.9s-4.4-4.1-6.9-4.1a7.68,7.68,0,0,0-3.6.9,19.51,19.51,0,0,0,4.1-9.7C262.94,744.53,267.34,746.23,269,749.83Z"/><path class="cls-1" d="M216.74,749.83c-1.4,2.9-4.5,5.7-7.5,6.3s-7.3,1.5-7.2,5.6c0,0,2.3-3.5,6.2-3.4,2.7.1,6,1.3,8.3-.9s4.4-4.1,6.9-4.1a7.68,7.68,0,0,1,3.6.9,19.51,19.51,0,0,1-4.1-9.7C222.84,744.53,218.44,746.23,216.74,749.83Z"/><path class="cls-1" d="M216.74,733.53c-1.4-2.9-4.5-5.7-7.5-6.3s-7.3-1.5-7.2-5.6c0,0,2.3,3.5,6.2,3.4,2.7-.1,6-1.3,8.3.9s4.4,4.1,6.9,4.1a7.68,7.68,0,0,0,3.6-.9,19.51,19.51,0,0,0-4.1,9.7A11.05,11.05,0,0,1,216.74,733.53Z"/><path class="cls-1" d="M255.14,739a2.55,2.55,0,0,1-1.2-.8A4.35,4.35,0,0,0,251,737a3.93,3.93,0,0,0-2.9,1.2,2,2,0,0,1-1.2.8"/><path class="cls-1" d="M252.34,738.33a1.25,1.25,0,1,1-1.3-1.2A1.18,1.18,0,0,1,252.34,738.33Z"/><path class="cls-1" d="M246.64,737.83c.7-.6,1.4-1.2,2.2-1.8a5,5,0,0,1,3.4-.2,13.3,13.3,0,0,1,2.3,2"/><path class="cls-1" d="M246,745.33a2.28,2.28,0,0,1,.7,1.9c-.2,1.1-1.3,1-2.1,1s-1.2,1-2.1,1-1.3-.9-2-1-1.9.1-2.1-1a2.28,2.28,0,0,1,.7-1.9"/><path class="cls-1" d="M241.64,747.63s-.8-.4-.5-1.8.8-1.2.8-3.5v-5.2"/><path class="cls-1" d="M247.24,752.53a9.7,9.7,0,0,1-1.7.1c-.7,0-.9-.2-1.4-.2-1,0-.9.4-1.5.4s-.5-.3-1.5-.4c-.5,0-.8.2-1.4.2a9.7,9.7,0,0,1-1.7-.1"/><path class="cls-1" d="M245.14,751.83a5.89,5.89,0,0,0-1.3-.5c-.4.2-.8.5-1.2.7a7.46,7.46,0,0,0-1.2-.7c-.3-.1-1.3.5-1.3.5"/><path class="cls-1" d="M245.74,753.23a4.6,4.6,0,0,1-6.2,0"/><path class="cls-1" d="M245.74,733.53s3.5-3.5,9.7,0"/><path class="cls-1" d="M230.74,739a2.55,2.55,0,0,0,1.2-.8,4.35,4.35,0,0,1,2.9-1.2,3.93,3.93,0,0,1,2.9,1.2,2,2,0,0,0,1.2.8"/><path class="cls-1" d="M233.54,738.33a1.22,1.22,0,0,0,1.2,1.2,1.29,1.29,0,0,0,1.2-1.2,1.22,1.22,0,0,0-1.2-1.2A1.1,1.1,0,0,0,233.54,738.33Z"/><path class="cls-1" d="M239.14,737.83c-.7-.6-1.4-1.2-2.2-1.8a5,5,0,0,0-3.4-.2,13.3,13.3,0,0,0-2.3,2"/><path class="cls-1" d="M240.14,733.53s-3.5-3.5-9.7,0"/><path class="cls-1" d="M223.75,18.93H.83v120.9"/><path class="cls-1" d="M262,18.93H485.25l-.3,120.9"/></svg>