<svg width="184" height="200" viewBox="0 0 184 200" fill="none" xmlns="http://www.w3.org/2000/svg">
<g clip-path="url(#clip0_155_126)">
<path d="M91.8542 186.025C71.387 185.991 51.5597 178.888 35.7264 165.919C19.893 152.949 9.02544 134.909 4.96193 114.849C0.898411 94.789 3.8884 73.9413 13.4261 55.8322C22.9639 37.7231 38.4639 23.4642 57.3042 15.4675C78.8869 6.88687 102.972 7.10273 124.398 16.0688C145.823 25.0349 162.883 42.0375 171.922 63.4324C180.96 84.8273 181.258 108.912 172.75 130.523C164.243 152.135 147.607 169.554 126.41 179.046C115.479 183.675 103.725 186.049 91.8542 186.025ZM91.8542 9.21673C71.5431 9.2311 51.8614 16.2655 36.1426 29.1285C20.4238 41.9916 9.63422 59.8924 5.60144 79.799C1.56866 99.7057 4.54057 120.394 14.0138 138.361C23.487 156.327 38.8792 170.467 57.5832 178.386C79.0549 187.238 103.154 187.25 124.635 178.42C146.116 169.589 163.239 152.632 172.277 131.237C181.315 109.843 181.536 85.7451 172.893 64.1886C164.249 42.6321 147.44 25.3625 126.125 16.1392C115.284 11.5475 103.627 9.19296 91.8542 9.21673Z" fill="#FDFCEF"/>
<path d="M180.258 100.325C182.095 100.325 183.583 98.8365 183.583 97.0004C183.583 95.1643 182.095 93.6758 180.258 93.6758C178.422 93.6758 176.934 95.1643 176.934 97.0004C176.934 98.8365 178.422 100.325 180.258 100.325Z" fill="#FDFCEF"/>
<path d="M0 96.9892C0 96.3069 0.202331 95.6399 0.581408 95.0725C0.960484 94.5052 1.49928 94.063 2.12966 93.8019C2.76004 93.5408 3.4537 93.4725 4.1229 93.6056C4.79211 93.7387 5.40682 94.0673 5.88929 94.5498C6.37177 95.0322 6.70033 95.6469 6.83345 96.3161C6.96656 96.9854 6.89824 97.679 6.63713 98.3094C6.37602 98.9398 5.93384 99.4786 5.36651 99.8576C4.79918 100.237 4.13219 100.439 3.44987 100.439C2.99682 100.439 2.54822 100.35 2.12966 100.176C1.7111 100.003 1.33079 99.7489 1.01044 99.4286C0.690093 99.1082 0.435978 98.7279 0.262606 98.3094C0.0892335 97.8908 0 97.4422 0 96.9892Z" fill="#FDFCEF"/>
<path d="M91.4215 199.58L89.1045 188.604L83.258 192.418L87.0722 186.561L76.0963 184.283L87.0665 181.966L83.2466 176.126L89.0988 179.934L91.376 168.958L93.6929 179.934L99.5395 176.108L95.7253 181.961L106.701 184.238L95.7253 186.555L99.568 192.418L93.7157 188.604L91.4215 199.58ZM89.5941 187.42L91.4158 196.068L93.2261 187.42L97.0859 189.936L94.564 186.077L103.211 184.255L94.564 182.445L97.0745 178.585L93.2204 181.107L91.393 172.459L89.5884 181.112L85.7286 178.596L88.2506 182.45L79.6031 184.278L88.2392 186.082L85.723 189.942L89.5941 187.42Z" fill="#FDFCEF"/>
<path d="M78.8517 12.7804C78.8509 10.8933 79.2678 9.02946 80.0725 7.32257C80.8772 5.61568 82.0497 4.10806 83.5059 2.9079C84.9622 1.70775 86.666 0.844802 88.4952 0.380991C90.3244 -0.0828196 92.2335 -0.135997 94.0857 0.225274C95.9378 0.586546 97.6871 1.35331 99.2079 2.47054C100.729 3.58778 101.983 5.02779 102.882 6.68724C103.78 8.34669 104.3 10.1844 104.404 12.0686C104.509 13.9528 104.195 15.8367 103.485 17.5851L103.149 18.4049L102.819 17.5851C101.916 15.3593 100.369 13.4536 98.3767 12.1118C96.3844 10.77 94.037 10.0532 91.635 10.0532C89.233 10.0532 86.8856 10.77 84.8933 12.1118C82.901 13.4536 81.3543 15.3593 80.4514 17.5851L80.1155 18.4049L79.7796 17.5851C79.1636 16.0583 78.8485 14.4268 78.8517 12.7804ZM103.695 12.7804C103.695 9.58102 102.424 6.51271 100.162 4.25043C97.8998 1.98815 94.8315 0.717216 91.6321 0.717216C88.4328 0.717216 85.3645 1.98815 83.1022 4.25043C80.8399 6.51271 79.569 9.58102 79.569 12.7804C79.5626 14.038 79.7548 15.2887 80.1383 16.4864C81.1922 14.3399 82.8267 12.5317 84.8563 11.2671C86.886 10.0026 89.2294 9.33228 91.6207 9.33228C94.0121 9.33228 96.3555 10.0026 98.3852 11.2671C100.415 12.5317 102.049 14.3399 103.103 16.4864C103.494 15.2899 103.694 14.0392 103.695 12.7804Z" fill="#FDFCEF"/>
<path d="M91.3361 170.706L41.6261 90.1974L41.7571 89.9811L91.3361 9.67773L141.04 90.186L140.909 90.4024L91.3361 170.706ZM42.5882 90.1974L91.3361 169.146L140.078 90.1974L91.3361 11.249L42.5882 90.1974Z" fill="#FDFCEF"/>
<path d="M91.3361 161.301L47.4328 90.1975L47.5638 89.9811L91.3361 19.0938L135.239 90.1975L135.103 90.4138L91.3361 161.301ZM48.3892 90.1975L91.3304 159.747L134.272 90.1975L91.3361 20.6479L48.3892 90.1975Z" fill="#FDFCEF"/>
</g>
<defs>
<clipPath id="clip0_155_126">
<rect width="183.583" height="199.58" fill="white"/>
</clipPath>
</defs>
</svg>
