<?xml version="1.0" encoding="utf-8"?>
<!-- Generator: Adobe Illustrator 24.0.1, SVG Export Plug-In . SVG Version: 6.00 Build 0)  -->
<svg version="1.1" id="Capa_1" xmlns="http://www.w3.org/2000/svg" xmlns:xlink="http://www.w3.org/1999/xlink" x="0px" y="0px"
	 viewBox="0 0 121.9 37.6" style="enable-background:new 0 0 121.9 37.6;" xml:space="preserve">
<style type="text/css">
	.st0{fill:#FDFCEE;}
	.st1{fill:url(#SVGID_1_);}
	.st2{fill:#1F163B;}
</style>
<title>HitPoints</title>
<path class="st0" d="M110.1,5.5C106.6,2,101.9,0,96.9,0H61.8v0.3h35.2c10.2,0,18.5,8.3,18.5,18.5s-8.3,18.5-18.5,18.5H61.8
	c0,0.1,0,0.2,0,0.3h35.1c10.4,0,18.8-8.5,18.7-18.9C115.6,13.8,113.6,9,110.1,5.5z"/>
<path class="st0" d="M13.9,5.5C17.4,2,22.2,0,27.2,0h35.2v0.3H27.2C17,0.3,8.7,8.6,8.7,18.8S17,37.3,27.2,37.3h35.1
	c0,0.1,0,0.2,0,0.3H27.2c-10.4,0-18.8-8.5-18.7-18.9C8.5,13.8,10.4,9,13.9,5.5z"/>
<linearGradient id="SVGID_1_" gradientUnits="userSpaceOnUse" x1="62.33" y1="40" x2="62.33" y2="40" gradientTransform="matrix(1 0 0 -1 0 40)">
	<stop  offset="0" style="stop-color:#B8905E"/>
	<stop  offset="7.000000e-02" style="stop-color:#BE9663"/>
	<stop  offset="0.51" style="stop-color:#E6C385"/>
	<stop  offset="1" style="stop-color:#B8905E"/>
</linearGradient>
<path class="st1" d="M62.3,0"/>
<path class="st0" d="M101.7,13.6C101.7,13.6,101.7,13.6,101.7,13.6L101.7,13.6L101.7,13.6l-0.2,0.1c0,0,0,0-0.1,0l-0.4-0.4
	c-0.1-0.1-0.1-0.2,0-0.2c0,0,0.1,0,0.1,0c0,0,0.1,0,0.1,0l0.4,0.4v0.1C101.7,13.5,101.7,13.5,101.7,13.6z"/>
<path class="st0" d="M100.8,12.7C100.8,12.7,100.8,12.7,100.8,12.7l-0.1,0.2h-0.1h-0.1l-0.4-0.4c0,0,0,0,0-0.1c0,0,0,0,0-0.1
	c0,0,0,0,0-0.1c0,0,0,0,0-0.1h0.1h0.1h0.1h0.1l0.4,0.4C100.8,12.6,100.8,12.6,100.8,12.7z"/>
<path class="st0" d="M100.8,13.1c0,0,0,0.1,0,0.1l-0.4,0.4c0,0-0.1,0-0.1,0c-0.1,0-0.2-0.1-0.2-0.2c0,0,0-0.1,0-0.1l0.4-0.4l0,0h0.1
	h0.1l0,0c0,0,0,0,0,0.1C100.7,13,100.8,13.1,100.8,13.1z"/>
<path class="st0" d="M101.7,12.2C101.7,12.2,101.7,12.2,101.7,12.2v0.1l-0.4,0.4c0,0-0.1,0-0.1,0c-0.1,0-0.2-0.1-0.2-0.1
	c0,0,0-0.1,0-0.1l0.4-0.4c0,0,0,0,0.1,0h0.1l0,0C101.7,12.1,101.7,12.1,101.7,12.2C101.6,12.1,101.7,12.2,101.7,12.2z"/>
<path class="st0" d="M101.1,11.4v1.1c0,0,0,0,0,0.1l0,0H101h-0.1c0,0,0,0-0.1,0c0,0,0,0,0-0.1c0,0,0,0,0-0.1v-1.1c0,0,0-0.1,0-0.1
	c0,0,0,0,0-0.1c0,0,0,0,0.1,0h0.1h0.1l0,0C101.1,11.2,101.1,11.3,101.1,11.4L101.1,11.4z"/>
<path class="st0" d="M101.1,13.4v1.1c0,0,0,0.1-0.1,0.1c0,0-0.1,0-0.1,0c0,0-0.1,0-0.1,0c0,0,0-0.1-0.1-0.1v-1.1c0,0,0-0.1,0.1-0.1
	c0,0,0.1,0,0.1,0c0,0,0.1,0,0.1,0C101,13.3,101,13.3,101.1,13.4z"/>
<path class="st0" d="M102.6,12.9c0,0,0,0.1,0,0.1c0,0-0.1,0.1-0.1,0.1h-1.1c0,0-0.1,0-0.1-0.1c-0.1-0.1-0.1-0.2,0-0.2
	c0,0,0.1-0.1,0.1-0.1h1.1C102.6,12.7,102.6,12.8,102.6,12.9L102.6,12.9z"/>
<path class="st0" d="M100.6,12.9C100.6,12.9,100.6,12.9,100.6,12.9V13h-0.1h-1.2h-0.1V13c0,0,0,0,0-0.1c0,0,0,0,0-0.1v-0.1
	c0,0,0,0,0.1,0h1.2C100.5,12.8,100.5,12.8,100.6,12.9C100.6,12.9,100.6,12.9,100.6,12.9z"/>
<path class="st0" d="M100.8,12.3l-0.5,0.5c0,0,0,0.1,0,0.1c0,0,0,0.1,0,0.1l0.5,0.5c0,0,0.1,0,0.1,0c0,0,0.1,0,0.1,0l0.5-0.5l0,0
	c0,0,0,0,0-0.1c0,0,0,0,0-0.1c0,0,0,0,0-0.1l-0.5-0.5c0,0-0.1,0-0.1-0.1C100.8,12.3,100.8,12.3,100.8,12.3z"/>
<path class="st0" d="M106.5,10.1c0,0,0,0.1,0,0.1l0,0h-0.1h-0.1l0,0l-0.8-0.8V9.4c0,0,0-0.1,0-0.1V9.2c0,0,0.1,0,0.1,0
	c0,0,0.1,0,0.1,0l0.8,0.8C106.6,10,106.6,10.1,106.5,10.1z"/>
<path class="st0" d="M104.9,8.5c0,0,0,0.1-0.1,0.1l0,0h-0.1l0,0l-0.8-0.8V7.8c0,0,0,0,0-0.1c0,0,0,0,0-0.1l0,0c0,0,0.1,0,0.1,0
	c0,0,0.1,0,0.1,0L104.9,8.5C104.9,8.4,104.9,8.5,104.9,8.5z"/>
<path class="st0" d="M104.9,9.3C104.9,9.4,104.9,9.4,104.9,9.3L104.9,9.3l-0.8,0.8l0,0h-0.1H104l0,0c-0.1-0.1-0.1-0.2,0-0.2l0.8-0.8
	c0,0,0.1,0,0.1-0.1c0,0,0.1,0,0.1,0.1l0,0C105,9.2,104.9,9.3,104.9,9.3z"/>
<path class="st0" d="M106.5,7.7C106.5,7.7,106.5,7.7,106.5,7.7c0,0.1,0,0.1,0,0.1l-0.8,0.8c0,0-0.1,0-0.1,0c-0.1,0-0.1,0-0.2-0.1
	c0,0,0,0,0,0c0,0,0-0.1,0-0.1l0.8-0.8c0,0,0.1,0,0.1-0.1c0,0,0.1,0,0.1,0.1l0,0C106.5,7.6,106.5,7.6,106.5,7.7z"/>
<path class="st0" d="M105.3,6.1v1.9c0,0,0,0.1,0,0.1c0,0-0.1,0-0.1,0h-0.1l0,0V8.1c0,0,0,0,0-0.1V6.1c0-0.1,0.1-0.2,0.2-0.2
	c0,0,0.1,0,0.1,0C105.4,6,105.4,6.1,105.3,6.1z"/>
<path class="st0" d="M105.3,9.7v1.9c0,0.1-0.1,0.2-0.2,0.2h-0.1l0,0l0,0c0,0,0-0.1,0-0.1v-2c0,0,0-0.1,0-0.1c0,0,0.1,0,0.1,0
	C105.3,9.6,105.4,9.7,105.3,9.7L105.3,9.7z"/>
<path class="st0" d="M108.1,8.9C108.1,8.9,108.1,8.9,108.1,8.9c0,0.1,0,0.1,0,0.1l0,0H108h-2c0,0,0,0-0.1,0V8.9c0,0,0-0.1,0-0.1V8.7
	h0.1h2c0,0,0.1,0,0.1,0C108.1,8.8,108.1,8.8,108.1,8.9z"/>
<path class="st0" d="M104.5,8.9c0,0,0,0.1,0,0.1c0,0-0.1,0-0.1,0.1h-2h-0.1V9c0,0,0-0.1,0-0.1V8.8h0.1h2
	C104.4,8.8,104.4,8.8,104.5,8.9C104.5,8.8,104.5,8.9,104.5,8.9z"/>
<path class="st0" d="M106.2,8.9c0,0,0,0.1-0.1,0.1l-0.8,0.9l0,0h-0.1h-0.1l0,0l-1-0.9l0,0c0,0,0,0,0-0.1c0,0,0,0,0-0.1
	c0,0,0,0,0-0.1L105,8c0,0,0.1,0,0.1,0c0,0,0.1,0,0.1,0L106.2,8.9L106.2,8.9C106.1,8.9,106.1,8.9,106.2,8.9z M105.2,9.5l0.6-0.6
	l-0.6-0.6l-0.6,0.6L105.2,9.5z"/>
<path class="st0" d="M106.5,30.1c0,0,0,0.1,0,0.1l0,0h-0.1l0,0l-0.8-0.8v0c0,0,0,0,0-0.1c0,0,0,0,0-0.1v0c0,0,0.1,0,0.1,0
	c0,0,0.1,0,0.1,0l0.8,0.8c0,0,0,0,0,0C106.6,30.1,106.5,30.1,106.5,30.1z"/>
<path class="st0" d="M104.9,28.5c0,0,0,0.1-0.1,0.1l0,0h-0.1h-0.1l0,0l-0.8-0.8v-0.1c0,0,0-0.1,0-0.1v-0.1c0,0,0.1,0,0.1,0
	c0,0,0.1,0,0.1,0l0.8,0.8C104.9,28.4,104.9,28.4,104.9,28.5z"/>
<path class="st0" d="M104.9,29.4C104.9,29.4,104.9,29.4,104.9,29.4c0,0.1,0,0.1,0,0.1l-0.8,0.8l0,0h-0.1H104l0,0c0,0,0-0.1,0-0.1
	c0,0,0-0.1,0-0.1l0.8-0.8h0.1h0.1c0,0,0.1,0.1,0.1,0.1C105,29.4,104.9,29.4,104.9,29.4z"/>
<path class="st0" d="M106.5,27.7C106.5,27.7,106.5,27.7,106.5,27.7c0,0.1,0,0.1,0,0.1l-0.8,0.8c0,0-0.1,0-0.1,0c0,0-0.1,0-0.1,0
	c0,0,0-0.1,0-0.1c0,0,0-0.1,0-0.1l0.8-0.8c0,0,0.1,0,0.1,0c0,0,0.1,0,0.1,0C106.5,27.6,106.5,27.6,106.5,27.7
	C106.5,27.6,106.5,27.7,106.5,27.7z"/>
<path class="st0" d="M105.3,26.1V28c0,0,0,0.1,0,0.1c0,0-0.1,0-0.1,0c0,0-0.1,0-0.1,0c0,0,0-0.1,0-0.1v-1.9c0,0,0-0.1,0-0.1
	c0,0,0.1,0,0.1,0c0,0,0.1,0,0.1,0C105.3,26,105.3,26.1,105.3,26.1z"/>
<path class="st0" d="M105.3,29.7v1.9c0,0,0,0.1,0,0.1c0,0-0.1,0-0.1,0c-0.1,0-0.2-0.1-0.2-0.2v-1.9c0,0,0,0,0-0.1
	c0,0,0.1-0.1,0.1-0.1h0.1c0,0,0.1,0,0.1,0C105.3,29.6,105.3,29.7,105.3,29.7z"/>
<path class="st0" d="M108.1,28.9c0,0,0,0.1,0,0.1c0,0-0.1,0.1-0.1,0.1H106c0,0-0.1,0-0.1,0c0,0,0-0.1,0-0.1c0,0,0-0.1,0-0.1
	c0,0,0.1,0,0.1,0h1.9c0,0,0.1,0,0.1,0C108.1,28.8,108.1,28.8,108.1,28.9z"/>
<path class="st0" d="M104.5,28.9c0,0,0,0.1,0,0.1c0,0-0.1,0-0.1,0h-1.9c0,0-0.1,0-0.1,0c0,0,0-0.1,0-0.1c0,0,0-0.1,0-0.1
	c0,0,0.1,0,0.1,0h1.9c0,0,0.1,0,0.1,0C104.5,28.8,104.5,28.8,104.5,28.9z"/>
<path class="st0" d="M106.2,28.9c0,0,0,0.1-0.1,0.1l-0.8,0.9l0,0h-0.1l0,0l-0.8-0.9V29c0,0,0-0.1,0-0.1v-0.1l0.8-0.9
	c0,0,0.1,0,0.1,0c0,0,0.1,0,0.1,0L106.2,28.9C106.2,28.8,106.2,28.8,106.2,28.9z M105.2,29.5l0.6-0.6l-0.6-0.6l-0.6,0.6L105.2,29.5z
	"/>
<path class="st0" d="M101.7,25.6C101.7,25.6,101.7,25.6,101.7,25.6v0.1c0,0-0.1,0-0.1,0c0,0-0.1,0-0.1,0l-0.4-0.4c0,0,0-0.1-0.1-0.1
	c0,0,0-0.1,0-0.1l0,0h0.1l0,0l0.4,0.4v0.1C101.6,25.5,101.7,25.5,101.7,25.6z"/>
<path class="st0" d="M100.8,24.6c0,0,0,0.1,0,0.1h-0.1h-0.1l0,0l-0.4-0.4l0,0c0,0,0,0,0-0.1c0,0,0,0,0-0.1l0,0c0,0,0.1,0,0.1,0
	c0,0,0.1,0,0.1,0L100.8,24.6L100.8,24.6C100.9,24.6,100.8,24.6,100.8,24.6z"/>
<path class="st0" d="M100.8,25.1C100.8,25.2,100.8,25.2,100.8,25.1c0,0.1,0,0.1,0,0.1l-0.4,0.4c0,0-0.1,0-0.1,0c0,0-0.1,0-0.1,0
	c0,0,0,0,0-0.1c0,0,0-0.1,0-0.1c0,0,0,0,0-0.1l0.4-0.4c0,0,0.1,0,0.1,0c0,0,0.1,0,0.1,0C100.8,25,100.8,25.1,100.8,25.1
	C100.8,25.1,100.8,25.1,100.8,25.1z"/>
<path class="st0" d="M101.7,24.2C101.7,24.2,101.7,24.3,101.7,24.2L101.7,24.2l-0.4,0.5c0,0-0.1,0-0.1,0c0,0-0.1,0-0.1,0
	c0,0,0,0,0,0c0,0,0,0,0-0.1c0,0,0,0,0-0.1c0,0,0,0,0,0l0.4-0.5c0,0,0.1,0,0.1,0c0,0,0.1,0,0.1,0v0C101.7,24.1,101.7,24.2,101.7,24.2
	z"/>
<path class="st0" d="M101.1,23.3v1.2c0,0,0,0,0,0.1c0,0,0,0,0,0h-0.1c0,0,0,0-0.1,0c0,0,0,0,0-0.1c0,0,0,0,0-0.1v-1.1
	c0,0,0-0.1,0.1-0.1C101,23.2,101,23.2,101.1,23.3C101.1,23.2,101.1,23.2,101.1,23.3C101.1,23.3,101.1,23.3,101.1,23.3z"/>
<path class="st0" d="M101.1,25.4v1.1c0,0,0,0,0,0.1l0,0h-0.1c0,0,0,0-0.1,0c0,0,0,0,0-0.1c0,0,0,0,0-0.1v-1.1c0,0,0,0,0-0.1
	c0,0,0,0,0-0.1c0,0,0,0,0.1,0h0.1h0.1l0,0C101.1,25.2,101.1,25.3,101.1,25.4L101.1,25.4z"/>
<path class="st0" d="M102.6,24.9c0,0,0,0.1,0,0.1c0,0-0.1,0-0.1,0h-1.1c0,0-0.1,0-0.1,0c-0.1-0.1-0.1-0.2,0-0.2c0,0,0.1,0,0.1,0h1.1
	c0,0,0.1,0,0.1,0C102.6,24.8,102.6,24.8,102.6,24.9z"/>
<path class="st0" d="M100.6,24.9c0,0,0,0.1,0,0.1c0,0-0.1,0-0.1,0h-1.1c-0.1,0-0.2-0.1-0.2-0.2s0.1-0.2,0.2-0.2h1.1c0,0,0.1,0,0.1,0
	C100.6,24.8,100.6,24.8,100.6,24.9z"/>
<path class="st0" d="M100.8,24.3l-0.5,0.5c0,0,0,0.1,0,0.1c0,0,0,0.1,0,0.1l0.5,0.5l0,0h0.2l0,0l0.5-0.5c0,0,0-0.1,0-0.1
	c0,0,0-0.1,0-0.1l-0.5-0.5l0,0h-0.1H100.8z"/>
<path class="st0" d="M19.2,29.7C19.2,29.7,19.2,29.8,19.2,29.7c0,0.1,0,0.1-0.1,0.1c0,0-0.1,0-0.1,0l-0.1,0L18,29c0,0,0-0.1,0-0.1
	c0-0.1,0.1-0.1,0.2-0.2c0,0,0.1,0,0.1,0l0.8,0.9C19.2,29.6,19.2,29.7,19.2,29.7z"/>
<path class="st0" d="M17.4,27.9C17.4,27.9,17.4,27.9,17.4,27.9l0,0.1c0,0,0,0,0,0l-0.1,0l0,0l-0.8-0.9c0,0,0,0,0-0.1c0,0,0,0,0-0.1
	c0,0,0,0,0-0.1c0,0,0,0,0-0.1l0.1,0l0.1,0l0.1,0c0,0,0,0,0,0L17.4,27.9C17.4,27.8,17.4,27.9,17.4,27.9z"/>
<path class="st0" d="M17.4,28.9c0,0,0,0.1-0.1,0.1l-0.8,0.8c0,0-0.1,0-0.1,0c0,0-0.1,0-0.1-0.1c-0.1-0.1-0.1-0.2,0-0.2l0.8-0.8
	c0,0,0,0,0,0l0.1,0l0.1,0c0,0,0,0,0,0C17.4,28.7,17.4,28.7,17.4,28.9C17.4,28.8,17.4,28.8,17.4,28.9z"/>
<path class="st0" d="M19.2,27.1c0,0,0,0.1-0.1,0.1L18.3,28l-0.1,0l-0.1,0l-0.1,0c0,0-0.1,0-0.1-0.1c0,0,0,0,0-0.1c0,0,0,0,0-0.1l0,0
	l0.9-0.9c0,0,0.1,0,0.1,0c0,0,0.1,0,0.1,0.1c0,0,0,0,0,0.1C19.2,27,19.2,27,19.2,27.1z"/>
<path class="st0" d="M17.9,25.3l0,2.1c0,0,0,0.1-0.1,0.1c0,0-0.1,0.1-0.1,0c0,0-0.1,0-0.1-0.1c0,0,0-0.1,0-0.1l0-2.1
	c0,0,0-0.1,0.1-0.1c0,0,0.1,0,0.1,0c0,0,0.1,0,0.1,0C17.9,25.2,17.9,25.3,17.9,25.3z"/>
<path class="st0" d="M17.9,29.3l0,2.1c0,0.1-0.1,0.2-0.2,0.2l0,0c0,0-0.1,0-0.1,0c0,0,0-0.1,0-0.1l0-2.1c0,0,0-0.1,0.1-0.1
	c0,0,0.1,0,0.1,0C17.8,29.1,17.9,29.2,17.9,29.3L17.9,29.3L17.9,29.3z"/>
<path class="st0" d="M20.9,28.4c0,0,0,0.1,0,0.1c0,0-0.1,0-0.1,0l-2.2,0c-0.1,0-0.2-0.1-0.2-0.2s0.1-0.2,0.2-0.2l2.1,0
	c0,0,0.1,0,0.1,0.1C20.9,28.3,20.9,28.3,20.9,28.4z"/>
<path class="st0" d="M16.9,28.4c0,0,0,0.1-0.1,0.1c0,0-0.1,0-0.1,0l-2.1,0c0,0-0.1,0-0.1-0.1c-0.1-0.1-0.1-0.2,0-0.2
	c0,0,0.1,0,0.1,0l2.1,0l0.1,0l0,0.1C16.9,28.2,16.9,28.3,16.9,28.4z"/>
<path class="st0" d="M18.8,28.4c0,0,0,0.1-0.1,0.1l-1,1c0,0-0.1,0-0.1,0c0,0-0.1,0-0.1-0.1l-0.9-1c0,0,0-0.1,0-0.1
	c0,0,0-0.1,0.1-0.1l1-0.9c0,0,0.1,0,0.1,0c0,0,0.1,0,0.1,0.1l0.9,1C18.8,28.3,18.8,28.3,18.8,28.4z M17.7,29.1l0.7-0.7l-0.7-0.7
	L17,28.4L17.7,29.1z"/>
<path class="st0" d="M22.9,26.1C22.9,26.1,22.9,26.1,22.9,26.1c0,0.1,0,0.1,0,0.1c0,0-0.1,0-0.1,0c0,0-0.1,0-0.1,0l-0.5-0.5l0,0
	c0,0,0,0,0-0.1c0,0,0,0,0-0.1c0,0,0,0,0-0.1c0,0,0,0,0.1,0l0.1,0l0.1,0c0,0,0,0,0.1,0.1L22.9,26.1C22.9,26,22.9,26.1,22.9,26.1
	C22.9,26.1,22.9,26.1,22.9,26.1z"/>
<path class="st0" d="M21.9,25.1C21.9,25.1,21.9,25.1,21.9,25.1c0,0.1-0.1,0.1-0.1,0.1h-0.1h0l-0.5-0.5v-0.1c0,0,0,0,0-0.1
	c0,0,0,0,0-0.1c0,0,0,0,0-0.1c0,0,0,0,0.1,0c0,0,0,0,0.1,0c0,0,0,0,0.1,0h0.1L21.9,25.1C21.9,25,21.9,25.1,21.9,25.1L21.9,25.1z"/>
<path class="st0" d="M21.9,25.6C21.9,25.7,21.9,25.7,21.9,25.6L21.9,25.6l-0.5,0.5c0,0-0.1,0-0.1,0c0,0-0.1,0-0.1,0c0,0,0,0,0-0.1
	c0,0,0-0.1,0-0.1c0,0,0,0,0-0.1l0.5-0.5l0,0l0.1,0C21.8,25.5,21.9,25.5,21.9,25.6C21.9,25.6,21.9,25.6,21.9,25.6z"/>
<path class="st0" d="M22.9,24.6C22.9,24.6,22.9,24.7,22.9,24.6c0,0.1,0,0.1,0,0.1l-0.5,0.5c0,0,0,0,0,0h-0.1h-0.1h-0.1v-0.1
	c0,0,0,0,0-0.1c0,0,0,0,0-0.1l0-0.1l0.5-0.5h0.1L22.9,24.6L22.9,24.6C22.9,24.5,22.9,24.6,22.9,24.6C22.9,24.6,22.9,24.6,22.9,24.6z
	"/>
<path class="st0" d="M22.1,23.6v1.2c0,0,0,0,0,0.1V25h-0.1L22,25h-0.1h-0.1c0,0,0-0.1,0-0.1v-1.2c0,0,0,0,0-0.1c0,0,0,0,0-0.1h0.1
	H22h0.1h0.1L22.1,23.6C22.1,23.6,22.1,23.6,22.1,23.6z"/>
<path class="st0" d="M22.2,25.9l0,1.1c0,0,0,0,0,0.1l0,0.1l-0.1,0l-0.1,0l-0.1,0c0,0,0,0,0-0.1c0,0,0,0,0-0.1l0-1.1c0,0,0,0,0-0.1
	c0,0,0,0,0-0.1l0.1,0l0.1,0l0.1,0l0.1,0L22.2,25.9C22.2,25.8,22.2,25.9,22.2,25.9z"/>
<path class="st0" d="M23.9,25.4c0,0,0,0.1,0,0.1c0,0-0.1,0-0.1,0l-1.2,0c-0.1,0-0.2-0.1-0.2-0.2l0,0c0,0,0-0.1,0.1-0.1
	c0,0,0.1,0,0.1,0l1.2,0C23.8,25.2,23.8,25.3,23.9,25.4L23.9,25.4z"/>
<path class="st0" d="M21.6,25.3c0,0.1-0.1,0.2-0.2,0.2l0,0l-1.2,0c0,0-0.1,0-0.1-0.1c0,0,0-0.1,0-0.1c0,0,0-0.1,0.1-0.1
	c0,0,0.1,0,0.1,0l1.2,0c0,0,0.1,0,0.1,0C21.6,25.3,21.6,25.3,21.6,25.3z"/>
<path class="st0" d="M21.9,24.7l-0.5,0.5c0,0,0,0.1-0.1,0.1c0,0,0,0.1,0,0.1l0.5,0.5c0,0,0,0,0.1,0l0.1,0l0.1,0l0.5-0.5l0,0
	c0,0,0,0,0-0.1c0,0,0,0,0-0.1l0-0.1l-0.5-0.5l-0.1,0L21.9,24.7L21.9,24.7L21.9,24.7z"/>
<path class="st0" d="M25,31.5C25,31.5,25,31.5,25,31.5c0,0.1,0,0.1,0,0.1l0,0l-0.1,0l-0.1,0l-0.5-0.5c0,0,0,0,0,0c0,0,0,0,0-0.1
	c0,0,0,0,0-0.1c0,0,0,0,0,0c0,0,0.1,0,0.1,0c0,0,0.1,0,0.1,0.1l0.5,0.5C25,31.4,25,31.5,25,31.5z"/>
<path class="st0" d="M24,30.5C24,30.5,24,30.5,24,30.5l0,0.1c0,0-0.1,0-0.1,0c0,0-0.1,0-0.1,0l-0.5-0.5c0,0,0-0.1,0-0.1
	c0,0,0-0.1,0.1-0.1c0,0,0.1,0,0.1,0c0,0,0.1,0,0.1,0l0.5,0.5C24,30.4,24,30.4,24,30.5z"/>
<path class="st0" d="M24,31c0,0,0,0.1-0.1,0.1l-0.5,0.5l0,0l-0.1,0l-0.1,0c0,0,0-0.1,0-0.1c0,0,0-0.1,0-0.1l0.5-0.5c0,0,0,0,0,0
	l0.1,0C23.9,30.9,23.9,31,24,31C24,31,24,31,24,31z"/>
<path class="st0" d="M25,30c0,0,0,0.1-0.1,0.1l-0.5,0.5l0,0l-0.1,0l-0.1,0l0,0c0,0,0-0.1,0-0.1c0,0,0-0.1,0.1-0.1l0.5-0.5
	c0,0,0,0,0.1,0l0.1,0l0.1,0c0,0,0,0,0.1,0C25,29.9,25,30,25,30z"/>
<path class="st0" d="M24.3,29l0,1.2c0,0,0,0.1-0.1,0.1c0,0-0.1,0-0.1,0c0,0-0.1,0-0.1,0c0,0,0-0.1,0-0.1l0-1.2c0,0,0-0.1,0.1-0.1
	c0,0,0.1,0,0.1,0c0,0,0.1,0,0.1,0.1C24.3,28.9,24.3,29,24.3,29z"/>
<path class="st0" d="M24.3,31.3l0,1.2c0,0,0,0.1-0.1,0.1c0,0-0.1,0-0.1,0c0,0-0.1,0-0.1,0c0,0,0-0.1,0-0.1l0-1.2c0,0,0-0.1,0.1-0.1
	c0,0,0.1,0,0.1,0c0,0,0.1,0,0.1,0.1C24.3,31.2,24.3,31.2,24.3,31.3z"/>
<path class="st0" d="M26,30.7c0,0.1-0.1,0.2-0.2,0.2l0,0l-1.2,0c0,0-0.1,0-0.1-0.1c0,0,0-0.1,0-0.1c0,0,0-0.1,0.1-0.1
	c0,0,0.1-0.1,0.1,0l1.2,0l0,0l0,0C25.9,30.6,26,30.7,26,30.7z"/>
<path class="st0" d="M23.8,30.7c0,0.1-0.1,0.2-0.2,0.2l0,0l-1.2,0c-0.1,0-0.2-0.1-0.2-0.2l0,0c0,0,0-0.1,0.1-0.1c0,0,0.1-0.1,0.1,0
	l1.2,0c0,0,0.1,0,0.1,0.1C23.7,30.7,23.8,30.7,23.8,30.7z"/>
<path class="st0" d="M24,30.1l-0.5,0.5c0,0,0,0.1-0.1,0.1c0,0,0,0.1,0,0.1l0.5,0.5l0,0l0.1,0c0,0,0,0,0,0l0.5-0.5c0,0,0-0.1,0-0.1
	c0,0,0-0.1,0-0.1l-0.5-0.5c0,0-0.1,0-0.1,0C24.1,30.1,24,30.1,24,30.1z"/>
<path class="st0" d="M19.2,7.2C19.2,7.2,19.2,7.1,19.2,7.2L19.1,7H19c0,0-0.1,0-0.1,0.1l-0.9,0.8l0,0C18,7.9,18,8,18,8
	c0,0,0,0,0,0.1c0,0,0,0,0,0.1c0,0,0.1,0,0.1,0c0,0,0.1,0,0.1,0L19.2,7.2C19.1,7.2,19.2,7.2,19.2,7.2z"/>
<path class="st0" d="M17.4,9C17.4,9,17.4,9,17.4,9c0-0.1,0-0.1,0-0.1c0,0-0.1,0-0.1,0c0,0-0.1,0-0.1,0l-0.9,0.9c0,0,0,0.1,0,0.1
	c0,0,0,0.1,0,0.1l0,0h0.1l0,0l0.9-0.9V9.1C17.3,9.1,17.4,9,17.4,9z"/>
<path class="st0" d="M17.4,8C17.4,8,17.4,8,17.4,8c0-0.1,0-0.1,0-0.1l-0.8-0.8h0h-0.1c0,0,0,0,0,0c0,0,0,0.1,0,0.1c0,0,0,0.1,0,0.1
	l0.8,0.8c0,0,0,0,0,0h0.1h0.1c0,0,0,0,0,0V8L17.4,8z"/>
<path class="st0" d="M19.2,9.8c0,0,0-0.1,0-0.1l-0.9-0.9c0,0-0.1,0-0.1,0c0,0-0.1,0-0.1,0v0.1C18,8.9,18,9,18,9l0,0v0.1l0.9,0.9
	c0,0.1,0.1,0.1,0.1,0.1c0,0,0,0,0,0h0.1c0,0,0,0,0,0C19.2,10,19.2,9.9,19.2,9.8z"/>
<path class="st0" d="M17.9,11.6V9.4c0,0,0-0.1,0-0.1c0,0-0.1,0-0.1,0c0,0-0.1,0-0.1,0c0,0,0,0.1,0,0.1v2.1c0,0,0,0.1,0,0.1
	c0,0,0.1,0,0.1,0.1C17.8,11.7,17.9,11.7,17.9,11.6L17.9,11.6z"/>
<path class="st0" d="M17.9,7.6V5.5c0-0.1-0.1-0.2-0.2-0.2l0,0c0,0-0.1,0-0.1,0c0,0,0,0.1,0,0.1v2.1c0,0,0,0.1,0,0.1c0,0,0.1,0,0.1,0
	C17.8,7.7,17.9,7.6,17.9,7.6L17.9,7.6L17.9,7.6z"/>
<path class="st0" d="M20.9,8.5c0-0.1-0.1-0.2-0.2-0.2h-2.2h-0.1v0.1c0,0,0,0,0,0.1c0,0,0,0,0,0.1v0.1c0,0,0,0,0.1,0h2.2
	c0,0,0.1,0,0.1,0C20.9,8.6,20.9,8.6,20.9,8.5z"/>
<path class="st0" d="M16.9,8.5c0,0,0-0.1,0-0.1c0,0-0.1-0.1-0.1-0.1h-2.2h-0.1v0.1c0,0,0,0,0,0.1c0,0,0,0,0,0.1v0.1h0.1h2.2h0.1
	L16.9,8.5C16.9,8.6,16.9,8.5,16.9,8.5z"/>
<path class="st0" d="M18.8,8.6l-1,1h0h-0.1h-0.1l-1-1c0,0,0-0.1,0-0.1c0,0,0-0.1,0-0.1l1-1h0.1h0.1h0.1h0.1l1,1l0,0c0,0,0,0,0,0.1
	C18.8,8.5,18.8,8.5,18.8,8.6C18.8,8.6,18.8,8.6,18.8,8.6z M17,8.5l0.7,0.7l0.7-0.7l-0.7-0.7L17,8.5z"/>
<path class="st0" d="M22.9,10.8C22.9,10.8,22.9,10.8,22.9,10.8v-0.1h0h-0.1h-0.1h0l-0.5,0.5c0,0,0,0.1,0,0.1c0,0,0,0.1,0,0.1
	c0,0,0.1,0,0.1,0.1c0,0,0.1,0,0.1,0l0.5-0.5L22.9,10.8C22.9,10.9,22.9,10.9,22.9,10.8z"/>
<path class="st0" d="M21.9,11.8C21.9,11.8,21.9,11.8,21.9,11.8v-0.1c0,0-0.1,0-0.1,0c0,0-0.1,0-0.1,0l-0.5,0.5v0.1c0,0,0,0.1,0,0.1
	v0.1c0,0,0.1,0,0.1,0c0,0,0.1,0,0.1,0l0.5-0.5l0,0C21.9,11.9,21.9,11.8,21.9,11.8z"/>
<path class="st0" d="M21.9,11.3C21.9,11.3,21.9,11.2,21.9,11.3c0-0.1,0-0.1,0-0.1l-0.5-0.5c-0.1-0.1-0.2-0.1-0.2,0c0,0,0,0.1,0,0.1
	c0,0,0,0.1,0,0.1l0.5,0.5c0,0,0.1,0,0.1,0c0,0,0.1,0,0.1,0C21.9,11.4,21.9,11.3,21.9,11.3C21.9,11.3,21.9,11.3,21.9,11.3z"/>
<path class="st0" d="M22.9,12.3C22.9,12.2,22.9,12.2,22.9,12.3L22.9,12.3l-0.5-0.5c0,0-0.1,0-0.1-0.1c0,0-0.1,0-0.1,0.1v0.1
	c0,0,0,0,0,0.1c0,0,0,0,0,0.1V12l0.5,0.5c0,0,0.1,0,0.1,0c0,0,0.1,0,0.1,0v-0.1C22.9,12.4,22.9,12.3,22.9,12.3z"/>
<path class="st0" d="M22.1,13.3v-1.2c0,0,0,0,0-0.1v-0.1h-0.1H22h-0.1h-0.1c0,0,0,0.1,0,0.1v1.2c0,0,0,0.1,0.1,0.1
	c0.1,0.1,0.2,0.1,0.2,0C22.2,13.3,22.2,13.3,22.1,13.3z"/>
<path class="st0" d="M22.1,11V9.9c0,0,0-0.1,0-0.1c-0.1-0.1-0.2-0.1-0.2,0c0,0,0,0.1-0.1,0.1V11c0,0,0,0.1,0.1,0.1
	c0.1,0.1,0.2,0.1,0.2,0C22.1,11.1,22.1,11,22.1,11z"/>
<path class="st0" d="M23.8,11.6C23.8,11.5,23.8,11.5,23.8,11.6v-0.1c0,0,0,0,0,0h-0.1h-1.3h-0.1c0,0,0,0,0,0.1c0,0,0,0,0,0.1
	c0,0,0,0,0,0.1c0,0,0,0,0,0.1h0.1h1.3h0C23.8,11.7,23.8,11.7,23.8,11.6C23.8,11.6,23.8,11.6,23.8,11.6z"/>
<path class="st0" d="M21.6,11.6C21.6,11.5,21.6,11.5,21.6,11.6v-0.1h0h-1.3c0,0,0,0-0.1,0v0.1c0,0,0,0,0,0.1c0,0,0,0,0,0.1v0.1h0.1
	h1.3h0V11.6C21.6,11.6,21.6,11.6,21.6,11.6z"/>
<path class="st0" d="M21.9,12.2l-0.5-0.5c0,0,0-0.1,0-0.1c0,0,0-0.1,0-0.1l0.5-0.5c0,0,0.1,0,0.1-0.1c0,0,0.1,0,0.1,0.1l0.5,0.5
	c0,0,0,0,0,0.1c0,0,0,0,0,0.1s0,0,0,0.1v0.1l-0.5,0.5H22L21.9,12.2L21.9,12.2z"/>
<path class="st0" d="M25,5.4C25,5.4,25,5.4,25,5.4c0-0.1,0-0.1,0-0.1c0,0-0.1,0-0.1-0.1c0,0-0.1,0-0.1,0.1l-0.5,0.5c0,0,0,0.1,0,0.1
	c0,0,0,0.1,0,0.1c0,0,0.1,0,0.1,0.1c0,0,0.1,0,0.1,0L25,5.6C25,5.5,25,5.5,25,5.4z"/>
<path class="st0" d="M24,6.4C24,6.4,24,6.4,24,6.4c0-0.1,0-0.1-0.1-0.2h-0.1h-0.1l-0.5,0.5c0,0,0,0,0,0.1c0,0,0,0.1,0,0.1
	c0,0,0,0,0,0.1c0,0,0.1,0,0.1,0c0,0,0.1,0,0.1,0L24,6.6V6.4C24,6.5,24,6.5,24,6.4z"/>
<path class="st0" d="M24,5.9c0,0,0-0.1,0-0.1l-0.5-0.5c0,0-0.1,0-0.1,0c-0.1,0-0.2,0.1-0.2,0.2c0,0,0,0.1,0,0.1l0.5,0.5c0,0,0,0,0,0
	h0.1h0.1l0,0C24,6.1,24,6,24,5.9C24,6,24,5.9,24,5.9z"/>
<path class="st0" d="M25,6.9c0,0,0-0.1,0-0.1l-0.5-0.5h0h-0.1h-0.1h-0.1c0,0,0,0,0,0.1c0,0,0,0,0,0.1c0,0,0,0,0,0.1c0,0,0,0,0,0.1
	l0.5,0.5c0,0,0.1,0,0.1,0C24.9,7,25,7,25,6.9C25,7,25,6.9,25,6.9z"/>
<path class="st0" d="M24.3,7.9V6.7c0,0,0-0.1,0-0.1c0,0-0.1,0-0.1,0c-0.1,0-0.1,0.1-0.1,0.1v1.2c0,0,0,0.1,0,0.1c0,0,0.1,0,0.1,0.1
	c0,0,0.1,0,0.1-0.1C24.3,8,24.3,7.9,24.3,7.9z"/>
<path class="st0" d="M24.3,5.7V4.5c0,0,0-0.1,0-0.1c0,0-0.1,0-0.1,0c0,0-0.1,0-0.1,0c0,0,0,0.1,0,0.1v1.2c0,0,0,0.1,0,0.1
	c0,0,0.1,0,0.1,0c0,0,0.1,0,0.1,0C24.3,5.7,24.3,5.7,24.3,5.7z"/>
<path class="st0" d="M26,6.2C26,6.1,25.9,6,25.9,6c0,0,0,0,0,0h-1.2c0,0-0.1,0-0.1,0.1c0,0,0,0.1,0,0.1c0,0,0,0.1,0,0.1
	c0,0,0.1,0,0.1,0h1.3L26,6.2L26,6.2C25.9,6.3,26,6.2,26,6.2z"/>
<path class="st0" d="M23.8,6.2c0-0.1-0.1-0.2-0.1-0.2c0,0,0,0,0,0h-1.2c-0.1,0-0.2,0.1-0.2,0.2l0,0c0,0,0,0.1,0,0.1c0,0,0.1,0,0.1,0
	h1.2C23.6,6.3,23.7,6.3,23.8,6.2C23.7,6.3,23.8,6.2,23.8,6.2z"/>
<path class="st0" d="M24,6.8l-0.5-0.5c0,0,0-0.1,0-0.1c0,0,0-0.1,0-0.1L24,5.5h0h0.1c0,0,0,0,0,0l0.5,0.5c0,0,0,0.1,0,0.1
	c0,0,0,0.1,0,0.1l-0.5,0.5c0,0,0,0,0,0L24,6.8L24,6.8z"/>
<path class="st0" d="M115.1,19.8l-1.2,1.1l-0.2-0.2l1.2-1.1L115.1,19.8z M113.5,21.3l-0.3,0.3l-0.2-0.3l0.3-0.3L113.5,21.3z
	 M113,21.7l-1.2,1.1l-0.2-0.3l1.2-1.1L113,21.7z M111.5,23.1l-0.3,0.3l-0.2-0.2l0.3-0.3L111.5,23.1z M111,23.6l-1.2,1.1l-0.2-0.2
	l1.2-1.1L111,23.6z M109.5,25l-0.3,0.3l-0.2-0.3l0.3-0.3L109.5,25z M109,25.5l-1.2,1.1l-0.2-0.3l1.2-1.1L109,25.5z"/>
<path class="st0" d="M114.8,19.3l-1.5,0.7l-0.1-0.3l1.5-0.7L114.8,19.3z M112.9,20.1l-0.4,0.2l-0.1-0.3l0.4-0.2L112.9,20.1z M111,21
	l-0.4,0.2l-0.1-0.3l0.4-0.2L111,21z M110.2,21.4l-1.5,0.7l-0.1-0.3l1.5-0.7L110.2,21.4z M108.3,22.2l-0.3,0.1l-0.1-0.3l0.3-0.2
	L108.3,22.2z"/>
<path class="st0" d="M115.1,17.6l-0.2,0.2l-1.2-1.1l0.2-0.3L115.1,17.6z M113.5,16.2l-0.2,0.2l-0.3-0.3l0.2-0.3L113.5,16.2z
	 M113,15.7l-0.2,0.3l-1.2-1.1l0.2-0.3L113,15.7z M111.5,14.3l-0.2,0.2l-0.3-0.3l0.2-0.2L111.5,14.3z M111,13.8l-0.2,0.2l-1.2-1.1
	l0.2-0.3L111,13.8z M109.5,12.4l-0.2,0.3l-0.3-0.3l0.2-0.3L109.5,12.4z M109,12l-0.2,0.3l-1.2-1.1l0.2-0.3L109,12z"/>
<path class="st0" d="M114.8,18.2l-0.1,0.3l-1.5-0.7l0.1-0.3L114.8,18.2z M112.9,17.3l-0.1,0.3l-0.4-0.2l0.1-0.3L112.9,17.3z
	 M111,16.4l-0.1,0.3l-0.4-0.2l0.1-0.3L111,16.4z M110.2,16.1l-0.1,0.3l-1.5-0.7l0.1-0.3L110.2,16.1z M108.3,15.2l-0.1,0.3l-0.3-0.2
	L108,15L108.3,15.2z"/>
<path class="st0" d="M8.2,18.3v0.3h15.8v-0.3H8.2z"/>
<path class="st2" d="M21.4,19.4c-0.2,0-0.4-0.1-0.5-0.1c-0.1-0.1-0.3-0.2-0.3-0.4c-0.2-0.5,0-1,0.5-1.2c0,0,0.1,0,0.1,0
	c0.4-0.1,0.7,0.1,0.9,0.4c0.1,0.1,0.2,0.3,0.1,0.5c0,0.2-0.1,0.5-0.3,0.6C21.8,19.3,21.6,19.4,21.4,19.4z"/>
<path class="st0" d="M22.4,18.5c0,0.2-0.1,0.4-0.2,0.6c-0.1,0.2-0.3,0.3-0.5,0.4c-0.2,0.1-0.4,0.1-0.6,0.1c-0.2,0-0.4-0.1-0.5-0.3
	c-0.1-0.2-0.3-0.3-0.3-0.5c-0.1-0.4,0.1-0.9,0.5-1.1c0.5-0.3,1.2-0.2,1.5,0.3C22.4,18,22.4,18.2,22.4,18.5z M20.6,18.5
	c0,0.1,0,0.3,0.1,0.4c0.2,0.2,0.5,0.4,0.8,0.3c0.1,0,0.3-0.1,0.4-0.2c0.1-0.1,0.2-0.2,0.2-0.4c0-0.1,0-0.3,0-0.4
	c-0.1-0.1-0.2-0.2-0.3-0.3c-0.1-0.1-0.3-0.1-0.4-0.1c-0.1,0-0.2,0-0.3,0c-0.1,0-0.2,0.1-0.2,0.2c-0.1,0.1-0.1,0.2-0.2,0.3
	C20.7,18.3,20.6,18.4,20.6,18.5z"/>
<path class="st0" d="M96.2,18.6V19h15.4v-0.3L96.2,18.6z"/>
<path class="st0" d="M100.8,19.7c-0.2,0-0.4-0.1-0.5-0.2c-0.1-0.1-0.3-0.2-0.3-0.4c-0.1-0.2-0.1-0.3-0.1-0.5
	c0.1-0.4,0.3-0.7,0.7-0.7c0.2,0,0.4,0,0.5,0c0.2,0.1,0.3,0.2,0.4,0.3c0.1,0.2,0.2,0.3,0.2,0.5c0,0.2-0.1,0.5-0.3,0.6
	C101.2,19.6,101,19.7,100.8,19.7z"/>
<path class="st0" d="M18.2,19.4c-0.2,0-0.4-0.1-0.5-0.1c-0.1-0.1-0.3-0.2-0.3-0.4c-0.2-0.5,0-1,0.5-1.2c0,0,0.1,0,0.1,0
	c0.4-0.1,0.8,0.1,1,0.4c0.1,0.1,0.2,0.3,0.1,0.5c0,0.2-0.1,0.5-0.3,0.6C18.7,19.3,18.5,19.4,18.2,19.4z"/>
<path class="st2" d="M105.9,20.4c-0.3,0-0.6-0.1-0.9-0.3c-0.3-0.2-0.5-0.4-0.6-0.7c-0.2-0.6-0.1-1.3,0.3-1.8
	c0.5-0.5,1.2-0.6,1.8-0.4c0.3,0.1,0.5,0.3,0.7,0.6c0.2,0.3,0.3,0.6,0.3,0.9C107.5,19.7,106.8,20.4,105.9,20.4
	C105.9,20.4,105.9,20.4,105.9,20.4z"/>
<path class="st0" d="M107.7,18.8c0,0.4-0.1,0.7-0.3,1c-0.2,0.3-0.5,0.5-0.8,0.6c-0.7,0.3-1.4,0.1-1.9-0.4c-0.2-0.3-0.4-0.6-0.5-0.9
	c-0.1-0.3,0-0.7,0.1-1c0.1-0.3,0.4-0.6,0.7-0.8c0.3-0.2,0.6-0.3,1-0.3C106.9,17.1,107.7,17.9,107.7,18.8L107.7,18.8z M104.5,18.8
	c0,0.8,0.6,1.4,1.4,1.4c0.1,0,0.2,0,0.3,0c0.3-0.1,0.5-0.2,0.7-0.4c0.2-0.2,0.3-0.5,0.4-0.7c0.2-0.8-0.3-1.5-1.1-1.7
	c-0.1,0-0.2,0-0.3,0c-0.4,0-0.7,0.2-1,0.4C104.6,18,104.5,18.4,104.5,18.8z"/>
<path class="st2" d="M120.3,15.2c1.7,1.6,2,4.2,0.9,6.2c-1.4,2.5-4.5,3.3-7,1.9c-0.4-0.2-0.8-0.5-1.1-0.8c-0.5-0.5-0.9-1-1.2-1.7
	c-0.3-0.6-0.4-1.3-0.4-2c0-2.1,1.2-4,3.2-4.8c0.6-0.3,1.3-0.4,2-0.4C118,13.6,119.3,14.2,120.3,15.2L120.3,15.2z"/>
<path class="st0" d="M121.9,18.8c0,2.9-2.4,5.3-5.3,5.3c-2.9,0-5.3-2.4-5.3-5.3c0-1.4,0.6-2.8,1.5-3.8c1.5-1.5,3.8-2,5.8-1.1
	c0.9,0.4,1.8,1.1,2.3,2C121.6,16.7,121.9,17.7,121.9,18.8z M111.7,18.8c0,0.6,0.1,1.3,0.4,1.9c0.2,0.6,0.6,1.1,1.1,1.6
	c0.5,0.5,1,0.8,1.6,1.1c1.2,0.5,2.6,0.5,3.8,0c0.6-0.3,1.1-0.6,1.6-1.1c1.2-1.2,1.7-2.8,1.4-4.5c-0.1-0.8-0.5-1.5-1-2.2
	c-0.5-0.6-1.2-1.1-1.9-1.4c-2.4-1-5.1,0-6.3,2.3C111.9,17.2,111.7,18,111.7,18.8L111.7,18.8z"/>
<path class="st2" d="M118.1,15.2c0.5,0.5,0.9,1.1,1,1.8c0.1,0.7,0.1,1.4-0.2,2.1c-0.3,0.6-0.7,1.2-1.3,1.6c-1.6,1.1-3.8,0.7-4.9-0.9
	c-0.5-0.8-0.7-1.8-0.5-2.7c0.1-0.7,0.5-1.3,1-1.8c0.4-0.5,1-0.8,1.6-0.9c0.6-0.2,1.2-0.2,1.8,0C117.1,14.4,117.7,14.7,118.1,15.2z"
	/>
<path class="st0" d="M119.3,17.7c0,0.9-0.3,1.7-0.8,2.4c-0.5,0.7-1.3,1.1-2.2,1.3c-1.7,0.3-3.5-0.6-4.2-2.2
	c-0.8-1.9,0.1-4.1,1.9-4.9c1.4-0.6,3-0.3,4.1,0.8c0.4,0.3,0.6,0.8,0.8,1.2C119.2,16.7,119.3,17.2,119.3,17.7z M112.2,17.7
	c0,0.6,0.1,1.1,0.4,1.6c0.5,1,1.5,1.7,2.7,1.8c0.6,0.1,1.1,0,1.6-0.2c0.5-0.2,1-0.6,1.3-1c0.4-0.4,0.6-1,0.7-1.5
	c0.1-0.5,0.1-1.1-0.1-1.6c-0.2-0.5-0.4-1-0.8-1.4c-1-1-2.4-1.3-3.7-0.7c-0.6,0.3-1.1,0.7-1.5,1.3C112.4,16.4,112.2,17,112.2,17.7z"
	/>
<path class="st0" d="M6.8,17l-0.2,0.2l-1.5-1.7l0.2-0.2L6.8,17z M5,15.1l-0.3,0.2L4.5,15l0.3-0.2L5,15.1z M4.5,14.5l-0.2,0.2
	l-1.5-1.7L3,12.8L4.5,14.5z M2.7,12.5l-0.2,0.2l-0.3-0.3l0.3-0.2L2.7,12.5z M2.2,12L2,12.2l-0.9-1L1.4,11L2.2,12z"/>
<path class="st0" d="M6.8,19.9l-1.5,1.6l-0.2-0.2l1.5-1.6L6.8,19.9z M5,21.8l-0.3,0.3l-0.3-0.2l0.3-0.3L5,21.8z M4.5,22.4L3,24
	l-0.3-0.2l1.5-1.6L4.5,22.4z M2.7,24.4l-0.3,0.3l-0.3-0.2l0.3-0.3L2.7,24.4z M2.2,25l-0.9,1l-0.3-0.2l0.9-1L2.2,25z"/>
<path class="st0" d="M13.5,18.5c0,2.9-2.3,5.2-5.2,5.3c-1.4,0-2.7-0.5-3.7-1.5c-0.5-0.5-0.9-1.1-1.1-1.7c-0.3-0.6-0.4-1.3-0.4-2
	c0-1.4,0.6-2.7,1.5-3.7c2-2,5.4-2.1,7.4,0c0,0,0,0,0,0C12.9,15.8,13.5,17.1,13.5,18.5L13.5,18.5z M3.3,18.5c0,2.3,1.6,4.4,3.9,4.8
	c0.9,0.2,1.9,0.1,2.8-0.3c2.5-1,3.7-3.9,2.6-6.4c-0.1-0.3-0.3-0.6-0.5-0.8c-1.1-1.6-3.1-2.4-5-2.1c-1,0.2-1.8,0.6-2.5,1.3
	C3.8,15.9,3.3,17.2,3.3,18.5z"/>
<path class="st0" d="M15.4,11.2l-0.9,1L14.3,12l0.8-1L15.4,11.2z M14.3,12.4L14,12.7l-0.3-0.2l0.3-0.3L14.3,12.4z M13.7,13.1
	l-1.5,1.6L12,14.5l1.5-1.6L13.7,13.1z M12,15l-0.3,0.3l-0.3-0.2l0.3-0.3L12,15z M11.4,15.6l-1.5,1.6L9.6,17l1.5-1.6L11.4,15.6z"/>
<path class="st0" d="M15.4,25.7l-0.3,0.2L14.3,25l0.2-0.2L15.4,25.7z M14.3,24.5L14,24.7l-0.3-0.3l0.3-0.2L14.3,24.5z M13.7,23.8
	l-0.3,0.2L12,22.4l0.3-0.2L13.7,23.8z M12,21.9l-0.2,0.2l-0.3-0.3l0.3-0.2L12,21.9z M11.4,21.3l-0.2,0.2l-1.5-1.6l0.3-0.2L11.4,21.3
	z"/>
<path class="st2" d="M9.4,16.4L8.2,11l-1.1,5.4l-2.7-1.8l1.7,2.7l-5.4,1.1l5.4,1.1l-1.7,2.7l2.7-1.7l1.1,5.4l1.1-5.4l2.6,1.7
	l-1.7-2.7l5.4-1.1l-5.4-1.1l1.7-2.7L9.4,16.4z"/>
<path class="st0" d="M16.5,18.5l-5.9,1.3l2,3.1l-3.1-2l-1.2,5.9L7,20.8l-3.1,2l2-3.1L0,18.5l5.9-1.2l-2-3.1l3.1,2l1.2-5.9l1.2,5.9
	l3.1-2l-2,3.1L16.5,18.5z M10,19.5l4.8-1l-4.8-1l1.4-2.2l-2.2,1.4l-1-4.9l-1,4.9L5,15.2l1.4,2.2l-4.8,1l4.8,1L5,21.7l2.2-1.4l1,4.9
	l1-4.9l2.2,1.4L10,19.5z"/>
</svg>
