<svg id="Capa_1" data-name="Capa 1" xmlns="http://www.w3.org/2000/svg" viewBox="0 0 124.88 124.1"><defs><style>.cls-1,.cls-4{fill:none;}.cls-1{stroke:#fdfcef;stroke-linecap:round;stroke-linejoin:round;}.cls-2{fill:#fdfcef;}.cls-3{fill:#1f193b;stroke:#fff;}.cls-3,.cls-4{stroke-miterlimit:10;}.cls-4{stroke:#1f193b;}</style></defs><title>open-eye</title><path class="cls-1" d="M120.2,49.91S68,127.17,4.66,49.91h0C5.85,49.09,62.61,10.44,120.2,49.91Z"/><circle class="cls-1" cx="62.43" cy="48.24" r="26.57" transform="translate(0.71 97.39) rotate(-76.23)"/><circle class="cls-2" cx="62.43" cy="41.05" r="15.61"/><path class="cls-3" d="M120.2,49.91C62.61,10.44,5.85,49.09,4.68,49.9,5.8,48.28,59.93-27.92,120.2,49.91Z"/><path class="cls-1" d="M62.44,101.74l3.76,10.93,1.32,3.81a5.37,5.37,0,0,1-5.08,7.12h0a5.37,5.37,0,0,1-5.08-7.12l1.31-3.81Z"/><circle class="cls-2" cx="62.44" cy="94.01" r="3.54"/><path class="cls-1" d="M82.81,95.68l3.09,8.95L87,107.75a4.4,4.4,0,0,1-4.16,5.83h0a4.4,4.4,0,0,1-4.16-5.83l1.08-3.12Z"/><path class="cls-2" d="M85.71,89.34a2.9,2.9,0,1,1-2.9-2.9A2.9,2.9,0,0,1,85.71,89.34Z"/><path class="cls-1" d="M98.48,85.94l2.42,7,.84,2.44A3.45,3.45,0,0,1,98.48,100h0a3.46,3.46,0,0,1-3.27-4.58L96.06,93Z"/><circle class="cls-2" cx="98.48" cy="80.97" r="2.28"/><path class="cls-1" d="M111.08,72.64l1.82,5.29.64,1.84a2.61,2.61,0,0,1-2.46,3.45h0a2.6,2.6,0,0,1-2.46-3.45l.64-1.84Z"/><path class="cls-2" d="M112.79,68.9a1.72,1.72,0,1,1-1.71-1.71A1.71,1.71,0,0,1,112.79,68.9Z"/><path class="cls-1" d="M42.41,95.68l-3.08,8.95-1.08,3.12a4.4,4.4,0,0,0,4.16,5.83h0a4.4,4.4,0,0,0,4.16-5.83l-1.07-3.12Z"/><path class="cls-2" d="M39.51,89.34a2.9,2.9,0,1,0,2.9-2.9A2.9,2.9,0,0,0,39.51,89.34Z"/><path class="cls-1" d="M26.74,85.94l-2.42,7-.84,2.44A3.45,3.45,0,0,0,26.74,100h0A3.45,3.45,0,0,0,30,95.41L29.17,93Z"/><circle class="cls-2" cx="26.74" cy="80.97" r="2.28"/><path class="cls-1" d="M14.14,72.64l-1.82,5.29-.63,1.84a2.6,2.6,0,0,0,2.45,3.45h0a2.6,2.6,0,0,0,2.46-3.45L16,77.93Z"/><circle class="cls-2" cx="14.14" cy="68.9" r="1.71"/><line class="cls-1" x1="62.44" y1="9.54" x2="62.44" y2="0.5"/><line class="cls-1" x1="73.38" y1="10.74" x2="74.62" y2="1.3"/><line class="cls-1" x1="84.14" y1="12.87" x2="86.6" y2="3.67"/><line class="cls-1" x1="93.12" y1="17.79" x2="96.76" y2="8.99"/><line class="cls-1" x1="102.3" y1="23.09" x2="107.05" y2="14.84"/><line class="cls-1" x1="109.93" y1="30.87" x2="115.72" y2="23.31"/><line class="cls-1" x1="117.65" y1="38.62" x2="124.38" y2="31.88"/><line class="cls-1" x1="51.5" y1="10.74" x2="50.25" y2="1.3"/><line class="cls-1" x1="40.74" y1="12.87" x2="38.28" y2="3.67"/><line class="cls-1" x1="31.75" y1="17.79" x2="28.11" y2="8.99"/><line class="cls-1" x1="22.57" y1="23.09" x2="17.82" y2="14.84"/><line class="cls-1" x1="14.94" y1="30.87" x2="9.16" y2="23.31"/><line class="cls-1" x1="7.22" y1="38.62" x2="0.5" y2="31.88"/><circle class="cls-4" cx="62.43" cy="36.95" r="8.01" transform="translate(-7.84 54.97) rotate(-45)"/></svg>