<svg width="214" height="224" viewBox="0 0 214 224" fill="none" xmlns="http://www.w3.org/2000/svg">
<g clip-path="url(#clip0_155_131)">
<path d="M107.602 158.795H106.027V209.65H107.602V158.795Z" fill="#FDFCEF"/>
<path d="M107.501 182.013C107.486 183.611 107.898 185.184 108.692 186.571C109.487 187.958 110.636 189.108 112.022 189.904C114.793 191.343 117.734 192.424 120.777 193.122C120.777 193.122 116.73 184.925 114.139 183.3C112.08 182.287 109.788 181.842 107.501 182.013Z" fill="#FDFCEF"/>
<path d="M106.112 182.013C106.131 183.61 105.724 185.183 104.932 186.57C104.14 187.958 102.992 189.108 101.607 189.904C98.8433 191.344 95.9068 192.425 92.8691 193.122C92.8691 193.122 96.8995 184.925 99.5074 183.3C101.555 182.29 103.835 181.846 106.112 182.013Z" fill="#FDFCEF"/>
<path d="M107.247 193.376C107.226 194.403 107.483 195.417 107.989 196.311C108.496 197.204 109.234 197.946 110.125 198.456C111.879 199.361 113.74 200.044 115.663 200.488C115.663 200.488 113.106 195.289 111.463 194.273C110.162 193.605 108.707 193.296 107.247 193.376Z" fill="#FDFCEF"/>
<path d="M106.366 193.376C106.392 194.402 106.139 195.416 105.635 196.31C105.131 197.205 104.395 197.946 103.504 198.456C101.75 199.361 99.8896 200.044 97.9664 200.488C97.9664 200.488 100.524 195.289 102.166 194.273C103.461 193.605 104.911 193.295 106.366 193.376Z" fill="#FDFCEF"/>
<path d="M98.2204 217.863C98.3186 215.654 99.2651 213.568 100.863 212.04C102.461 210.511 104.587 209.658 106.798 209.658C109.009 209.658 111.135 210.511 112.733 212.04C114.33 213.568 115.277 215.654 115.375 217.863C115.4 218.631 115.326 219.4 115.155 220.149L114.986 220.759L114.816 220.149C114.338 218.417 113.304 216.889 111.874 215.8C110.444 214.712 108.697 214.122 106.899 214.122C105.102 214.122 103.354 214.712 101.924 215.8C100.494 216.889 99.4609 218.417 98.9825 220.149L98.8131 220.759L98.6268 220.149C98.3929 219.408 98.2563 218.639 98.2204 217.863ZM115.019 217.863C114.923 215.747 114.015 213.75 112.484 212.286C110.953 210.823 108.916 210.006 106.798 210.006C104.68 210.006 102.643 210.823 101.112 212.286C99.5803 213.75 98.6721 215.747 98.576 217.863C98.5765 218.397 98.6275 218.93 98.7284 219.455C99.3264 217.797 100.421 216.363 101.864 215.35C103.306 214.336 105.026 213.793 106.789 213.793C108.552 213.793 110.272 214.336 111.715 215.35C113.157 216.363 114.252 217.797 114.85 219.455C114.971 218.933 115.033 218.399 115.036 217.863H115.019Z" fill="#FDFCEF" stroke="#FDFCEF" stroke-width="0.75" stroke-miterlimit="10"/>
<path d="M14.9193 163.368C14.9193 163.673 14.798 163.966 14.5821 164.182C14.3661 164.398 14.0732 164.519 13.7678 164.519C13.4624 164.519 13.1695 164.398 12.9535 164.182C12.7376 163.966 12.6162 163.673 12.6162 163.368C12.6162 163.062 12.7376 162.769 12.9535 162.553C13.1695 162.337 13.4624 162.216 13.7678 162.216C14.0732 162.216 14.3661 162.337 14.5821 162.553C14.798 162.769 14.9193 163.062 14.9193 163.368Z" fill="#FDFCEF"/>
<path d="M14.9193 166.839C14.9193 167.067 14.8518 167.29 14.7253 167.479C14.5987 167.668 14.4189 167.816 14.2085 167.903C13.9981 167.99 13.7665 168.013 13.5431 167.969C13.3198 167.924 13.1146 167.815 12.9535 167.654C12.7925 167.493 12.6828 167.287 12.6384 167.064C12.5939 166.841 12.6167 166.609 12.7039 166.399C12.7911 166.188 12.9387 166.008 13.128 165.882C13.3174 165.755 13.54 165.688 13.7678 165.688C14.0732 165.688 14.3661 165.809 14.5821 166.025C14.798 166.241 14.9193 166.534 14.9193 166.839Z" fill="#FDFCEF"/>
<path d="M14.9193 170.311C14.9193 170.538 14.8518 170.761 14.7253 170.95C14.5987 171.14 14.4189 171.287 14.2085 171.375C13.9981 171.462 13.7665 171.485 13.5431 171.44C13.3198 171.396 13.1146 171.286 12.9535 171.125C12.7925 170.964 12.6828 170.759 12.6384 170.535C12.5939 170.312 12.6167 170.08 12.7039 169.87C12.7911 169.66 12.9387 169.48 13.128 169.353C13.3174 169.227 13.54 169.159 13.7678 169.159C14.0732 169.159 14.3661 169.28 14.5821 169.496C14.798 169.712 14.9193 170.005 14.9193 170.311Z" fill="#FDFCEF"/>
<path d="M14.9193 173.799C14.9193 174.105 14.798 174.398 14.5821 174.614C14.3661 174.829 14.0732 174.951 13.7678 174.951C13.4624 174.951 13.1695 174.829 12.9535 174.614C12.7376 174.398 12.6162 174.105 12.6162 173.799C12.6162 173.494 12.7376 173.201 12.9535 172.985C13.1695 172.769 13.4624 172.648 13.7678 172.648C14.0732 172.648 14.3661 172.769 14.5821 172.985C14.798 173.201 14.9193 173.494 14.9193 173.799Z" fill="#FDFCEF"/>
<path d="M14.9193 177.271C14.9193 177.499 14.8518 177.721 14.7253 177.911C14.5987 178.1 14.4189 178.248 14.2085 178.335C13.9981 178.422 13.7665 178.445 13.5431 178.4C13.3198 178.356 13.1146 178.246 12.9535 178.085C12.7925 177.924 12.6828 177.719 12.6384 177.496C12.5939 177.272 12.6167 177.041 12.7039 176.83C12.7911 176.62 12.9387 176.44 13.128 176.313C13.3174 176.187 13.54 176.119 13.7678 176.119C14.0732 176.119 14.3661 176.241 14.5821 176.457C14.798 176.673 14.9193 176.966 14.9193 177.271Z" fill="#FDFCEF"/>
<path d="M14.9193 180.742C14.9193 180.97 14.8518 181.193 14.7253 181.382C14.5987 181.572 14.4189 181.719 14.2085 181.806C13.9981 181.893 13.7665 181.916 13.5431 181.872C13.3198 181.827 13.1146 181.718 12.9535 181.557C12.7925 181.396 12.6828 181.19 12.6384 180.967C12.5939 180.744 12.6167 180.512 12.7039 180.302C12.7911 180.091 12.9387 179.911 13.128 179.785C13.3174 179.658 13.54 179.591 13.7678 179.591C14.0732 179.591 14.3661 179.712 14.5821 179.928C14.798 180.144 14.9193 180.437 14.9193 180.742Z" fill="#FDFCEF"/>
<path d="M14.9193 184.231C14.916 184.458 14.8456 184.679 14.7171 184.866C14.5885 185.053 14.4076 185.198 14.1969 185.283C13.9862 185.367 13.7552 185.388 13.5329 185.341C13.3107 185.295 13.1071 185.184 12.9477 185.022C12.7884 184.861 12.6804 184.655 12.6373 184.433C12.5942 184.21 12.618 183.979 12.7056 183.77C12.7932 183.56 12.9408 183.381 13.1298 183.255C13.3188 183.13 13.5408 183.063 13.7678 183.062C14.0747 183.067 14.3676 183.192 14.5831 183.411C14.7986 183.629 14.9194 183.924 14.9193 184.231Z" fill="#FDFCEF"/>
<path d="M14.9193 187.703C14.9193 188.008 14.798 188.301 14.5821 188.517C14.3661 188.733 14.0732 188.854 13.7678 188.854C13.4624 188.854 13.1695 188.733 12.9535 188.517C12.7376 188.301 12.6162 188.008 12.6162 187.703C12.6162 187.397 12.7376 187.104 12.9535 186.888C13.1695 186.672 13.4624 186.551 13.7678 186.551C14.0732 186.551 14.3661 186.672 14.5821 186.888C14.798 187.104 14.9193 187.397 14.9193 187.703Z" fill="#FDFCEF"/>
<path d="M14.9193 191.174C14.9193 191.402 14.8518 191.624 14.7253 191.814C14.5987 192.003 14.4189 192.151 14.2085 192.238C13.9981 192.325 13.7665 192.348 13.5431 192.303C13.3198 192.259 13.1146 192.149 12.9535 191.988C12.7925 191.827 12.6828 191.622 12.6384 191.399C12.5939 191.175 12.6167 190.944 12.7039 190.733C12.7911 190.523 12.9387 190.343 13.128 190.217C13.3174 190.09 13.54 190.022 13.7678 190.022C14.0732 190.022 14.3661 190.144 14.5821 190.36C14.798 190.576 14.9193 190.869 14.9193 191.174Z" fill="#FDFCEF"/>
<path d="M14.9193 194.646C14.9193 194.873 14.8518 195.096 14.7253 195.285C14.5987 195.475 14.4189 195.622 14.2085 195.71C13.9981 195.797 13.7665 195.82 13.5431 195.775C13.3198 195.731 13.1146 195.621 12.9535 195.46C12.7925 195.299 12.6828 195.094 12.6384 194.87C12.5939 194.647 12.6167 194.415 12.7039 194.205C12.7911 193.995 12.9387 193.815 13.128 193.688C13.3174 193.562 13.54 193.494 13.7678 193.494C14.0732 193.494 14.3661 193.615 14.5821 193.831C14.798 194.047 14.9193 194.34 14.9193 194.646Z" fill="#FDFCEF"/>
<path d="M14.9193 198.134C14.9193 198.44 14.798 198.733 14.5821 198.948C14.3661 199.164 14.0732 199.286 13.7678 199.286C13.4624 199.286 13.1695 199.164 12.9535 198.948C12.7376 198.733 12.6162 198.44 12.6162 198.134C12.6162 197.829 12.7376 197.536 12.9535 197.32C13.1695 197.104 13.4624 196.983 13.7678 196.983C14.0732 196.983 14.3661 197.104 14.5821 197.32C14.798 197.536 14.9193 197.829 14.9193 198.134Z" fill="#FDFCEF"/>
<path d="M14.9193 201.606C14.9193 201.911 14.798 202.204 14.5821 202.42C14.3661 202.636 14.0732 202.757 13.7678 202.757C13.4624 202.757 13.1695 202.636 12.9535 202.42C12.7376 202.204 12.6162 201.911 12.6162 201.606C12.6162 201.3 12.7376 201.008 12.9535 200.792C13.1695 200.576 13.4624 200.454 13.7678 200.454C14.0732 200.454 14.3661 200.576 14.5821 200.792C14.798 201.008 14.9193 201.3 14.9193 201.606Z" fill="#FDFCEF"/>
<path d="M23.9116 220.149H3.59012L13.7508 204.908L23.9116 220.149ZM5.08036 219.421H22.4383L13.7678 206.398L5.08036 219.421Z" fill="#FDFCEF"/>
<path d="M209.988 220.759H189.667L199.828 205.518L209.988 220.759ZM191.174 219.963H208.515L199.828 206.94L191.174 219.963Z" fill="#FDFCEF"/>
<path d="M201.013 163.368C201.013 163.673 200.892 163.966 200.676 164.182C200.46 164.398 200.167 164.519 199.862 164.519C199.556 164.519 199.263 164.398 199.047 164.182C198.831 163.966 198.71 163.673 198.71 163.368C198.71 163.062 198.831 162.769 199.047 162.553C199.263 162.337 199.556 162.216 199.862 162.216C200.167 162.216 200.46 162.337 200.676 162.553C200.892 162.769 201.013 163.062 201.013 163.368Z" fill="#FDFCEF"/>
<path d="M201.013 166.839C201.013 167.067 200.946 167.29 200.819 167.479C200.693 167.668 200.513 167.816 200.302 167.903C200.092 167.99 199.86 168.013 199.637 167.969C199.414 167.924 199.208 167.815 199.047 167.654C198.886 167.493 198.777 167.287 198.732 167.064C198.688 166.841 198.711 166.609 198.798 166.399C198.885 166.188 199.032 166.008 199.222 165.882C199.411 165.755 199.634 165.688 199.862 165.688C200.013 165.688 200.163 165.718 200.302 165.775C200.442 165.833 200.569 165.918 200.676 166.025C200.783 166.132 200.868 166.259 200.925 166.399C200.983 166.538 201.013 166.688 201.013 166.839Z" fill="#FDFCEF"/>
<path d="M201.013 170.311C201.013 170.538 200.946 170.761 200.819 170.95C200.693 171.14 200.513 171.287 200.302 171.375C200.092 171.462 199.86 171.485 199.637 171.44C199.414 171.396 199.208 171.286 199.047 171.125C198.886 170.964 198.777 170.759 198.732 170.535C198.688 170.312 198.711 170.08 198.798 169.87C198.885 169.66 199.032 169.48 199.222 169.353C199.411 169.227 199.634 169.159 199.862 169.159C200.013 169.159 200.163 169.189 200.302 169.247C200.442 169.305 200.569 169.39 200.676 169.496C200.783 169.603 200.868 169.73 200.925 169.87C200.983 170.01 201.013 170.16 201.013 170.311Z" fill="#FDFCEF"/>
<path d="M201.013 173.799C201.013 174.105 200.892 174.398 200.676 174.614C200.46 174.829 200.167 174.951 199.862 174.951C199.556 174.951 199.263 174.829 199.047 174.614C198.831 174.398 198.71 174.105 198.71 173.799C198.71 173.494 198.831 173.201 199.047 172.985C199.263 172.769 199.556 172.648 199.862 172.648C200.167 172.648 200.46 172.769 200.676 172.985C200.892 173.201 201.013 173.494 201.013 173.799Z" fill="#FDFCEF"/>
<path d="M201.013 177.271C201.013 177.497 200.946 177.718 200.821 177.907C200.696 178.096 200.518 178.243 200.31 178.331C200.101 178.419 199.871 178.444 199.649 178.402C199.427 178.36 199.222 178.254 199.059 178.096C198.897 177.939 198.785 177.737 198.736 177.516C198.688 177.295 198.706 177.064 198.788 176.853C198.87 176.642 199.013 176.46 199.197 176.33C199.382 176.199 199.602 176.126 199.828 176.119C199.982 176.115 200.135 176.141 200.279 176.197C200.422 176.253 200.553 176.337 200.664 176.444C200.775 176.552 200.862 176.68 200.922 176.822C200.982 176.964 201.013 177.117 201.013 177.271Z" fill="#FDFCEF"/>
<path d="M201.013 180.742C201.013 180.97 200.946 181.193 200.819 181.382C200.693 181.572 200.513 181.719 200.302 181.806C200.092 181.893 199.86 181.916 199.637 181.872C199.414 181.827 199.208 181.718 199.047 181.557C198.886 181.396 198.777 181.19 198.732 180.967C198.688 180.744 198.711 180.512 198.798 180.302C198.885 180.091 199.032 179.911 199.222 179.785C199.411 179.658 199.634 179.591 199.862 179.591C200.013 179.591 200.163 179.621 200.302 179.678C200.442 179.736 200.569 179.821 200.676 179.928C200.783 180.035 200.868 180.162 200.925 180.302C200.983 180.441 201.013 180.591 201.013 180.742Z" fill="#FDFCEF"/>
<path d="M201.013 184.231C201.01 184.458 200.939 184.679 200.811 184.866C200.682 185.053 200.501 185.198 200.291 185.283C200.08 185.367 199.849 185.388 199.627 185.341C199.404 185.295 199.201 185.184 199.042 185.022C198.882 184.861 198.774 184.655 198.731 184.433C198.688 184.21 198.712 183.979 198.799 183.77C198.887 183.56 199.035 183.381 199.224 183.255C199.413 183.13 199.635 183.063 199.862 183.062C200.169 183.067 200.461 183.192 200.677 183.411C200.892 183.629 201.013 183.924 201.013 184.231Z" fill="#FDFCEF"/>
<path d="M201.013 187.703C201.013 188.008 200.892 188.301 200.676 188.517C200.46 188.733 200.167 188.854 199.862 188.854C199.556 188.854 199.263 188.733 199.047 188.517C198.831 188.301 198.71 188.008 198.71 187.703C198.71 187.397 198.831 187.104 199.047 186.888C199.263 186.672 199.556 186.551 199.862 186.551C200.167 186.551 200.46 186.672 200.676 186.888C200.892 187.104 201.013 187.397 201.013 187.703Z" fill="#FDFCEF"/>
<path d="M201.013 191.174C201.013 191.402 200.946 191.624 200.819 191.814C200.693 192.003 200.513 192.151 200.302 192.238C200.092 192.325 199.86 192.348 199.637 192.303C199.414 192.259 199.208 192.149 199.047 191.988C198.886 191.827 198.777 191.622 198.732 191.399C198.688 191.175 198.711 190.944 198.798 190.733C198.885 190.523 199.032 190.343 199.222 190.217C199.411 190.09 199.634 190.022 199.862 190.022C200.013 190.022 200.163 190.052 200.302 190.11C200.442 190.168 200.569 190.253 200.676 190.36C200.783 190.467 200.868 190.594 200.925 190.733C200.983 190.873 201.013 191.023 201.013 191.174Z" fill="#FDFCEF"/>
<path d="M201.013 194.646C201.013 194.873 200.946 195.096 200.819 195.285C200.693 195.475 200.513 195.622 200.302 195.71C200.092 195.797 199.86 195.82 199.637 195.775C199.414 195.731 199.208 195.621 199.047 195.46C198.886 195.299 198.777 195.094 198.732 194.87C198.688 194.647 198.711 194.415 198.798 194.205C198.885 193.995 199.032 193.815 199.222 193.688C199.411 193.562 199.634 193.494 199.862 193.494C200.013 193.494 200.163 193.524 200.302 193.582C200.442 193.64 200.569 193.724 200.676 193.831C200.783 193.938 200.868 194.065 200.925 194.205C200.983 194.345 201.013 194.494 201.013 194.646Z" fill="#FDFCEF"/>
<path d="M201.013 198.134C201.013 198.44 200.892 198.733 200.676 198.948C200.46 199.164 200.167 199.286 199.862 199.286C199.556 199.286 199.263 199.164 199.047 198.948C198.831 198.733 198.71 198.44 198.71 198.134C198.71 197.829 198.831 197.536 199.047 197.32C199.263 197.104 199.556 196.983 199.862 196.983C200.167 196.983 200.46 197.104 200.676 197.32C200.892 197.536 201.013 197.829 201.013 198.134Z" fill="#FDFCEF"/>
<path d="M201.013 201.606C201.013 201.911 200.892 202.204 200.676 202.42C200.46 202.636 200.167 202.757 199.862 202.757C199.556 202.757 199.263 202.636 199.047 202.42C198.831 202.204 198.71 201.911 198.71 201.606C198.71 201.3 198.831 201.008 199.047 200.792C199.263 200.576 199.556 200.454 199.862 200.454C200.167 200.454 200.46 200.576 200.676 200.792C200.892 201.008 201.013 201.3 201.013 201.606Z" fill="#FDFCEF"/>
<path d="M213.629 160.37H0L106.806 0L213.629 160.37ZM5.91016 157.203H207.719L106.806 5.70694L5.91016 157.203Z" fill="#FDFCEF"/>
<path d="M27.5186 150.599C26.2854 150.599 25.0798 150.233 24.0546 149.547C23.0294 148.862 22.2307 147.888 21.7595 146.748C21.2883 145.608 21.1659 144.354 21.4077 143.145C21.6496 141.936 22.2448 140.825 23.118 139.954C23.9913 139.083 25.1033 138.491 26.3133 138.253C27.5233 138.014 28.7768 138.14 29.9152 138.614C31.0537 139.089 32.0258 139.89 32.7085 140.917C33.3913 141.944 33.7539 143.151 33.7506 144.384C33.7506 145.201 33.5892 146.011 33.2759 146.766C32.9625 147.521 32.5032 148.207 31.9242 148.785C31.3453 149.362 30.6582 149.819 29.9022 150.131C29.1462 150.442 28.3362 150.601 27.5186 150.599ZM27.5186 139.744C26.6016 139.747 25.7062 140.022 24.9454 140.534C24.1846 141.046 23.5925 141.772 23.2439 142.62C22.8953 143.468 22.8058 144.4 22.9867 145.299C23.1677 146.198 23.6109 147.024 24.2605 147.671C24.9101 148.318 25.7369 148.758 26.6366 148.936C27.5362 149.114 28.4683 149.021 29.3151 148.669C30.162 148.317 30.8857 147.723 31.3948 146.96C31.9039 146.197 32.1756 145.301 32.1756 144.384C32.1756 143.773 32.0551 143.168 31.8208 142.604C31.5866 142.04 31.2433 141.528 30.8106 141.097C30.3779 140.666 29.8644 140.324 29.2995 140.092C28.7346 139.86 28.1294 139.742 27.5186 139.744Z" fill="#FDFCEF"/>
<path d="M186.094 150.599C184.86 150.602 183.653 150.239 182.625 149.556C181.598 148.872 180.796 147.899 180.323 146.76C179.849 145.62 179.724 144.366 179.964 143.156C180.204 141.945 180.798 140.833 181.67 139.961C182.543 139.088 183.655 138.494 184.865 138.254C186.076 138.014 187.33 138.139 188.47 138.613C189.609 139.087 190.582 139.888 191.266 140.915C191.949 141.943 192.312 143.15 192.309 144.384C192.309 146.032 191.654 147.613 190.488 148.779C189.323 149.944 187.742 150.599 186.094 150.599ZM186.094 139.744C185.176 139.744 184.279 140.016 183.516 140.526C182.753 141.036 182.158 141.761 181.807 142.608C181.456 143.456 181.364 144.389 181.543 145.289C181.722 146.189 182.164 147.016 182.813 147.665C183.462 148.314 184.288 148.756 185.189 148.935C186.089 149.114 187.022 149.022 187.869 148.671C188.717 148.32 189.442 147.725 189.952 146.962C190.462 146.199 190.734 145.302 190.734 144.384C190.734 143.775 190.614 143.171 190.381 142.608C190.147 142.045 189.806 141.534 189.375 141.103C188.944 140.672 188.432 140.33 187.869 140.097C187.307 139.864 186.703 139.744 186.094 139.744Z" fill="#FDFCEF"/>
<path d="M106.366 46.333L97.1197 25.368L106.755 9.4834L116.51 24.9108L106.366 46.333Z" fill="#FDFCEF"/>
<path d="M41.1006 46.3284L40.26 47.6602L65.8363 63.8038L66.6769 62.472L41.1006 46.3284Z" fill="#FDFCEF"/>
<path d="M60.2552 27.1567L59.4205 28.4954L80.4794 41.6262L81.3141 40.2876L60.2552 27.1567Z" fill="#FDFCEF"/>
<path d="M49.8976 35.6572L49.085 37.0063L73.8043 51.8944L74.6168 50.5453L49.8976 35.6572Z" fill="#FDFCEF"/>
<path d="M33.6285 57.3574L32.8147 58.7058L58.1299 73.9829L58.9437 72.6345L33.6285 57.3574Z" fill="#FDFCEF"/>
<path d="M28.5636 70.0015L27.7454 71.3472L51.5194 85.802L52.3376 84.4563L28.5636 70.0015Z" fill="#FDFCEF"/>
<path d="M172.726 46.3311L147.142 62.4614L147.982 63.7937L173.566 47.6634L172.726 46.3311Z" fill="#FDFCEF"/>
<path d="M153.563 27.3032L132.569 40.4578L133.405 41.7923L154.399 28.6378L153.563 27.3032Z" fill="#FDFCEF"/>
<path d="M163.921 35.6592L139.19 50.5603L140.011 51.9238L164.743 37.0226L163.921 35.6592Z" fill="#FDFCEF"/>
<path d="M179.423 58.0608L154.878 72.6462L155.682 74.0002L180.228 59.4147L179.423 58.0608Z" fill="#FDFCEF"/>
<path d="M185.056 70.5497L161.472 84.4309L162.271 85.7882L185.855 71.907L185.056 70.5497Z" fill="#FDFCEF"/>
<path d="M158.575 159.574H55.0373L54.8171 159.405C41.4287 148.642 31.7104 133.99 27.0032 117.47C22.296 100.949 22.8319 83.3751 28.537 67.1722C34.242 50.9693 44.8351 36.9363 58.8544 27.0096C72.8737 17.0829 89.6283 11.7517 106.806 11.7517C123.984 11.7517 140.739 17.0829 154.758 27.0096C168.777 36.9363 179.37 50.9693 185.075 67.1722C190.781 83.3751 191.316 100.949 186.609 117.47C181.902 133.99 172.184 148.642 158.795 159.405L158.575 159.574ZM55.5961 157.999H158.016C171.087 147.414 180.557 133.038 185.122 116.849C189.687 100.661 189.124 83.4558 183.509 67.6008C177.894 51.7459 167.504 38.0205 153.768 28.3131C140.032 18.6058 123.626 13.3935 106.806 13.3935C89.9864 13.3935 73.5799 18.6058 59.8441 28.3131C46.1083 38.0205 35.7182 51.7459 30.1034 67.6008C24.4886 83.4558 23.925 100.661 28.4902 116.849C33.0554 133.038 42.525 147.414 55.5961 157.999Z" fill="#FDFCEF"/>
</g>
<defs>
<clipPath id="clip0_155_131">
<rect width="213.629" height="223.163" fill="white"/>
</clipPath>
</defs>
</svg>
