<svg width="166" height="144" viewBox="0 0 166 144" fill="none" xmlns="http://www.w3.org/2000/svg">
<g clip-path="url(#clip0_156_149)">
<path d="M123.9 72C139.7 57.2 142.5 52.2 151.2 39.2C157.3 30 157.5 18.1 151.8 8.69995C141.9 35.7 139.6 44.9 120.9 66.8" stroke="#FDFCEF" stroke-linecap="round" stroke-linejoin="round"/>
<path d="M126.9 77.1999C142.4 66.1999 143.7 65.6 152.8 57C159.3 50.9 161.6 41.6 158.7 33.2C146.1 52.6 141.6 57.8 124.8 72.5" stroke="#FDFCEF" stroke-linecap="round" stroke-linejoin="round"/>
<path d="M129.5 81.6999C145.3 75.3999 145.3 75.4 154.8 69.9C161.5 65.9 165.3 58.5 164.5 50.7C150 64.8 144.8 68.5 127.4 77.9" stroke="#FDFCEF" stroke-linecap="round" stroke-linejoin="round"/>
<path d="M131.7 85.5C146 83.7 144.6 83.7 153.5 80.6C159.9 78.4 164.4 72.7 165.1 66C150.3 75.4 146.6 77.2 129.9 82.4" stroke="#FDFCEF" stroke-linecap="round" stroke-linejoin="round"/>
<path d="M134.7 90.6C142.4 90.6 142.4 90.6 148.6 89.8C154 89.1 158.5 85.4 160.2 80.2C146.9 85.1 146.9 85.1 132.6 86.9" stroke="#FDFCEF" stroke-linecap="round" stroke-linejoin="round"/>
<path d="M138.3 96.9001C142.9 97.4001 151.9 95.0001 154.2 91.1001C142.3 92.7001 147.5 92.4001 135.4 91.9001" stroke="#FDFCEF" stroke-linecap="round" stroke-linejoin="round"/>
<path d="M41.6 71.5999C26.1 57.3999 23 52.2 14.4 39.2C8.2 30 8 18.1 13.8 8.69995C23.7 35.7 25.4 44.1 44.1 66" stroke="#FDFCEF" stroke-linecap="round" stroke-linejoin="round"/>
<path d="M38.7 76.5999C23.2 66.3999 21.9 65.6 12.8 57C6.29999 50.9 3.99999 41.6 6.79999 33.2C19.4 52.6 24.2 58.5999 40.6 73.1999" stroke="#FDFCEF" stroke-linecap="round" stroke-linejoin="round"/>
<path d="M35.7 81.6999C21.2 75.9999 20.3 75.5 10.8 69.9C4.1 65.9 0.3 58.5 1.1 50.7C15.6 64.8 20.1 68.1 37.9 77.8" stroke="#FDFCEF" stroke-linecap="round" stroke-linejoin="round"/>
<path d="M33.3 86C21.2 84.1 21.1 83.7 12.1 80.6C5.7 78.4 1.2 72.7 0.5 66C15.3 75.4 18.5 76.6 35.4 82.3" stroke="#FDFCEF" stroke-linecap="round" stroke-linejoin="round"/>
<path d="M30.6 90.6C20.7 90.3 24.7 90.7 17 89.8C11.6 89.1 7.09999 85.4 5.39999 80.2C18.7 85.1 19.1 85.4 32.7 86.8" stroke="#FDFCEF" stroke-linecap="round" stroke-linejoin="round"/>
<path d="M27 96.9001C22.4 97.4001 13.8 95.0001 11.5 91.1001C23.4 92.7001 18.4 92.9001 29.9 91.9001" stroke="#FDFCEF" stroke-linecap="round" stroke-linejoin="round"/>
<path d="M0.5 142.7L82.6 0.5L164.7 142.7H0.5Z" stroke="#FDFCEF" stroke-linecap="round" stroke-linejoin="round"/>
<path d="M10.4 137L82.6 11.8999L154.9 137H10.4Z" stroke="#FDFCEF" stroke-linecap="round" stroke-linejoin="round"/>
<path d="M10.4 137L82.6 11.8999L154.9 137H10.4Z" stroke="#FDFCEF" stroke-linecap="round" stroke-linejoin="round"/>
</g>
<defs>
<clipPath id="clip0_156_149">
<rect width="165.6" height="143.2" fill="white"/>
</clipPath>
</defs>
</svg>
