<svg id="Capa_1" data-name="Capa 1" xmlns="http://www.w3.org/2000/svg" viewBox="0 0 328.46 328.46"><defs><style>.cls-1{fill:none;stroke:#FDFCEE;stroke-linecap:round;stroke-linejoin:round;stroke-width:3px;}</style></defs><title>inspiration</title><circle class="cls-1" cx="164.23" cy="164.23" r="64.14"/><line class="cls-1" x1="164.23" y1="83.42" x2="164.23" y2="1.5"/><line class="cls-1" x1="164.23" y1="326.96" x2="164.23" y2="245.04"/><line class="cls-1" x1="83.42" y1="164.23" x2="1.5" y2="164.23"/><line class="cls-1" x1="326.96" y1="164.23" x2="245.04" y2="164.23"/><line class="cls-1" x1="107.09" y1="107.09" x2="66.18" y2="66.18"/><line class="cls-1" x1="262.28" y1="262.28" x2="221.37" y2="221.37"/><line class="cls-1" x1="107.09" y1="221.37" x2="66.18" y2="262.28"/><line class="cls-1" x1="262.28" y1="66.18" x2="221.37" y2="107.09"/><line class="cls-1" x1="134.07" y1="89.26" x2="112.47" y2="35.59"/><line class="cls-1" x1="216" y1="292.87" x2="194.4" y2="239.2"/><line class="cls-1" x1="89.26" y1="194.4" x2="35.59" y2="216"/><line class="cls-1" x1="292.87" y1="112.47" x2="239.2" y2="134.07"/><line class="cls-1" x1="89.89" y1="132.55" x2="36.67" y2="109.87"/><line class="cls-1" x1="291.8" y1="218.59" x2="238.57" y2="195.91"/><line class="cls-1" x1="132.55" y1="238.57" x2="109.87" y2="291.8"/><line class="cls-1" x1="218.59" y1="36.67" x2="195.91" y2="89.89"/><line class="cls-1" x1="98.25" y1="117.58" x2="73.52" y2="100.09"/><line class="cls-1" x1="254.95" y1="228.38" x2="230.21" y2="210.89"/><line class="cls-1" x1="117.58" y1="230.21" x2="100.09" y2="254.95"/><line class="cls-1" x1="228.38" y1="73.52" x2="210.89" y2="98.25"/><line class="cls-1" x1="85.11" y1="147.82" x2="55.45" y2="141.67"/><line class="cls-1" x1="273.02" y1="186.79" x2="243.36" y2="180.64"/><line class="cls-1" x1="147.82" y1="243.36" x2="141.67" y2="273.02"/><line class="cls-1" x1="186.79" y1="55.45" x2="180.64" y2="85.11"/><line class="cls-1" x1="84.59" y1="177.9" x2="54.73" y2="183.02"/><line class="cls-1" x1="273.73" y1="145.44" x2="243.88" y2="150.57"/><line class="cls-1" x1="177.9" y1="243.88" x2="183.02" y2="273.73"/><line class="cls-1" x1="145.44" y1="54.73" x2="150.57" y2="84.59"/><line class="cls-1" x1="120.05" y1="96.57" x2="103.48" y2="71.21"/><line class="cls-1" x1="224.98" y1="257.25" x2="208.42" y2="231.89"/><line class="cls-1" x1="96.57" y1="208.42" x2="71.21" y2="224.98"/><line class="cls-1" x1="257.25" y1="103.48" x2="231.89" y2="120.05"/><path class="cls-1" d="M123,164.23a55.13,55.13,0,0,1,86.92-45,64.15,64.15,0,1,0,0,90.11A55.14,55.14,0,0,1,123,164.23Z"/></svg>