<svg width="75" height="93" viewBox="0 0 75 93" fill="none" xmlns="http://www.w3.org/2000/svg">
<path d="M31.1692 15.9045C30.3234 15.2189 30.0485 14.5795 29.596 14.1252C28.9344 13.3801 28.4386 12.5042 28.1413 11.5551C27.452 9.67478 26.9995 7.70197 24.864 6.83965C24.8181 6.79413 24.7841 6.73814 24.7649 6.67655C24.7458 6.61497 24.742 6.54966 24.754 6.48631C24.8302 6.33488 25.0035 6.11193 25.1177 6.12455C25.583 6.14441 26.0431 6.23083 26.4836 6.38115C27.3388 6.6802 28.1204 7.15661 28.7766 7.77882C29.4327 8.40103 29.9484 9.15482 30.2896 9.99026C30.8693 11.3369 31.799 12.5057 32.9833 13.3764C33.1102 13.4185 33.0425 13.3344 32.9833 13.2545L32.793 13.4606C32.8718 13.5309 32.9568 13.5943 33.0467 13.6499C33.0467 13.6499 33.1313 13.5657 32.9875 13.3975C32.8154 12.5195 32.7501 11.6241 32.793 10.7306C32.8226 9.88931 32.239 9.25414 32.3025 8.37499C32.3448 7.81554 31.7781 7.21823 31.5371 6.61671C31.4863 6.49472 31.6428 6.24654 31.7654 6.11614C31.8249 6.08096 31.8928 6.06239 31.9621 6.06239C32.0313 6.06239 32.0992 6.08096 32.1587 6.11614C33.0045 6.95743 33.994 7.73141 34.0786 9.11533C34.1627 9.90143 34.3285 10.6768 34.5733 11.4289C34.7381 11.8911 34.933 12.3422 35.1569 12.7791C35.1722 12.3094 35.2303 11.8419 35.3303 11.3826C35.8039 9.89352 35.9815 8.32031 36.785 6.93219C37.5634 5.67787 37.9436 4.2193 37.876 2.74679C37.8507 2.30091 36.8907 2.04011 37.6265 1.56899C37.728 1.50169 38.3581 2.09479 38.6245 2.46496C39.0969 3.08219 39.4137 3.80304 39.5483 4.56711C39.683 5.33118 39.6316 6.11623 39.3984 6.85647C38.9206 8.43809 38.7218 10.0702 38.3116 11.6602C38.2566 11.8747 38.4385 12.1524 38.5104 12.4005C38.5568 12.2113 38.6278 12.0289 38.7218 11.8579C39.39 11.0166 40.0243 10.1249 40.7643 9.33406C41.5044 8.54325 42.2021 7.71879 42.1175 6.51155C42.1175 6.37694 42.3205 6.22971 42.4305 6.0909C42.6039 6.24233 42.9168 6.38535 42.921 6.5452C42.9929 8.10999 42.921 9.59065 41.775 10.9199C41.2972 11.4751 41.1322 12.3459 40.5402 12.9221C40.4303 13.0315 40.4683 13.2881 40.4345 13.4774C40.5867 13.4522 40.7939 13.4774 40.8574 13.3891C42.3501 11.778 44.3334 11.0419 46.3252 10.2595C47.6573 9.73788 49.1205 9.21628 49.7083 7.65149C49.7463 7.54633 49.8605 7.46641 49.9409 7.37807C50.0206 7.48137 50.0808 7.59825 50.1185 7.723C50.2707 9.19104 49.7886 10.2469 48.5961 11.2985C46.8158 12.8759 44.6718 13.8223 42.8238 15.2609C42.718 15.3451 42.7138 15.5512 42.6588 15.6816C42.7942 15.7068 42.9675 15.7909 43.0521 15.7363C44.3757 14.895 45.8601 14.9244 47.3571 14.895C48.1267 14.8697 48.8879 14.5374 49.6533 14.3397C49.8943 14.2766 50.1354 14.1925 50.3764 14.121L50.1311 14.7225C49.611 15.9382 48.4396 16.2494 47.3571 16.5986C46.2745 16.9477 45.0566 17.1706 43.9063 17.4399C43.724 17.4975 43.546 17.5678 43.3735 17.6502C43.5553 17.7175 43.7499 17.8647 43.919 17.8437C46.3168 17.5408 48.3297 18.685 50.4103 19.5262C51.07 19.8039 51.7381 20.0689 52.4105 20.3128C53.1801 20.5989 53.8314 20.1151 54.5249 19.9637C54.725 19.9593 54.9237 19.9965 55.1085 20.0731C55.0365 20.226 54.9425 20.3678 54.8294 20.4937C54.3727 20.9144 48.6722 21.2719 52.4781 22.4287C52.5965 22.8073 54.212 23.27 54.7321 23.5434C57.0474 24.9724 59.2887 26.5167 61.4475 28.1705C63.5619 29.7857 65.08 31.6955 66.7462 33.6388C68.4019 35.6789 69.7456 37.9511 70.7339 40.3817C71.8334 42.8215 73.1824 45.0761 73.6518 47.7514C73.9267 49.3204 74.1466 50.3972 74.4426 51.9578C74.4807 51.7012 74.2185 57.8006 74.2227 61.6663C73.5165 64.3794 73.5419 65.8727 72.3155 68.4723C69.829 73.7303 68.277 77.9494 61.3798 84.1581C57.2863 87.8387 46.211 92.8948 38.2397 92.7855C28.45 92.6551 26.4963 90.7622 19.3242 87.927C12.6385 85.2854 5.39454 74.6726 2.83188 68.0264C0.937368 63.1175 1.56323 64.0219 0.865479 56.1979C1.05578 50.8095 1.2207 52.3112 1.41945 50.2122C1.88885 47.7262 2.41745 44.9878 3.53386 42.5438C4.50591 40.2075 5.67291 37.9562 7.02263 35.8135C7.47151 35.0568 7.97612 34.3341 8.53232 33.6514C9.88976 32.0867 11.2853 30.6354 12.7865 29.2137C14.1266 27.8399 15.611 26.613 17.2141 25.5541C19.4215 24.1954 21.5697 23.1354 23.9125 21.9786C24.4327 21.7178 26.6528 21.0952 27.1983 20.8681C27.3421 20.7924 24.8682 19.8964 24.7498 19.8501C23.1725 19.3496 22.221 18.4242 20.4153 18.7396C20.0981 18.7943 19.8063 19.0509 19.5019 19.0551C19.3073 19.0551 19.1043 18.7775 18.9056 18.6345C18.9936 18.5211 19.0943 18.418 19.2058 18.3274C21.519 16.8131 21.9926 16.771 25.0627 17.4861C26.1073 17.7217 27.2025 17.7595 28.264 17.932C28.7122 18.0077 29.1097 18.2307 29.5749 18.3274C29.7483 18.3695 29.9555 18.2517 30.1458 18.2054C30.0231 18.1087 29.9047 18.0077 29.7736 17.9236C29.1689 17.503 28.4331 17.2295 27.9764 16.6953C26.8972 15.491 25.506 14.6049 23.9548 14.1336C23.7983 14.0621 23.6419 13.9822 23.4896 13.8938L24.0478 13.7172H26.0269C26.7966 13.5826 27.2533 14.0957 27.8538 14.4238C28.7587 14.916 29.4607 15.8877 31.1565 15.9466C31.3383 15.9466 31.1945 15.8624 31.0381 15.8246C30.9089 15.8078 30.7781 15.8078 30.649 15.8246C30.7463 15.9634 30.8182 16.1821 30.945 16.2452C30.9894 16.2601 31.0375 16.26 31.0818 16.2447C31.126 16.2295 31.164 16.2001 31.1896 16.1611C31.2153 16.1221 31.2272 16.0758 31.2235 16.0293C31.2198 15.9829 31.2007 15.939 31.1692 15.9045ZM42.735 22.9292H42.9083C42.8816 22.8166 42.8374 22.7087 42.7772 22.6096C42.7772 22.5843 42.6123 22.6516 42.5235 22.6769C42.6174 22.804 42.7539 22.8935 42.9083 22.9292C44.175 24.2056 45.1665 25.7257 45.822 27.3965C46.524 29.2599 47.0018 31.1823 48.9978 32.1497C49.0909 32.196 49.1332 32.3432 49.2008 32.44C49.092 32.5112 48.9719 32.5638 48.8456 32.5956C47.3317 32.7429 46.1518 31.9394 44.9805 30.7532C43.6315 29.3861 43.1071 27.5058 41.7539 26.1766C41.4617 25.8259 41.208 25.4451 40.9969 25.0409C40.3499 25.5751 41.2041 25.8359 41.2126 26.2523C41.183 26.6008 41.183 26.9512 41.2126 27.2997C41.5763 29.0286 41.3056 30.9131 42.4812 32.4568C42.5447 32.5367 42.4812 32.7302 42.4389 32.848C42.3996 32.8776 42.3535 32.8969 42.3048 32.9043C42.256 32.9116 42.2062 32.9067 42.1598 32.8901C41.5551 32.2465 40.6079 31.9563 40.3584 30.9383C40.13 29.9918 39.5126 29.1632 39.5126 28.1326C39.4383 27.7485 39.2951 27.3809 39.0897 27.0473C38.9375 26.6604 39.5126 26.021 38.4808 25.8738H38.7007C38.6739 25.7611 38.6297 25.6532 38.5696 25.5541C38.5696 25.5288 38.4047 25.5961 38.3158 25.6214C38.4097 25.7485 38.5462 25.838 38.7007 25.8738C38.7007 26.572 38.8529 27.3166 38.6542 27.9517C38.473 28.5133 38.3317 29.0868 38.2313 29.668C38.1552 30.1517 37.6519 30.5597 37.542 31.0435C37.3601 31.8216 36.8738 32.4905 36.6962 33.2014C36.4171 34.2698 35.4783 35.4266 36.5524 36.6002C36.6286 36.6843 36.5524 37.0208 36.4298 37.1344C36.3455 37.1779 36.252 37.2006 36.157 37.2006C36.0621 37.2006 35.9685 37.1779 35.8843 37.1344C34.8778 36.4067 34.5522 35.313 34.4845 34.1899C34.3746 32.3769 35.0005 30.6649 35.4233 28.9318C35.4825 28.6879 35.7151 28.4607 35.7194 28.2251C35.7194 27.6152 35.6559 27.0011 35.6136 26.3911C35.3983 26.8716 35.1377 27.3307 34.8355 27.7624C34.4127 28.3009 33.791 28.7089 33.3808 29.2641C32.7254 30.1517 31.7274 30.8962 31.8881 32.2086C31.8881 32.318 31.6639 32.461 31.5371 32.5914C31.3806 32.4274 31.1142 32.2844 31.0803 32.1035C30.7632 30.0297 31.757 28.385 32.8691 26.7781C33.0467 26.5215 33.0763 26.1682 33.4231 25.4741L33.1778 25.6718L33.3639 25.8611C33.4347 25.7813 33.4984 25.6954 33.5542 25.6045C33.5542 25.6045 33.4696 25.5204 33.1778 25.8611C33.0553 25.8997 32.9364 25.9489 32.8226 26.0084C32.0361 26.4963 31.2791 27.0305 30.4714 27.4806C29.6637 27.9307 28.7799 28.6037 27.8453 28.7425C26.1242 29.0538 25.1473 30.097 24.3016 31.4683C24.2524 31.514 24.193 31.5474 24.1283 31.5657C24.0636 31.584 23.9954 31.5867 23.9294 31.5735C23.7671 31.4562 23.6244 31.3142 23.5065 31.1528C24.255 30.2695 23.8406 28.9613 24.7752 28.0821C25.8579 27.0691 27.0624 26.1931 28.3612 25.4741C29.2676 25.0448 30.1008 24.4771 30.8308 23.7916C30.9059 23.7005 30.9711 23.6018 31.0254 23.4971C30.907 23.4466 30.7336 23.312 30.6744 23.3499C29.6722 24.0355 28.5304 23.6191 27.4647 23.7705C26.2933 23.943 25.0331 23.9304 24.1409 24.9441C24.0647 25.0325 23.7772 24.9441 23.5869 24.9441C23.6546 24.7927 23.7391 24.6497 23.7941 24.494C24.4242 22.8115 25.9085 22.3572 27.414 22.1174C28.5237 21.967 29.6095 21.6758 30.6448 21.2509L31.0085 21.1037C30.945 21.0111 30.8858 20.8429 30.8224 20.8387C29.5537 20.8387 28.209 20.5652 27.0461 20.9102C24.468 21.6355 21.9938 22.6858 19.6837 24.0355C16.8039 25.7812 13.8649 27.5479 11.649 30.2148C11.3825 30.5387 11.0569 30.8121 10.7567 31.1108C8.60235 33.303 6.80339 35.8147 5.42414 38.5561C4.45629 40.3168 3.61682 42.1442 2.91222 44.0245C2.37033 45.4404 1.9819 46.9097 1.75353 48.4076C1.58438 49.8378 1.07692 51.2343 1.07692 52.7234C1.07692 56.2736 0.472199 65.6203 4.76444 72.1908C6.09652 74.2267 4.89554 74.6768 9.97434 80.3008C11.7885 82.3114 14.1186 85.3022 16.8081 86.3496C19.7683 87.5106 22.7792 89.7484 26.2553 90.8253C30.1373 92.0241 36.434 93.4627 40.1427 92.7939C44.4053 92.0199 47.4247 91.4352 51.5182 89.7947C55.709 88.1121 60.0646 85.2181 63.934 81.8025C66.7884 79.2786 70.7001 72.7839 71.863 69.6837C73.6518 64.8842 74.2227 61.7967 74.2227 57.9604C74.2227 55.4366 74.3665 52.9127 73.9098 50.3342C73.6222 48.7021 73.064 47.1289 72.8906 45.4505C72.8187 44.7059 72.3282 43.8899 72.0872 43.0696C71.8461 42.2494 71.2414 41.5974 70.8988 40.8276C70.5563 40.0578 70.4337 39.145 69.9897 38.4762C68.5815 36.2973 67.2536 34.0384 65.4817 32.1371C62.9445 29.4324 60.3099 26.8412 57.0537 24.9862C54.9393 23.7874 53.0913 22.1006 50.4399 22.0417C50.017 22.0417 49.463 21.7346 48.9259 21.6715C48.34 21.6415 47.7656 21.4987 47.2344 21.2509C46.3887 20.7545 45.5217 20.8681 44.6422 20.8639C44.5237 20.8639 44.4053 20.9648 44.2869 21.0195C44.3486 21.1143 44.4225 21.2006 44.5068 21.2761C45.6823 21.939 46.7644 22.7537 47.725 23.699C47.9942 24.0001 48.3245 24.2412 48.6939 24.4064C49.0634 24.5717 49.4638 24.6575 49.869 24.6581C50.1073 24.6946 50.3375 24.7715 50.5498 24.8852C50.2792 25.0871 50.0212 25.4405 49.7421 25.4573C48.7991 25.5162 47.7926 25.6592 46.9722 25.0367C45.915 24.2374 44.4899 24.0397 43.5892 22.9797C43.4539 22.8367 43.1367 22.9292 42.735 22.9292ZM33.9813 24.881L33.8333 24.6118C33.7868 24.6581 33.6938 24.7128 33.698 24.7506C33.7362 24.8477 33.7815 24.9419 33.8333 25.0325L33.9813 24.881Z" fill="#FBFBFB"/>
<path d="M55.7766 16.1568C55.7174 16.0348 55.6117 15.9129 55.6202 15.7993C55.6582 14.8108 55.1465 14.4532 54.212 14.4953C54.1189 14.4953 53.9794 14.2177 53.9329 14.0494C53.9305 13.9854 53.9444 13.9217 53.9732 13.8644C54.0021 13.8071 54.0449 13.7579 54.0978 13.7213C55.0366 13.4395 55.6498 12.9179 55.6202 11.8536C55.6202 11.7737 55.7724 11.6896 55.857 11.6055C55.9162 11.719 55.9712 11.8368 56.0346 11.9504C56.4575 12.6655 56.5294 13.633 57.6119 13.8012C57.6627 13.8012 57.6627 14.1546 57.6838 14.3439C56.6985 14.428 56.5547 15.3576 56.0684 15.9465C55.981 16.0292 55.8829 16.0999 55.7766 16.1568Z" fill="#FBFBFB"/>
<path d="M46.672 2.16219C46.6276 2.22119 46.5749 2.27359 46.5156 2.31783C46.1338 2.48672 45.7975 2.74267 45.5337 3.06496C45.27 3.38724 45.0862 3.7668 44.9974 4.17287C44.9171 4.59351 44.7395 4.27803 44.5746 4.00882C44.2912 3.49143 44.2701 2.74689 43.4412 2.60808C43.1198 2.55339 42.845 2.23791 42.549 2.04021C42.8788 1.99394 43.289 2.04021 43.5173 1.87195C43.7982 1.59506 44.0223 1.26647 44.177 0.904471C44.3335 0.62264 44.4223 0.302952 44.5999 0.03374C44.6464 -0.0377694 44.8833 0.03374 45.0228 0.00429496C44.9298 1.07273 45.4964 1.63218 46.4691 1.9056C46.5663 1.92663 46.6128 2.07386 46.672 2.16219Z" fill="#FBFBFB"/>
<path d="M20.5675 29.4451C20.3905 29.504 20.2204 29.5816 20.0601 29.6765C19.6166 29.9849 19.207 30.3387 18.8379 30.7323C18.6603 30.9594 18.7153 31.3717 18.6688 31.6998C18.4309 31.4346 18.2368 31.1336 18.0937 30.808C17.9203 30.0635 17.083 29.8952 16.8504 29.4619C16.5121 28.8478 18.0852 29.1212 17.971 28.2C18.6942 27.9308 18.1698 27.1694 18.5419 26.7656C18.8291 27.231 19.0578 27.7297 19.2228 28.2505C19.2487 28.4803 19.3431 28.6972 19.4938 28.8733C19.6445 29.0494 19.8446 29.1768 20.0685 29.239C20.2384 29.2989 20.405 29.3677 20.5675 29.4451Z" fill="#FBFBFB"/>
<path d="M37.6519 92.7897C57.9685 92.7897 74.4384 76.407 74.4384 56.198C74.4384 35.9889 57.9685 19.6062 37.6519 19.6062C17.3353 19.6062 0.865479 35.9889 0.865479 56.198C0.865479 76.407 17.3353 92.7897 37.6519 92.7897Z" stroke="#FBFBFB" stroke-miterlimit="10"/>
<path d="M32.0868 2.16219C32.0435 2.22216 31.9907 2.27473 31.9304 2.31783C31.549 2.48728 31.213 2.74341 30.9493 3.0656C30.6856 3.38779 30.5017 3.76705 30.4122 4.17287C30.3319 4.59351 30.1543 4.27803 29.9893 4.00882C29.706 3.49143 29.6849 2.74689 28.856 2.60808C28.5346 2.55339 28.2598 2.23791 27.9637 2.04021C28.2936 1.99394 28.7038 2.04021 28.9321 1.87195C29.213 1.59506 29.4371 1.26647 29.5918 0.904471C29.7483 0.62264 29.8371 0.302952 30.0147 0.03374C30.0612 -0.0377694 30.298 0.03374 30.4376 0.00429496C30.3446 1.07273 30.9112 1.63218 31.8839 1.9056C31.9811 1.92663 32.0276 2.07386 32.0868 2.16219Z" fill="#FBFBFB"/>
<path d="M20.7874 11.8747C20.7429 11.9336 20.6902 11.986 20.6309 12.0303C20.2497 12.1988 19.9137 12.4541 19.6499 12.7756C19.3862 13.0971 19.2022 13.4758 19.1128 13.8811C19.0324 14.3018 18.8548 13.9863 18.6899 13.7171C18.4066 13.1997 18.3854 12.4551 17.5566 12.3163C17.2352 12.2616 16.9603 11.9462 16.6643 11.7485C16.9942 11.7022 17.4043 11.7485 17.6327 11.5802C17.9123 11.3022 18.1362 10.9739 18.2924 10.6127C18.4489 10.3309 18.5377 10.0112 18.7153 9.74199C18.7618 9.67048 18.9986 9.74199 19.1382 9.71255C19.0451 10.781 19.6118 11.3404 20.5844 11.6139C20.6817 11.6391 20.7282 11.7779 20.7874 11.8747Z" fill="#FBFBFB"/>
<path d="M28.3189 37.7359C28.2744 37.7949 28.2217 37.8473 28.1624 37.8916C27.7805 38.0602 27.444 38.316 27.1802 38.6384C26.9164 38.9607 26.7328 39.3404 26.6443 39.7466C26.5639 40.1672 26.3863 39.8518 26.2214 39.5825C25.9381 39.0652 25.9169 38.3206 25.0881 38.1818C24.7667 38.1271 24.4918 37.8116 24.1958 37.6139C24.5256 37.5677 24.9358 37.6139 25.1642 37.4457C25.4438 37.1677 25.6677 36.8394 25.8239 36.4782C25.9804 36.1964 26.0692 35.8767 26.2468 35.6075C26.2933 35.536 26.5301 35.6075 26.6697 35.578C26.5766 36.6465 27.1433 37.2059 28.1159 37.4793C28.2132 37.5004 28.2597 37.6476 28.3189 37.7359Z" fill="#FBFBFB"/>
<path d="M57.4977 29.2052C57.4521 29.2632 57.3996 29.3154 57.3413 29.3608C56.9593 29.5294 56.6228 29.7853 56.359 30.1076C56.0952 30.4299 55.9116 30.8096 55.8231 31.2158C55.7428 31.6365 55.5652 31.321 55.4002 31.0518C55.1169 30.5344 55.0958 29.7899 54.2669 29.651C53.9455 29.5964 53.6707 29.2809 53.3746 29.0832C53.7045 29.0369 54.1147 29.0832 54.343 28.9149C54.6226 28.637 54.8465 28.3086 55.0027 27.9474C55.1592 27.6656 55.248 27.3459 55.4256 27.0767C55.4721 27.0052 55.7089 27.0767 55.8485 27.0473C55.7555 28.1157 56.3221 28.6752 57.2947 28.9486C57.392 28.9696 57.4385 29.1168 57.4977 29.2052Z" fill="#FBFBFB"/>
<path d="M45.6359 38.6991C45.5903 38.7571 45.5377 38.8093 45.4794 38.8547C45.0977 39.0236 44.7613 39.2795 44.4976 39.6018C44.2338 39.9241 44.0501 40.3037 43.9613 40.7097C43.881 41.1304 43.7033 40.8149 43.5384 40.5457C43.2551 40.0283 43.2339 39.2838 42.4051 39.1449C42.0837 39.0903 41.8088 38.7748 41.5128 38.5771C41.8427 38.5308 42.2529 38.5771 42.4812 38.4088C42.7608 38.1309 42.9847 37.8025 43.1409 37.4413C43.2974 37.1595 43.3862 36.8398 43.5638 36.5706C43.6103 36.4991 43.8471 36.5706 43.9867 36.5412C43.8936 37.6096 44.4603 38.169 45.4329 38.4425C45.5302 38.4425 45.5767 38.5897 45.6359 38.6991Z" fill="#FBFBFB"/>
</svg>
