<svg width="490" height="890" viewBox="0 0 490 890" fill="none" xmlns="http://www.w3.org/2000/svg">
<path d="M1.104 888.898L1.29024 225.734H21.0627C21.0627 225.734 45.4911 225.114 50.8299 223.811C58.0933 221.98 74.4823 216.117 80.2868 211.401C106.795 189.466 100.773 169.641 102.698 154.469C104.043 142.17 109.272 130.619 117.628 121.49C124.961 114.105 133.521 108.048 142.925 103.588C154.131 98.8103 175.579 91.8296 185.76 86.4313C208.357 74.3314 220.277 49.6975 224.591 41.5378C229.806 31.951 244.302 2.75635 244.302 2.75635C250.169 17.5265 257.446 31.6979 266.03 45.0747C270.344 51.652 289.465 78.2716 300.732 85.4074C310.261 91.3332 330.655 96.1421 342.543 101.541C357.442 108.304 363.557 112.027 368.834 118.015C374.931 126.161 379.979 135.042 383.857 144.448C386.961 152.112 386.961 164.491 388.885 176.032C389.817 181.927 393.045 194.151 396.614 199.053C401.736 206.002 415.238 217.668 423.371 220.77C432.341 224.369 451.897 226.51 461.581 226.975C468.379 227.286 488.896 226.975 488.896 226.975V888.898H1.104Z" stroke="#FDFCEE" stroke-width="2" stroke-miterlimit="10"/>
<path d="M34.9065 888.711V262.437C41.6706 262.433 48.425 261.925 55.1135 260.917C63.1838 259.334 83.3598 253.595 92.113 248.165C104.04 239.84 114.525 229.622 123.153 217.916C128.08 209.557 132.047 200.669 134.979 191.42C137.493 182.919 137.493 162.536 140.659 154.407C142.336 150.095 144.974 143.021 151.896 139.112C161.078 134.505 170.737 130.915 180.701 128.408C195.041 124.065 201.156 121.241 206.992 117.27C222.17 106.939 244.24 79.4504 244.24 79.4504C244.24 79.4504 268.109 107.373 278.228 114.726C283.403 118.052 288.795 121.027 294.369 123.63C302.129 127.229 313.862 130.146 324.323 134.148C329.35 135.92 334.228 138.088 338.911 140.632C343.489 143.145 346.923 147.322 348.503 152.298C349.744 158.503 350.179 166.383 350.644 170.913C351.697 178.242 353.221 185.497 355.207 192.63C357.131 199.022 359.57 205.248 362.502 211.245C366.669 218.244 371.547 224.794 377.059 230.791C382.59 236.39 388.524 241.575 394.814 246.304C400.407 249.88 406.283 252.993 412.383 255.611C419.634 258.368 427.126 260.446 434.763 261.816C439.574 262.747 453.883 263.12 453.883 263.12V888.711" stroke="#FDFCEE" stroke-width="2" stroke-miterlimit="10"/>
<path d="M1.13501 798.956H35.0616" stroke="#FDFCEE" stroke-miterlimit="10"/>
<path d="M1.16602 705.663H34.9064" stroke="#FDFCEE" stroke-miterlimit="10"/>
<path d="M1.16602 610.974H34.9064" stroke="#FDFCEE" stroke-miterlimit="10"/>
<path d="M1.19714 517.898H34.9065V424.419H1.22818" stroke="#FDFCEE" stroke-miterlimit="10"/>
<path d="M1.25916 329.11H34.9064L35.0616 262.437L1.2902 225.703" stroke="#FDFCEE" stroke-miterlimit="10"/>
<path d="M114.12 228.775L85.3152 206.809" stroke="#FDFCEE" stroke-miterlimit="10"/>
<path d="M144.632 145.906L116.666 122.482" stroke="#FDFCEE" stroke-miterlimit="10"/>
<path d="M244.115 79.3575L244.302 2.75635" stroke="#FDFCEE" stroke-miterlimit="10"/>
<path d="M206.992 117.177L188.616 84.6938" stroke="#FDFCEE" stroke-miterlimit="10"/>
<path d="M281.27 116.681L300.732 85.2522" stroke="#FDFCEE" stroke-miterlimit="10"/>
<path d="M345.647 146.713L372.155 122.265" stroke="#FDFCEE" stroke-miterlimit="10"/>
<path d="M375.818 229.612L402.76 205.692" stroke="#FDFCEE" stroke-miterlimit="10"/>
<path d="M453.759 263.151L488.896 226.944" stroke="#FDFCEE" stroke-miterlimit="10"/>
<path d="M453.759 329.42H488.896" stroke="#FDFCEE" stroke-miterlimit="10"/>
<path d="M488.896 423.209H453.759" stroke="#FDFCEE" stroke-miterlimit="10"/>
<path d="M453.759 516.999H488.896" stroke="#FDFCEE" stroke-miterlimit="10"/>
<path d="M488.896 609.857H453.759" stroke="#FDFCEE" stroke-miterlimit="10"/>
<path d="M453.759 705.477H488.896" stroke="#FDFCEE" stroke-miterlimit="10"/>
<path d="M488.896 798.335H453.759" stroke="#FDFCEE" stroke-miterlimit="10"/>
</svg>
