<svg width="216" height="216" viewBox="0 0 216 216" fill="none" xmlns="http://www.w3.org/2000/svg">
<g clip-path="url(#clip0_155_128)">
<path d="M80.8792 188.406C68.5004 184.215 57.2539 177.228 48.0129 167.987C38.7718 158.746 31.7848 147.5 27.5944 135.121" stroke="#FDFCEF" stroke-linecap="round" stroke-linejoin="round"/>
<path d="M188.406 135.121C184.214 147.499 177.226 158.745 167.986 167.986C158.745 177.227 147.499 184.214 135.121 188.406" stroke="#FDFCEF" stroke-linecap="round" stroke-linejoin="round"/>
<path d="M135.121 27.5945C147.5 31.7849 158.746 38.7719 167.987 48.0129C177.228 57.254 184.215 68.5005 188.406 80.8793" stroke="#FDFCEF" stroke-linecap="round" stroke-linejoin="round"/>
<path d="M27.5944 80.8793C31.7836 68.4998 38.7701 57.2526 48.0113 48.0114C57.2526 38.7702 68.4998 31.7836 80.8792 27.5945" stroke="#FDFCEF" stroke-linecap="round" stroke-linejoin="round"/>
<path d="M182.973 117.286C188.102 75.876 158.69 38.1493 117.28 33.0208C75.8704 27.8924 38.1438 57.3041 33.0153 98.7138C27.8868 140.123 57.2985 177.85 98.7082 182.979C140.118 188.107 177.845 158.695 182.973 117.286Z" stroke="#FDFCEF" stroke-linecap="round" stroke-linejoin="round"/>
<path d="M135.121 188.406L107.995 215.531L0.468994 107.995L107.995 0.468994L215.531 107.995L135.121 188.406Z" stroke="#FDFCEF" stroke-linecap="round" stroke-linejoin="round"/>
<path d="M20.7287 108.005C20.7265 109.262 20.393 110.497 19.7618 111.584C19.1306 112.672 18.224 113.574 17.1333 114.2C16.0425 114.826 14.8062 115.153 13.5487 115.149C12.2912 115.145 11.057 114.809 9.9704 114.176C10.8494 114.411 11.7682 114.455 12.6655 114.306C13.5629 114.157 14.4181 113.818 15.1742 113.312C15.9303 112.806 16.5698 112.145 17.0501 111.373C17.5304 110.6 17.8404 109.734 17.9594 108.832C18.0784 107.93 18.0037 107.014 17.7404 106.143C17.477 105.272 17.0309 104.468 16.4319 103.783C15.833 103.099 15.0949 102.55 14.2669 102.173C13.439 101.796 12.5402 101.6 11.6306 101.598C11.0728 101.601 10.5178 101.677 9.97978 101.824C11.0725 101.197 12.3126 100.873 13.5721 100.886C15.4629 100.888 17.2761 101.638 18.6166 102.971C19.9571 104.305 20.7163 106.114 20.7287 108.005Z" fill="#FDFCEF"/>
<path d="M14.7445 108.005C14.7445 108.816 14.5039 109.609 14.0531 110.283C13.6023 110.957 12.9616 111.482 12.2121 111.792C11.4626 112.102 10.638 112.183 9.84261 112.024C9.04726 111.865 8.31694 111.474 7.74408 110.9C7.17122 110.325 6.78159 109.594 6.62449 108.798C6.4674 108.003 6.54991 107.178 6.86158 106.43C7.17325 105.681 7.70007 105.041 8.37535 104.592C9.05063 104.143 9.84402 103.904 10.6551 103.906C11.1929 103.906 11.7255 104.012 12.2222 104.218C12.719 104.424 13.1702 104.726 13.5501 105.107C13.93 105.488 14.231 105.94 14.4359 106.437C14.6409 106.934 14.7458 107.467 14.7445 108.005Z" fill="#FDFCEF"/>
<path d="M194.999 108.005C195 109.262 195.332 110.497 195.962 111.585C196.592 112.673 197.497 113.575 198.588 114.201C199.678 114.827 200.914 115.155 202.171 115.15C203.429 115.146 204.662 114.81 205.748 114.176C204.869 114.411 203.95 114.455 203.053 114.306C202.156 114.157 201.3 113.818 200.544 113.312C199.788 112.806 199.149 112.145 198.669 111.373C198.188 110.6 197.878 109.734 197.759 108.832C197.64 107.93 197.715 107.014 197.978 106.143C198.242 105.272 198.688 104.468 199.287 103.783C199.886 103.099 200.624 102.55 201.452 102.173C202.28 101.796 203.178 101.6 204.088 101.598C204.646 101.601 205.201 101.677 205.739 101.824C204.646 101.197 203.406 100.873 202.147 100.886C200.257 100.888 198.444 101.638 197.105 102.972C195.766 104.305 195.009 106.115 194.999 108.005Z" fill="#FDFCEF"/>
<path d="M200.974 108.005C200.974 108.816 201.215 109.609 201.665 110.283C202.116 110.957 202.757 111.482 203.507 111.792C204.256 112.102 205.081 112.183 205.876 112.024C206.671 111.865 207.402 111.474 207.975 110.9C208.547 110.325 208.937 109.594 209.094 108.798C209.251 108.003 209.169 107.178 208.857 106.43C208.545 105.681 208.019 105.041 207.343 104.592C206.668 104.143 205.875 103.904 205.064 103.906C204.526 103.906 203.993 104.012 203.496 104.218C203 104.424 202.548 104.726 202.169 105.107C201.789 105.488 201.488 105.94 201.283 106.437C201.078 106.934 200.973 107.467 200.974 108.005Z" fill="#FDFCEF"/>
<path d="M107.864 20.8693C106.606 20.8688 105.37 20.5365 104.281 19.906C103.192 19.2755 102.289 18.369 101.662 17.278C101.035 16.187 100.707 14.95 100.711 13.6917C100.714 12.4334 101.05 11.1984 101.683 10.1111C101.449 10.99 101.405 11.9089 101.554 12.8062C101.703 13.7036 102.041 14.5588 102.547 15.3149C103.053 16.071 103.714 16.7105 104.487 17.1908C105.259 17.671 106.125 17.981 107.027 18.1001C107.929 18.2191 108.846 18.1444 109.716 17.881C110.587 17.6176 111.391 17.1716 112.076 16.5726C112.761 15.9737 113.31 15.2356 113.686 14.4076C114.063 13.5797 114.259 12.6809 114.261 11.7713C114.258 11.2135 114.183 10.6585 114.036 10.1205C114.662 11.2132 114.986 12.4532 114.974 13.7128C114.974 15.6027 114.226 17.416 112.894 18.7567C111.562 20.0975 109.754 20.857 107.864 20.8693Z" fill="#FDFCEF"/>
<path d="M107.864 14.8852C107.053 14.8852 106.26 14.6445 105.586 14.1937C104.912 13.7429 104.386 13.1022 104.076 12.3527C103.766 11.6032 103.686 10.7786 103.845 9.98324C104.004 9.18788 104.395 8.45756 104.969 7.8847C105.543 7.31185 106.274 6.92221 107.07 6.76512C107.866 6.60803 108.69 6.69054 109.439 7.00221C110.188 7.31388 110.827 7.84069 111.277 8.51597C111.726 9.19126 111.965 9.98464 111.963 10.7957C111.963 11.3335 111.857 11.8661 111.651 12.3628C111.445 12.8596 111.143 13.3109 110.762 13.6907C110.381 14.0706 109.929 14.3716 109.432 14.5766C108.935 14.7815 108.402 14.8864 107.864 14.8852Z" fill="#FDFCEF"/>
<path d="M107.864 195.14C106.606 195.139 105.37 195.469 104.281 196.099C103.191 196.728 102.288 197.634 101.66 198.724C101.033 199.815 100.705 201.052 100.709 202.31C100.713 203.568 101.049 204.802 101.683 205.889C101.449 205.01 101.405 204.091 101.554 203.194C101.703 202.297 102.041 201.441 102.547 200.685C103.053 199.929 103.714 199.29 104.487 198.809C105.259 198.329 106.125 198.019 107.027 197.9C107.929 197.781 108.846 197.856 109.716 198.119C110.587 198.382 111.391 198.829 112.076 199.427C112.761 200.026 113.31 200.765 113.686 201.592C114.063 202.42 114.259 203.319 114.261 204.229C114.258 204.787 114.183 205.342 114.036 205.88C114.664 204.787 114.987 203.547 114.974 202.287C114.974 200.398 114.226 198.586 112.894 197.247C111.561 195.907 109.753 195.15 107.864 195.14Z" fill="#FDFCEF"/>
<path d="M107.864 201.115C107.053 201.115 106.26 201.355 105.586 201.806C104.912 202.257 104.386 202.898 104.076 203.647C103.766 204.397 103.686 205.221 103.845 206.017C104.004 206.812 104.395 207.542 104.969 208.115C105.543 208.688 106.274 209.078 107.07 209.235C107.866 209.392 108.69 209.309 109.439 208.998C110.188 208.686 110.827 208.159 111.277 207.484C111.726 206.809 111.965 206.015 111.963 205.204C111.963 204.666 111.857 204.134 111.651 203.637C111.445 203.14 111.143 202.689 110.762 202.309C110.381 201.929 109.929 201.628 109.432 201.423C108.935 201.218 108.402 201.114 107.864 201.115Z" fill="#FDFCEF"/>
<path d="M89.8554 18.6182L107.995 32.4435L126.145 18.6182" stroke="#FDFCEF" stroke-linecap="round" stroke-linejoin="round"/>
<path d="M126.145 197.382L107.995 183.556L89.8554 197.382" stroke="#FDFCEF" stroke-linecap="round" stroke-linejoin="round"/>
<path d="M197.382 89.8555L183.556 107.995L197.382 126.145" stroke="#FDFCEF" stroke-linecap="round" stroke-linejoin="round"/>
<path d="M18.6183 126.145L32.4436 107.995L18.6183 89.8555" stroke="#FDFCEF" stroke-linecap="round" stroke-linejoin="round"/>
</g>
<defs>
<clipPath id="clip0_155_128">
<rect width="216" height="216" fill="white"/>
</clipPath>
</defs>
</svg>
