<svg id="Capa_1" data-name="Capa 1" xmlns="http://www.w3.org/2000/svg" viewBox="0 0 44.78 104"><defs><style>.cls-1{fill:#fdfcef;}</style></defs><title>divinityOn</title><path class="cls-1" d="M11.35,38.73a.51.51,0,0,1-.39-.19L.11,24.57a.52.52,0,0,1,.08-.71.5.5,0,0,1,.7.09l10.86,14a.51.51,0,0,1-.09.71A.5.5,0,0,1,11.35,38.73Z"/><path class="cls-1" d="M14.23,35.54a.49.49,0,0,1-.42-.23L7.23,24.76a.5.5,0,1,1,.85-.53l6.58,10.55a.51.51,0,0,1-.16.69A.52.52,0,0,1,14.23,35.54Z"/><path class="cls-1" d="M17.17,30.13a.52.52,0,0,1-.44-.26L8.05,13.79a.5.5,0,0,1,.21-.68.49.49,0,0,1,.67.2l8.68,16.08a.5.5,0,0,1-.44.74Z"/><path class="cls-1" d="M19.07,25.81a.49.49,0,0,1-.47-.35L13.76,9.87a.5.5,0,1,1,1-.3l4.84,15.59a.51.51,0,0,1-.33.63Z"/><path class="cls-1" d="M32.34,39.69a.51.51,0,0,1-.31-.11.5.5,0,0,1-.08-.7l11.94-15a.5.5,0,0,1,.7-.08.49.49,0,0,1,.08.7l-11.94,15A.48.48,0,0,1,32.34,39.69Z"/><path class="cls-1" d="M30.54,35.54a.48.48,0,0,1-.26-.07.49.49,0,0,1-.16-.69l5.74-9.22a.49.49,0,0,1,.69-.16.48.48,0,0,1,.16.68L31,35.31A.51.51,0,0,1,30.54,35.54Z"/><path class="cls-1" d="M29.08,31.75a.58.58,0,0,1-.19,0,.5.5,0,0,1-.28-.65l7.22-17.72a.5.5,0,1,1,.92.38L29.54,31.43A.5.5,0,0,1,29.08,31.75Z"/><path class="cls-1" d="M26,27.73h-.12a.5.5,0,0,1-.36-.61L30.06,9.58a.5.5,0,0,1,1,.25L26.52,27.36A.5.5,0,0,1,26,27.73Z"/><path class="cls-1" d="M22.19,23.14a.5.5,0,0,1-.5-.5V5.33a.5.5,0,0,1,1,0V22.64A.5.5,0,0,1,22.19,23.14Z"/><path class="cls-1" d="M25.3,3.12a3.12,3.12,0,1,0-3.11,3.11A3.12,3.12,0,0,0,25.3,3.12Z"/><path class="cls-1" d="M22.41,104,4.61,65l17.54-35.3,18,33.67ZM6.82,65.05,22.37,99.1,38,63.47,22.22,34.07Z"/><rect class="cls-1" x="1.71" y="47.44" width="33.06" height="1" transform="translate(-32.66 54.23) rotate(-76.21)"/><rect class="cls-1" x="26.22" y="31.26" width="1" height="33.36" transform="translate(-12.01 9.06) rotate(-15.76)"/><rect class="cls-1" x="5.71" y="63.49" width="32.27" height="1"/><rect class="cls-1" x="17.84" y="63.56" width="1" height="38.42" transform="translate(-17.01 5.72) rotate(-12.15)"/><rect class="cls-1" x="8.16" y="81.62" width="37.32" height="1" transform="translate(-59.33 88.59) rotate(-76.21)"/></svg>