<svg width="154" height="172" viewBox="0 0 154 172" fill="none" xmlns="http://www.w3.org/2000/svg">
<g clip-path="url(#clip0_155_132)">
<path d="M76.5692 153.138C61.4252 153.138 46.6214 148.648 34.0296 140.234C21.4379 131.821 11.6238 119.862 5.82851 105.871C0.0331759 91.8797 -1.48315 76.4842 1.47129 61.6313C4.42573 46.7783 11.7182 33.135 22.4266 22.4266C33.135 11.7182 46.7783 4.42573 61.6313 1.47129C76.4842 -1.48315 91.8797 0.0331759 105.871 5.82851C119.862 11.6238 131.821 21.4379 140.234 34.0296C148.648 46.6214 153.138 61.4252 153.138 76.5692C153.118 96.8702 145.044 116.334 130.689 130.689C116.334 145.044 96.8702 153.118 76.5692 153.138ZM76.5692 2.60886C61.9412 2.60886 47.6417 6.94656 35.479 15.0734C23.3163 23.2003 13.8366 34.7513 8.23876 48.2658C2.64088 61.7803 1.17622 76.6512 4.02999 90.9981C6.88376 105.345 13.9278 118.523 24.2713 128.867C34.6149 139.211 47.7933 146.255 62.1402 149.108C76.4871 151.962 91.3581 150.497 104.873 144.9C118.387 139.302 129.938 129.822 138.065 117.659C146.192 105.497 150.529 91.1971 150.529 76.5692C150.505 56.9611 142.705 38.163 128.84 24.298C114.975 10.433 96.1772 2.63303 76.5692 2.60886Z" fill="#FDFCEF"/>
<path d="M76.5692 145.625C62.9112 145.625 49.56 141.575 38.2039 133.987C26.8477 126.399 17.9967 115.614 12.77 102.996C7.54335 90.3773 6.17582 76.4926 8.84034 63.0971C11.5049 49.7016 18.0818 37.397 27.7394 27.7394C37.397 18.0818 49.7016 11.5049 63.0971 8.84034C76.4926 6.17582 90.3773 7.54335 102.996 12.77C115.614 17.9967 126.399 26.8477 133.987 38.2039C141.575 49.56 145.625 62.9112 145.625 76.5692C145.604 94.8775 138.322 112.43 125.376 125.376C112.43 138.322 94.8775 145.604 76.5692 145.625ZM76.5692 8.81787C63.1692 8.81787 50.0702 12.7914 38.9286 20.236C27.7869 27.6806 19.1031 38.2619 13.9751 50.6419C8.8472 63.0218 7.5055 76.6443 10.1197 89.7868C12.7339 102.929 19.1866 115.001 28.6618 124.477C38.137 133.952 50.2091 140.404 63.3515 143.019C76.494 145.633 90.1165 144.291 102.496 139.163C114.876 134.035 125.458 125.351 132.902 114.21C140.347 103.068 144.32 89.9691 144.32 76.5692C144.3 58.6068 137.155 41.386 124.454 28.6846C111.752 15.9833 94.5316 8.83859 76.5692 8.81787Z" fill="#FDFCEF"/>
<path d="M134.25 171.4H18.9009V158.356H134.25V171.4ZM21.5097 168.791H131.641V160.965H21.5097V168.791Z" fill="#FDFCEF"/>
<path d="M128.576 160.3H24.562L25.2142 159.295C30.7344 150.683 38.3314 143.598 47.3064 138.69C56.2815 133.783 66.3464 131.211 76.5755 131.211C86.8047 131.211 96.8696 133.783 105.845 138.69C114.82 143.598 122.417 150.683 127.937 159.295L128.576 160.3ZM26.9621 158.995H126.176C120.719 150.846 113.338 144.167 104.686 139.548C96.0335 134.929 86.3768 132.513 76.569 132.513C66.7613 132.513 57.1045 134.929 48.4525 139.548C39.8004 144.167 32.4195 150.846 26.9621 158.995Z" fill="#FDFCEF"/>
</g>
<defs>
<clipPath id="clip0_155_132">
<rect width="153.138" height="171.4" fill="white"/>
</clipPath>
</defs>
</svg>
