<?xml version="1.0" encoding="utf-8"?>
<!-- Generator: Adobe Illustrator 24.0.1, SVG Export Plug-In . SVG Version: 6.00 Build 0)  -->
<svg version="1.1" id="Capa_1" xmlns="http://www.w3.org/2000/svg" xmlns:xlink="http://www.w3.org/1999/xlink" x="0px" y="0px"
	 viewBox="0 0 145.7 254.5" style="enable-background:new 0 0 145.7 254.5;" xml:space="preserve">
<style type="text/css">
	.st0{fill:#3C1B67;}
	.st1{fill:#1F163B;}
	.st2{fill:none;}
	.st3{fill:#E6C285;}
	.st4{fill:#FDFCEE;}
</style>
<title>saveIcon</title>
<path class="st0" d="M104.3,103.8c0.1,0.1,0.1,0.2,0.2,0.3C104.4,104,104.3,103.9,104.3,103.8z"/>
<path class="st0" d="M117.5,127.2c0,23.8-18.7,43.3-42.4,44.5c24.6-1.2,43.7-22.1,42.5-46.7c-1.1-23.7-20.5-42.4-44.3-42.6
	C97.9,82.8,117.6,102.7,117.5,127.2z"/>
<path class="st0" d="M62,108.8c7.3,4.1,11.1,10.2,10.8,18.5C73.2,119,69.3,112.9,62,108.8z"/>
<path class="st0" d="M131,32.5c-10.3-1.2-15.5-6.9-15.8-17.3c-0.1-2.7-1.2-3.9-3.8-3.8l0,0c2.7,0,3.8,1.2,3.8,3.8
	C115.5,25.6,120.7,31.3,131,32.5c2.9,0.3,3.3,2.1,3.3,4.4v178.8c0,5.3,0,5.3-5,6c-7.5,1-13.4,7.1-14,14.7c-0.3,3.4-1.6,4.4-4.9,4.4
	c-24.7-0.1-49.3-0.1-74,0c-1,0.1-1.9-0.1-2.8-0.5c0.9,0.4,1.9,0.6,2.9,0.5c24.7-0.1,49.3-0.1,74,0c3.3,0,4.6-1.1,4.9-4.4
	c0.6-7.6,6.5-13.7,14-14.7c5-0.8,5-0.8,5-6V36.9C134.3,34.6,133.9,32.9,131,32.5z"/>
<path class="st0" d="M58.9,146.7L58.9,146.7c0.6,1.4,1.8,2.5,3.2,3c2.3,0.7,4.6,1.1,6.9,1.4c-2.3-0.3-4.6-0.8-6.9-1.4
	C60.7,149.2,59.5,148.1,58.9,146.7z"/>
<path class="st0" d="M72.3,171.8c-24.7-0.6-44.2-21.1-43.6-45.7c0.5-21.5,16.3-39.6,37.6-43.1c-21.8,3.4-37.8,22.1-38,44.1v0.1
	C28.3,151.6,47.9,171.5,72.3,171.8z"/>
<path class="st0" d="M72.9,166.3L72.9,166.3c-21.6,0-39.1-17.5-39.1-39.1c0-21.6,17.5-39.1,39.1-39.1c12.1,0,23.4,5.6,30.8,15.1
	C96.4,93.7,85.2,88.1,73.2,88c-0.7,0-1.4,0-2.2,0c-21.6,0.5-38.7,18.5-38.2,40.1C33.3,149.7,51.3,166.8,72.9,166.3L72.9,166.3z"/>
<path class="st0" d="M87.3,109.5c-6.6-7.3-15-9.7-24.6-7.2l0,0c-1.1,0.4-2.1,1.1-2.9,2c0.8-0.9,1.8-1.6,2.9-2
	C72.3,99.9,80.7,102.3,87.3,109.5z"/>
<path class="st0" d="M73,171.8c0.6,0,1.1,0,1.7,0C74.1,171.8,73.5,171.8,73,171.8L73,171.8z"/>
<path class="st0" d="M16.4,34.3c10-1.2,15.5-7.7,15.3-17.8c-0.1-0.9,0.1-1.8,0.5-2.6c-0.4,0.8-0.5,1.7-0.5,2.6
	C31.8,26.6,26.4,33.1,16.4,34.3c-1.9,0.2-3,0.8-3.5,1.9C13.4,35.1,14.5,34.5,16.4,34.3z"/>
<path class="st0" d="M13.6,221c1.1,0.4,2.3,0.7,3.5,0.7c1.9,0.2,3.7,0.7,5.4,1.5c-1.7-0.8-3.6-1.4-5.4-1.6
	C15.9,221.6,14.8,221.4,13.6,221z"/>
<path class="st0" d="M88.3,126.2c0-10.1-7.9-18.5-18-19l0,0c10.5,0.9,18.2,10.1,17.3,20.5c-0.8,9.3-8.2,16.7-17.5,17.4l0,0
	C80.2,144.6,88.2,136.3,88.3,126.2L88.3,126.2z"/>
<path class="st0" d="M128.8,201.2v-20.6C128.8,187.5,128.8,194.3,128.8,201.2z"/>
<path class="st0" d="M109.7,11.4c-24.8,0.4-49.6,0.7-74.4,1.1c-0.6,0-1.2,0.1-1.8,0.3c0.6-0.2,1.2-0.3,1.8-0.3
	C60.1,12.2,84.9,11.8,109.7,11.4z"/>
<path class="st0" d="M85.8,254.4c-6.6-0.5-13.2-0.5-19.8,0H39.2c-0.9-0.1-1.9-0.2-2.8-0.2c-10.4-0.1-20.8,0-31.2,0
	c-4.7,0-5.2-0.5-5.2-5.3l0,0c0,4.9,0.5,5.3,5.2,5.3c10.4,0,20.8-0.1,31.2,0c0.9,0,1.9,0.1,2.8,0.2H66
	C72.6,253.9,79.2,253.9,85.8,254.4h59.9H143H85.8z"/>
<path class="st0" d="M66.2,83c1.5-0.2,3-0.4,4.4-0.4C69.2,82.6,67.7,82.8,66.2,83z"/>
<path class="st0" d="M37.5,17.8h71.2l0,0H37.5C36.2,30.3,29.7,37.4,18.1,40c-0.1,0.9-0.2,1.7-0.2,2.5l0,0c0-0.8,0.1-1.6,0.2-2.5
	C29.7,37.4,36.2,30.3,37.5,17.8z"/>
<path class="st0" d="M126,37.3c0.9,0.1,1.7,0.5,2.3,1.2C127.8,37.9,126.9,37.4,126,37.3c-4.3-0.8-8.2-3.2-10.9-6.6
	C117.8,34.2,121.7,36.6,126,37.3z"/>
<path class="st1" d="M72.8,88.1c-21.6,0-39.1,17.5-39.1,39.1c0,21.6,17.5,39.1,39.1,39.1c21.4,0.1,39.1-17.6,39.1-39.2
	c0-8.3-2.7-16.3-7.6-23c-0.1-0.1-0.1-0.2-0.2-0.3s-0.3-0.4-0.5-0.6C96.4,93.7,84.9,88.1,72.8,88.1z M91.5,136.4
	c-4,8.9-12.8,14.6-22.5,14.8c-2.3-0.3-4.6-0.7-6.9-1.4c-1.4-0.5-2.6-1.6-3.2-3l0,0l0,0c-0.2-0.6,1.5-2.4,2.7-3
	c6.6-3.4,10.7-8.6,11.2-16.1c0-0.1,0-0.2,0-0.3c0.4-8.3-3.5-14.4-10.8-18.5c-1.4-0.8-2.3-2.3-3.3-3.5c0.4-0.3,0.7-0.6,1.1-0.9
	c0.8-0.9,1.8-1.6,2.9-2l0,0c9.6-2.4,18.1-0.1,24.6,7.2c0.2,0.2,0.4,0.4,0.6,0.7C94.5,118,95.6,127,91.5,136.4z"/>
<path class="st1" d="M138.9,7.8H6.9v238.8h132.1V7.8z M134.3,75.2v140.6c0,5.2,0,5.2-5,6c-7.5,1-13.4,7.1-14,14.7
	c-0.3,3.4-1.6,4.4-4.9,4.4c-24.7-0.1-49.3-0.1-74,0c-1,0.1-2-0.1-2.9-0.5c-1.2-0.6-1.8-1.8-2-3.9c-0.7-7.7-6.7-13.8-14.3-14.7
	c-1.2-0.1-2.4-0.3-3.6-0.7c-1.2-0.6-1.2-1.8-1.2-4.8V63.6c0-8.3,0.1-16.5-0.1-24.8c0-0.9,0.1-1.8,0.5-2.6c0.5-1.1,1.6-1.7,3.5-1.9
	c10-1.2,15.5-7.7,15.3-17.8c-0.1-0.9,0.1-1.8,0.5-2.6c0.3-0.5,0.8-0.9,1.3-1.1c0.6-0.2,1.2-0.3,1.8-0.3c24.8-0.3,49.6-0.7,74.4-1.1
	h1.6h0.1c2.7-0.1,3.8,1.1,3.8,3.8c0.3,10.4,5.5,16.1,15.8,17.3c2.9,0.3,3.3,2.1,3.3,4.4V75.2z"/>
<path class="st1" d="M17.9,213.1c0,2.3,0.7,3.2,3,3.8c7.9,2.1,13.3,7.2,15.4,15.1c0.8,2.9,2.1,3.3,4.6,3.3
	c19.6-0.1,39.2-0.1,58.8-0.1h9.8c2-9.4,7.2-15.8,16.2-18.3c2.5-0.6,3.1-1.6,3.1-4v-11.7c0-6.9,0-13.7,0-20.6V41.5c0.1-1,0-2-0.5-3
	c-0.6-0.7-1.4-1.2-2.3-1.2c-4.3-0.8-8.2-3.1-10.9-6.6c-0.4-0.5-0.7-1-1.1-1.6c-2.2-3.6-3.6-7.7-5.2-11.4H37.5
	C36.2,30.3,29.7,37.4,18.1,40c-0.1,0.9-0.2,1.7-0.2,2.5C18,99.4,18,156.3,17.9,213.1z M28.3,127.1c0.2-22,16.2-40.6,38-44.1
	c1.5-0.2,3-0.4,4.4-0.4c0.8,0,1.5,0,2.3,0h0.5c24.7,0.2,44.5,20.3,44.3,45c-0.2,23.7-18.9,43.2-42.6,44.3h-0.5c-0.6,0-1.1,0-1.7,0
	h-0.2h-0.5c-24.4-0.4-44-20.2-44-44.6L28.3,127.1z"/>
<path class="st0" d="M72.9,82.5L72.9,82.5z"/>
<path class="st0" d="M66,254.5h19.8C79.2,254,72.6,254,66,254.5z"/>
<path class="st2" d="M145.7,0v2.3c0,0.2,0,0.4,0.1,0.6L145.7,0L145.7,0z"/>
<path class="st0" d="M5.2,254.3c-4.7,0-5.2-0.5-5.2-5.3v5.5h39.2c-0.9-0.1-1.9-0.2-2.8-0.2C26,254.2,15.6,254.3,5.2,254.3z"/>
<path class="st0" d="M6,0H0v6C0,0.2,0.2,0,6,0z"/>
<path class="st0" d="M145.7,2.3V0h-5.2C144.3,0,145.4,0.1,145.7,2.3z"/>
<path class="st1" d="M87.8,124.8c-0.6-9.4-8.1-16.9-17.5-17.6c10.9,17.7,10.9,23.3-0.2,37.9C80.6,144.3,88.5,135.3,87.8,124.8z"/>
<path class="st2" d="M145.7,30.6v-1.9C145.7,29.3,145.7,30,145.7,30.6z"/>
<path class="st2" d="M145.7,254.5L145.7,254.5l0.1-1.5h-0.1V254.5z"/>
<path class="st0" d="M143,254.4h2.7V253C144.7,253.4,143.9,253.9,143,254.4z"/>
<path class="st3" d="M145.7,253L145.7,253l0.1-222.4c-0.1-0.6-0.1-1.3,0-1.9V2.9c0-0.2,0-0.4-0.1-0.6V253z"/>
<path class="st4" d="M5.2,254.3c10.4,0,20.8-0.1,31.2,0c0.9,0,1.9,0.1,2.8,0.2H66c6.6-0.5,13.2-0.5,19.8,0H143
	c0.9-0.5,1.7-1,2.7-1.4V2.3c-0.3-2.2-1.3-2.3-5.2-2.3H6C0.2,0,0,0.2,0,6v242.9C0,253.8,0.5,254.3,5.2,254.3z M6.9,7.8h132.1v238.8
	H6.9V7.8z"/>
<path class="st3" d="M145.7,2.3c0,0.2,0,0.4,0.1,0.6C145.7,2.7,145.7,2.5,145.7,2.3L145.7,2.3z"/>
<path class="st3" d="M145.7,2.3L145.7,2.3c-0.3-2.2-1.4-2.3-5.2-2.3C144.3,0,145.4,0.1,145.7,2.3z"/>
<path class="st4" d="M110.4,240.8c3.3,0,4.6-1.1,4.9-4.4c0.6-7.6,6.5-13.7,14-14.7c5-0.7,5-0.7,5-6V36.9c0-2.3-0.4-4.1-3.3-4.4
	c-10.3-1.2-15.5-6.9-15.8-17.3c-0.1-2.7-1.2-3.9-3.8-3.8h-1.6c-24.8,0.4-49.6,0.8-74.4,1.1c-0.6,0-1.2,0.1-1.8,0.3
	c-0.6,0.2-1.1,0.6-1.3,1.1c-0.4,0.8-0.5,1.7-0.5,2.6c0.2,10.1-5.3,16.6-15.3,17.8c-1.9,0.2-3,0.8-3.5,1.9c-0.3,0.8-0.4,1.7-0.4,2.6
	c0.1,8.3,0,16.5,0,24.8v152.7c0,3,0,4.2,1.2,4.8c1.1,0.4,2.3,0.6,3.5,0.7c7.7,0.8,13.8,7,14.5,14.7c0.2,2.1,0.7,3.3,1.9,3.9
	c0.9,0.4,1.9,0.6,2.8,0.5C61,240.8,85.7,240.8,110.4,240.8z M20.9,216.9c-2.3-0.6-3-1.5-3-3.7c0-56.9,0-113.8,0-170.7l0,0l0,0
	c0-0.8,0.1-1.6,0.2-2.5c11.6-2.5,18.1-9.7,19.4-22.2h71.2l0,0l0,0c1.6,3.6,3,7.8,5.2,11.4c2.7,4.3,7,7.2,12,8.1
	c0.9,0.1,1.8,0.5,2.3,1.3c0.4,0.9,0.6,2,0.5,3v111.9c0,9,0,18.1,0,27.1v20.6c0,3.9,0,7.8,0,11.8c0,2.4-0.6,3.3-3.1,4
	c-9,2.5-14.2,8.9-16.2,18.3h-9.8c-19.6,0-39.2,0-58.8,0.1c-2.5,0-3.8-0.4-4.6-3.3C34.1,224.2,28.8,219,20.9,216.9z"/>
<path class="st3" d="M111.3,11.4h-1.6H111.3L111.3,11.4z"/>
<path class="st3" d="M31.6,236.4c-0.5-5.7-3.9-10.7-9.1-13.1C27.7,225.8,31.1,230.8,31.6,236.4c0.1,2.1,0.7,3.3,1.9,3.9
	C32.4,239.7,31.8,238.5,31.6,236.4z"/>
<path class="st3" d="M12.5,216.2V63.6c0-8.3,0.1-16.5,0-24.8c-0.1-0.9,0-1.8,0.4-2.6c-0.4,0.8-0.5,1.7-0.5,2.6
	c0.1,8.2,0.1,16.5,0.1,24.8L12.5,216.2c-0.1,3-0.1,4.2,1.2,4.8C12.5,220.4,12.5,219.3,12.5,216.2z"/>
<path class="st3" d="M33.5,12.8c-0.6,0.2-1.1,0.6-1.3,1.1C32.4,13.4,32.9,13,33.5,12.8z"/>
<path class="st3" d="M128.8,41.5v139.1c0-9,0-18.1,0-27.1V41.5c0.1-1,0-2-0.5-3C128.7,39.5,128.9,40.5,128.8,41.5z"/>
<path class="st3" d="M40.9,235.3c19.6-0.1,39.2-0.1,58.8-0.1h9.8c2-9.4,7.2-15.8,16.2-18.3c2.5-0.7,3.1-1.6,3.1-4
	c0-3.9,0-7.8,0-11.8v11.7c0,2.4-0.6,3.4-3.1,4c-9,2.5-14.2,8.9-16.2,18.3h-9.8C80.1,235.2,60.5,235.2,40.9,235.3
	c-2.5,0-3.8-0.4-4.6-3.3c-2.2-7.9-7.5-13-15.4-15.1c-2.3-0.6-3-1.5-3-3.8c0.1-56.9,0.1-113.7,0-170.6l0,0c0,56.9,0,113.8,0,170.7
	c0,2.3,0.7,3.1,3,3.7c7.9,2.1,13.2,7.2,15.4,15.1C37.1,234.9,38.4,235.3,40.9,235.3z"/>
<path class="st3" d="M115.1,30.7c-0.4-0.5-0.7-1-1.1-1.5c-2.2-3.6-3.6-7.8-5.2-11.4l0,0c1.6,3.6,3,7.8,5.2,11.4
	C114.3,29.7,114.7,30.2,115.1,30.7z"/>
<path class="st4" d="M28.3,127.1c0,24.4,19.6,44.3,44,44.7h0.6c0.6,0,1.2,0,1.7,0h0.5c24.6-1.2,43.7-22.1,42.5-46.7
	c-1.1-23.7-20.5-42.4-44.3-42.6h-0.5c-0.8,0-1.5,0-2.3,0c-1.5,0.1-3,0.2-4.4,0.4C44.5,86.4,28.4,105.1,28.3,127.1z M71,88
	c0.7,0,1.4,0,2.2,0c12,0.1,23.3,5.7,30.6,15.2c0.2,0.2,0.3,0.4,0.5,0.6s0.1,0.2,0.2,0.3c4.9,6.7,7.6,14.7,7.6,23
	c0,21.6-17.7,39.3-39.1,39.2l0,0C51.2,166,34,148.2,34.3,126.5C34.6,106.1,50.6,89.3,71,88z"/>
<path class="st3" d="M72.9,166.3L72.9,166.3c21.4,0.1,39.1-17.6,39.1-39.2c0-8.3-2.7-16.3-7.6-23c4.9,6.7,7.5,14.7,7.6,23
	C112,148.7,94.3,166.4,72.9,166.3z"/>
<path class="st3" d="M103.8,103.2c0.2,0.2,0.3,0.4,0.5,0.6C104.1,103.6,103.9,103.4,103.8,103.2z"/>
<path class="st3" d="M72.9,82.5L72.9,82.5z"/>
<path class="st3" d="M75.1,171.8h-0.5H75.1z"/>
<path class="st3" d="M72.8,171.8L72.8,171.8h-0.5H72.8z"/>
<path class="st4" d="M91.5,136.3c4.1-9.4,3-18.3-3.7-26.1c-0.2-0.2-0.4-0.4-0.6-0.6c-6.6-7.3-15-9.6-24.6-7.2
	c-1.1,0.4-2.1,1.1-2.9,2c-0.3,0.3-0.7,0.6-1,0.9c1.1,1.2,2,2.8,3.3,3.5c7.3,4.1,11.2,10.2,10.7,18.5c0,0.1,0,0.3,0,0.4
	c-0.5,7.4-4.6,12.6-11.2,16.1c-1.2,0.6-2.8,2.2-2.7,3c0.6,1.4,1.8,2.5,3.2,3c2.2,0.6,4.5,1.1,6.8,1.4
	C78.7,151,87.5,145.2,91.5,136.3z M70.2,145.1L70.2,145.1c11.1-14.6,11.1-20.2,0.2-37.9l0,0c10.1,0.5,18,8.9,18,19l0,0
	C88.2,136.3,80.3,144.6,70.2,145.1z"/>
<path class="st3" d="M61.6,143.7c6.6-3.4,10.7-8.6,11.2-16.1c0-0.1,0-0.2,0-0.4c0,0.1,0,0.2,0,0.3C72.3,135,68.2,140.3,61.6,143.7
	c-1.2,0.6-2.9,2.3-2.7,2.9l0,0C58.8,146,60.4,144.3,61.6,143.7z"/>
<path class="st3" d="M58.7,105.3c0.3-0.3,0.7-0.6,1-0.9C59.4,104.7,59,105,58.7,105.3c1,1.2,1.9,2.8,3.3,3.5
	C60.7,108.1,59.8,106.5,58.7,105.3z"/>
<path class="st3" d="M87.3,109.5c0.2,0.2,0.4,0.4,0.6,0.6c6.6,7.8,7.8,16.8,3.7,26.1c-4,8.9-12.7,14.7-22.5,14.8
	c9.7-0.1,18.5-5.9,22.5-14.8c4.1-9.4,3-18.3-3.7-26.1C87.7,110,87.4,109.8,87.3,109.5z"/>
<path class="st3" d="M70.3,107.2L70.3,107.2c10.9,17.7,10.9,23.3-0.2,37.9l0,0C81.2,130.5,81.2,124.9,70.3,107.2z"/>
</svg>
