<svg width="16" height="27" viewBox="0 0 16 27" fill="none" xmlns="http://www.w3.org/2000/svg">
<g clip-path="url(#clip0_145_102)">
<path d="M7.761 0.0891113L1.94217 9.27802L0.0483332 14.8279L0.995254 22.9156L3.90514 25.7743L7.761 26.5233L11.6178 25.7743L14.5277 22.9156L15.4746 14.8279L13.5808 9.27802L7.761 0.0891113Z" fill="#FDFCEE" stroke="#1F163B" stroke-miterlimit="10"/>
<path d="M7.761 0.0891113V4.51312L4.09168 10.3083L2.46204 15.0855L3.24893 21.8115L5.05565 23.586L7.761 24.1125L10.4673 23.586L12.2731 21.8115L13.0609 15.0855L11.4303 10.3083L7.761 4.51312" fill="#FDFCEE"/>
<path d="M7.761 0.0891113V4.51312L4.09168 10.3083L2.46204 15.0855L3.24893 21.8115L5.05565 23.586L7.761 24.1125L10.4673 23.586L12.2731 21.8115L13.0609 15.0855L11.4303 10.3083L7.761 4.51312" stroke="#1F163B" stroke-miterlimit="10"/>
<path d="M7.76099 26.5232V24.1123" stroke="#1F163B" stroke-miterlimit="10"/>
<path d="M14.5276 22.9154L12.273 21.8113" stroke="#1F163B" stroke-miterlimit="10"/>
<path d="M0.995231 22.9154L3.2489 21.8113" stroke="#1F163B" stroke-miterlimit="10"/>
<path d="M1.94217 9.27783L4.09167 10.3081" stroke="#1F163B" stroke-miterlimit="10"/>
<path d="M13.5807 9.27783L11.4303 10.3081" stroke="#1F163B" stroke-miterlimit="10"/>
<path d="M15.4746 14.8279L13.0609 15.0854" stroke="#1F163B" stroke-miterlimit="10"/>
<path d="M0.048336 14.8279L2.46204 15.0854" stroke="#1F163B" stroke-miterlimit="10"/>
<path d="M3.90509 25.7743L5.0556 23.5859" stroke="#1F163B" stroke-miterlimit="10"/>
<path d="M11.6178 25.7743L10.4673 23.5859" stroke="#1F163B" stroke-miterlimit="10"/>
</g>
<defs>
<clipPath id="clip0_145_102">
<rect width="15.5229" height="26.5715" fill="white" transform="matrix(-1 0 0 1 15.5229 0)"/>
</clipPath>
</defs>
</svg>
