<svg width="305" height="26" viewBox="0 0 305 26" fill="none" xmlns="http://www.w3.org/2000/svg">
<path d="M290.861 12.4039C190.916 24.258 114.042 24.4279 14.0964 12.7013" stroke="#C5AA80" stroke-width="2" stroke-miterlimit="10"/>
<path d="M252.466 22.7709C255.95 22.7709 258.774 19.9366 258.774 16.4403C258.774 12.9439 255.95 10.1096 252.466 10.1096C248.983 10.1096 246.159 12.9439 246.159 16.4403C246.159 19.9366 248.983 22.7709 252.466 22.7709Z" fill="#C5AA80"/>
<path d="M280.109 11.9791C280.829 5.13859 286.924 0.21002 293.697 0.932311C300.513 1.6546 305.423 7.77282 304.704 14.5708C303.984 21.3689 297.888 26.3399 291.115 25.6176C285.316 25.0228 280.702 20.3917 280.109 14.5708C280.829 18.0548 284.215 20.3492 287.729 19.6269C291.242 18.9046 293.486 15.5056 292.766 11.9791C292.046 8.45263 288.66 6.20077 285.146 6.92306C282.607 7.43292 280.617 9.42985 280.109 11.9791Z" fill="#C5AA80"/>
<path d="M290.946 13.3811C290.946 15.9728 288.829 18.0548 286.247 18.0123C283.665 17.9698 281.591 15.8879 281.633 13.2961C281.633 10.7469 283.749 8.66498 286.289 8.66498C288.872 8.66498 290.946 10.7894 290.946 13.3811Z" fill="#C5AA80"/>
<path d="M215.045 19.4144C215.045 20.859 213.86 22.0062 212.463 21.9637C211.066 21.9212 209.881 20.774 209.923 19.3719C209.923 17.9273 211.108 16.7802 212.505 16.8226C213.944 16.8226 215.045 17.9699 215.045 19.4144Z" fill="#C5AA80"/>
<path d="M52.5337 22.7709C56.0172 22.7709 58.8411 19.9366 58.8411 16.4403C58.8411 12.9439 56.0172 10.1096 52.5337 10.1096C49.0502 10.1096 46.2263 12.9439 46.2263 16.4403C46.2263 19.9366 49.0502 22.7709 52.5337 22.7709Z" fill="#C5AA80"/>
<path d="M14.0541 13.3811C14.0541 15.9728 16.1707 18.0548 18.753 18.0123C21.3352 17.9698 23.4094 15.8879 23.3671 13.2961C23.3671 10.7469 21.2505 8.66498 18.7106 8.66498C16.1284 8.66498 14.0541 10.7894 14.0541 13.3811Z" fill="#C5AA80"/>
<path d="M89.9549 19.4144C89.9549 20.859 91.1402 22.0062 92.5371 21.9637C93.9764 21.9637 95.1194 20.774 95.077 19.3719C95.077 17.9273 93.8917 16.7802 92.4948 16.8226C91.0979 16.8226 89.9549 17.9699 89.9549 19.4144Z" fill="#C5AA80"/>
<path d="M24.8911 11.979C24.1291 5.13852 17.991 0.25242 11.1756 1.0172C4.36018 1.78198 -0.507971 7.9427 0.254 14.7832C1.01597 21.6237 7.15407 26.5098 13.9695 25.745C19.7689 25.0652 24.3407 20.4341 24.8911 14.5708C24.2138 18.0973 20.8272 20.3491 17.3137 19.6693C13.8001 18.9895 11.5566 15.5905 12.2339 12.064C12.9112 8.53752 16.2977 6.28567 19.8113 6.96547C22.3512 7.47533 24.3407 9.42978 24.8911 11.979Z" fill="#C5AA80"/>
</svg>
