<svg width="69" height="48" viewBox="0 0 69 48" fill="none" xmlns="http://www.w3.org/2000/svg">
<g clip-path="url(#clip0_143_50)">
<path d="M68.8573 19.6109C68.5685 19.1183 68.0062 19.0716 67.3803 19.0035C66.6101 18.9178 65.8398 18.8769 65.0695 18.7348C64.255 18.5829 63.4616 18.3279 62.6548 18.1332C62.0366 17.9833 61.3935 17.9152 60.7985 17.7049C60.2381 17.5102 59.6431 17.3778 59.1135 17.1734C57.7983 16.6711 56.4349 16.3226 55.137 15.7308C53.8391 15.1389 52.4777 14.5626 51.2164 13.8559C49.9551 13.1492 48.636 12.4659 47.4498 11.5586C46.5332 10.8558 45.5569 10.2095 44.6172 9.52416C44.5123 9.47003 44.4107 9.40956 44.3129 9.3431C42.7589 7.86737 41.1298 6.46173 39.6914 4.88088C38.821 3.92302 38.1508 3.04304 37.2727 2.09491C37.0571 1.86324 36.851 1.55952 36.6315 1.33369C36.4389 1.139 36.2464 0.833343 36.0423 0.644497C35.9479 0.552994 35.8497 0.401138 35.7284 0.297954C35.0775 -0.247168 34.055 0.0059244 33.5119 0.660072C33.019 1.24413 32.7051 1.46802 32.372 1.99757C32.1582 2.34995 31.7731 2.5972 31.4996 2.92038C31.0086 3.47719 30.5368 4.05346 30.0612 4.62C29.8185 4.90813 29.8185 4.90814 29.2813 5.47078C29.1061 5.65573 28.8846 5.89909 28.6439 6.16386C28.3488 6.48608 28.0267 6.78182 27.6811 7.04774C27.5205 7.18244 27.3699 7.32885 27.2305 7.48579C26.4082 8.42028 25.3895 9.11531 24.3901 9.83371C23.8721 10.2056 23.2771 10.4956 22.8226 10.9317C21.8194 11.9052 20.5889 12.4795 19.3776 13.0597C18.7268 13.3712 18.2511 13.5775 17.5906 13.926C16.9744 14.2511 16.8936 14.3154 15.8267 14.8995C15.0565 15.211 14.8447 15.2674 14.3787 15.4835C13.3735 15.9586 12.9537 15.9605 11.7732 16.4569C10.976 16.7704 10.1461 17.0001 9.34115 17.3077C8.5222 17.5855 7.68591 17.8079 6.8378 17.9736C5.6824 18.2461 4.4808 18.2812 3.33696 18.7036C2.88828 18.8691 2.31251 18.8419 1.80992 19.0035C1.34391 19.1534 0.858645 19.3364 0.617938 19.7705C0.325239 20.2825 -0.0252301 20.8705 -0.000196641 21.4156C0.00691828 21.9768 0.109176 22.5326 0.302131 23.0588C0.687262 23.9777 4.30364 31.6347 4.58093 31.9501C5.42629 32.9099 6.04635 34.0333 6.93023 34.9755C7.72552 35.8224 8.43031 36.7881 9.32959 37.5065C9.73783 37.8335 9.99972 38.2054 10.51 38.5714C10.9722 38.9024 11.2649 39.3502 11.7001 39.6909C12.5531 40.3411 19.5144 44.7293 20.3347 45.0759C21.1261 45.4108 22.0428 45.5042 22.7649 45.9403C23.7142 46.5146 24.7502 46.6898 25.765 46.9897C26.5969 47.235 27.4192 47.5737 28.2684 47.6789C29.5181 47.8443 38.0488 48.0877 39.0694 47.9689C40.3469 47.8015 41.6099 47.536 42.8475 47.1746C43.4406 47.0091 43.7969 46.8767 44.1261 46.8261C45.6416 46.3959 46.9934 45.6346 48.5783 45.0642C49.3196 44.7975 56.1384 40.8746 56.4234 40.528C56.5851 40.3333 58.0756 39.1652 58.2681 39.0075C60.0205 37.522 60.5481 36.5506 62.312 34.8042C63.1801 33.929 63.9683 32.9763 64.6671 31.9579C65.6164 30.5951 68.3412 24.4975 68.5916 23.6604C68.8693 22.7605 68.9994 21.8207 68.9767 20.8783C68.9748 20.559 69.0807 19.9905 68.8573 19.6109ZM52.366 26.9155C52.2753 27.0521 52.1383 27.1505 51.9809 27.192C51.7726 27.2183 51.5622 27.2223 51.3531 27.2037C51.1434 27.2173 50.9331 27.2173 50.7234 27.2037C50.6157 27.1788 50.5209 27.1142 50.4577 27.0226C50.4454 26.9842 50.4421 26.9435 50.4481 26.9036C50.4541 26.8637 50.4693 26.8258 50.4924 26.7929C50.9641 26.1446 51.7055 26.0492 52.2254 26.5787C52.3121 26.6546 52.4045 26.8493 52.366 26.9155ZM52.9919 28.6833C52.9969 29.3672 52.8299 30.0411 52.5066 30.6418C52.1619 31.3563 52.1388 31.3816 51.6246 30.8015C51.1988 30.3145 50.8124 29.7937 50.4692 29.244C50.0649 28.6073 50.1284 28.6424 50.7985 28.1966C51.1548 27.959 51.4841 27.9843 51.8422 27.961C52.0098 27.961 52.1792 27.961 52.3468 27.961C52.7627 28.0058 52.9726 28.2297 52.9919 28.6833ZM51.5495 23.2048C51.1729 22.9639 50.8679 22.6244 50.6668 22.2223C50.4657 21.8202 50.3762 21.3706 50.4076 20.9211C50.4076 20.8413 50.5155 20.4986 50.6002 20.4948C50.6849 20.4909 50.7928 20.7459 50.8621 20.8101C50.9594 20.9469 51.0655 21.0769 51.1798 21.1995C51.3262 21.3183 51.5064 21.3865 51.694 21.3942C51.9231 21.3742 52.1445 21.3009 52.341 21.18C52.4883 21.0709 52.6127 20.9333 52.7069 20.7751C52.809 20.601 52.8715 20.4062 52.8898 20.2047C52.8884 20.0399 52.8467 19.8781 52.7685 19.7335C52.6935 19.5825 52.5961 19.4439 52.4796 19.3227C52.3177 19.1971 52.1213 19.125 51.9173 19.1164C51.8288 19.0969 51.5938 19.0774 51.5726 18.9879C51.5515 18.8983 51.7209 18.7289 51.7652 18.6861C52.3044 18.215 53.5272 18.2967 54.3571 18.8341C54.6454 19.0182 54.8946 19.2583 55.0904 19.5405C55.2862 19.8227 55.4246 20.1413 55.4977 20.478C55.5707 20.8147 55.577 21.1627 55.516 21.5018C55.4551 21.841 55.3282 22.1645 55.1427 22.4537C54.9572 22.7429 54.7167 22.992 54.4353 23.1866C54.1539 23.3811 53.8371 23.5173 53.5032 23.5872C53.1693 23.657 52.8251 23.6592 52.4904 23.5936C52.1557 23.5279 51.8372 23.3958 51.5534 23.2048H51.5495ZM31.4746 9.20682C31.6402 9.11726 32.4528 8.8739 32.5607 9.02771C32.6685 9.18151 32.3238 9.75973 32.2776 9.96999C32.2083 10.2718 31.9965 10.5755 31.8925 11.1381C31.7885 11.7008 32.085 12.1933 32.1929 12.423C32.3854 12.8124 33.0825 13.2505 33.458 13.4588C33.7604 13.6243 34.3977 13.6768 34.7405 13.6749C35.2196 13.6563 35.6883 13.5285 36.1116 13.3011C36.4383 13.0851 36.7063 12.7899 36.8915 12.4425C37.0948 12.0937 37.2423 11.7145 37.3286 11.3192C37.4191 10.6592 37.136 10.2425 37.0089 9.91158C36.93 9.7169 36.6623 9.20292 36.8164 9.04523C36.9242 8.93231 37.525 9.00824 37.6752 9.04523C39.312 9.52416 40.7563 12.1057 40.7563 14.4965C40.7563 16.1487 40.107 17.7334 38.9514 18.9017C37.7958 20.0701 36.2284 20.7264 34.5942 20.7264C32.9599 20.7264 31.3925 20.0701 30.2369 18.9017C29.0813 17.7334 28.4321 16.1487 28.4321 14.4965C28.4205 13.4194 28.6972 12.3591 29.2327 11.428C29.7683 10.4968 30.5429 9.72936 31.4746 9.20682ZM13.982 17.5783C14.5597 16.9943 15.3299 16.7295 16.0482 16.4433C16.6259 16.2136 17.2036 15.943 17.7697 15.6918C18.5092 15.3687 19.1331 14.8936 19.8109 14.4926C20.4888 14.0915 21.1415 13.6243 21.8348 13.2388C22.3171 12.9789 22.8218 12.7639 23.3426 12.5963C23.4399 12.5772 23.5402 12.5815 23.6356 12.6089C23.7309 12.6363 23.8186 12.686 23.8914 12.754C24.1725 13.0889 24.4864 13.449 24.6077 13.854C24.8003 14.4789 25.1238 15.0065 25.4107 15.5711C25.7766 16.2876 26.2561 16.9339 26.6162 17.6309C26.9665 18.279 27.4119 18.8698 27.9372 19.3831C28.4417 19.901 28.9173 20.339 29.4488 20.8257C29.7141 21.1066 30.0289 21.335 30.377 21.4993C30.8415 21.7659 31.3241 21.9988 31.8212 22.1963C32.4969 22.4292 33.1847 22.6242 33.8817 22.7804C34.2211 22.8414 34.5675 22.8519 34.91 22.8115C35.3915 22.757 35.8697 22.6764 36.3427 22.5701C36.711 22.4689 37.072 22.3421 37.4229 22.1905C38.2933 21.8731 39.6259 20.8608 40.1824 20.3429C42.1009 18.5299 43.6267 16.3343 44.6634 13.8949C45.2584 12.5321 45.7167 12.6372 46.8086 13.1336C47.3864 13.4094 47.9273 13.758 48.4184 14.1713C48.5767 14.2864 48.7497 14.3794 48.9326 14.4478C49.5873 14.7379 49.984 14.9968 50.6464 15.3025C50.839 15.392 51.1374 15.5108 51.305 15.5692C51.9462 15.7911 52.5143 16.1162 53.1247 16.3908C53.6928 16.6458 54.2647 16.9106 54.8116 17.2162C54.9858 17.3486 55.1231 17.5244 55.2102 17.7263C55.2757 17.847 55.2757 17.847 55.1678 18.0261C55.06 18.2052 54.9502 18.2617 54.8097 18.2208C54.3225 18.0748 54.232 17.81 53.3808 17.7711C52.8145 17.7499 52.249 17.8317 51.7113 18.0125C51.3165 18.1429 50.9815 18.581 50.7138 18.9509C50.2654 19.5786 49.9987 20.3201 49.9435 21.0924C49.9801 22.1301 50.373 22.7336 50.9333 23.3956C51.434 23.9796 51.4456 24.6202 50.9044 25.1478C50.637 25.3929 50.3423 25.6059 50.0263 25.7824C49.4487 26.1173 49.1444 26.7422 48.5417 27.0499C48.1161 27.2679 47.885 27.2874 47.5788 26.9408C46.9626 26.238 45.8592 25.5994 45.0755 25.7007C44.0318 25.835 43.042 26.1952 42.3931 27.1277C41.8346 27.9298 41.7133 29.0045 42.0272 30.048C42.2467 30.7762 42.1735 31.0215 41.6189 31.4498C41.2492 31.7321 40.6561 31.8294 39.8859 31.9968C39.7395 32.028 39.4487 32.1137 39.2735 32.1682C38.9435 32.2703 38.6017 32.3279 38.2568 32.3395C37.9641 32.3609 37.8543 32.2947 37.7984 31.9501C37.7198 31.3668 37.5014 30.8117 37.162 30.3333C36.8227 29.8548 36.3728 29.4675 35.8516 29.205C35.7804 29.1661 35.7033 29.0804 35.1815 29.0454C34.4459 28.9948 34.2187 28.9539 33.4484 29.1466C32.6781 29.3394 32.2275 29.8436 31.8097 30.379C31.5632 30.6924 31.5555 31.2045 31.4688 31.6328C31.3514 32.2168 31.2474 32.3103 30.6812 32.3473C30.0579 32.3998 29.4314 32.2955 28.8576 32.0436C28.3165 31.806 28.3165 31.806 27.6271 31.4595C27.3229 31.3057 26.8742 31.2045 26.9031 30.8657C26.9282 30.6665 26.9747 30.4707 27.0417 30.2816C27.1958 29.7579 27.1688 29.024 27.1688 28.619C27.1688 27.959 27.1342 27.8228 26.7221 27.2562C26.5376 27.0128 26.3256 26.792 26.0905 26.5982C25.8717 26.4325 25.6405 26.2841 25.3992 26.1543C25.1373 26.0044 25.3164 26.092 24.9775 25.9051C24.7672 25.7833 24.5344 25.7066 24.2935 25.6798C24.0527 25.653 23.8089 25.6767 23.5775 25.7493C22.9757 25.9156 22.4006 26.168 21.8694 26.4989C20.87 26.9467 20.87 26.9467 20.4252 26.9467C20.2326 26.9467 19.8822 26.7014 19.7223 26.5982C19.3584 26.3568 19.2929 26.386 18.9521 25.9382C18.8577 25.8175 18.436 25.4106 18.3185 25.2451C17.7408 24.4294 17.5252 24.1782 18.2627 23.2632C18.5601 22.931 18.8186 22.5652 19.033 22.173C19.2929 21.6298 19.5259 20.7848 19.212 20.0859C18.9766 19.6499 18.7195 19.2263 18.4418 18.8166C17.8949 18.2539 17.1631 17.8431 16.2369 17.9775C15.5957 18.067 14.9833 18.1429 14.3113 18.2442C14.2367 18.2649 14.1571 18.2564 14.0886 18.2203C14.02 18.1842 13.9675 18.1231 13.9415 18.0495C13.9114 18.0161 13.8884 17.9769 13.8741 17.9341C13.8597 17.8914 13.8542 17.8461 13.858 17.8011C13.8618 17.7561 13.8748 17.7124 13.8961 17.6727C13.9175 17.633 13.9467 17.5983 13.982 17.5706V17.5783ZM39.0482 34.997C39.0932 34.8017 39.1912 34.623 39.3313 34.481C39.5238 34.2591 39.6702 34.4382 39.855 34.555C40.0993 34.6804 40.358 34.7746 40.6253 34.8354C40.943 34.9308 41.2839 35.0301 41.307 35.4194C41.3339 35.8653 41.4379 36.35 40.9565 36.6791C40.556 36.9555 40.1863 37.2845 39.8011 37.5766C39.5431 37.7712 39.0771 37.6136 39.0443 37.2962C39.0231 36.8701 39.0231 36.4432 39.0443 36.0171C39.0222 35.6748 39.0235 35.3313 39.0482 34.9892V34.997ZM39.8185 33.2779C39.9032 33.0832 40.2479 32.9703 40.4886 32.8554C40.5926 32.8067 40.7389 32.8554 40.8641 32.8554C41.6632 32.8301 41.8154 32.9742 41.8269 33.7704C41.8269 33.8989 41.8712 34.0527 41.8154 34.1462C41.7797 34.2068 41.7318 34.2592 41.6747 34.2998C41.6176 34.3404 41.5527 34.3683 41.4841 34.3818C41.2615 34.3818 41.0422 34.3273 40.845 34.2228C40.6478 34.1184 40.4786 33.9672 40.3519 33.7821C40.192 33.5504 39.6336 33.7218 39.8204 33.2701L39.8185 33.2779ZM40.3962 38.5344C40.7177 38.145 41.1009 37.8043 41.4572 37.4442C41.696 37.2028 41.9347 36.9633 42.1716 36.7219C42.4701 37.0042 42.861 37.2339 43.0459 37.5766C43.439 38.3423 43.79 39.1294 44.0973 39.9342C44.1261 40.0043 43.9759 40.2146 43.8681 40.2574C43.7218 40.3139 43.5369 40.271 43.2442 40.271C42.9187 40.2751 42.6021 40.1643 42.3488 39.9576C41.9636 39.6714 41.3859 39.648 40.9045 39.4981C40.7551 39.4582 40.6138 39.3923 40.4867 39.3034C40.4239 39.2631 40.3709 39.209 40.3316 39.1451C40.2923 39.0813 40.2677 39.0093 40.2596 38.9346C40.2514 38.8599 40.26 38.7842 40.2846 38.7133C40.3093 38.6423 40.3494 38.5779 40.4019 38.5247L40.3962 38.5344ZM45.1814 27.5093C45.171 27.3405 45.1346 27.1743 45.0736 27.0168C44.973 26.838 44.8213 26.6941 44.6384 26.604C44.5633 26.5534 44.3534 26.4405 44.3688 26.3509C44.3842 26.2614 44.6056 26.1699 44.6673 26.1562C45.3451 25.9362 46.4427 26.4911 46.9954 27.3244C47.1911 27.6078 47.3291 27.9279 47.4013 28.2658C47.4735 28.6038 47.4784 28.9529 47.4158 29.2927C47.3532 29.6326 47.2242 29.9565 47.0365 30.2455C46.8488 30.5345 46.6061 30.7828 46.3225 30.976C46.0389 31.1692 45.7201 31.3034 45.3846 31.3707C45.0492 31.438 44.7039 31.4372 44.3688 31.3682C44.0337 31.2992 43.7156 31.1635 43.4329 30.9689C43.1502 30.7744 42.9087 30.5248 42.7223 30.2349C42.4689 29.8641 42.3195 29.4309 42.29 28.9811C42.2605 28.5314 42.352 28.082 42.5548 27.6806C42.5933 27.6105 42.8186 27.3341 42.8918 27.3633C42.965 27.3925 42.9785 27.6709 43.0112 27.7527C43.0455 27.9198 43.0912 28.0844 43.1479 28.2452C43.2383 28.4101 43.3787 28.5411 43.5484 28.619C43.7665 28.693 43.9988 28.7137 44.2263 28.6794C44.4135 28.6375 44.5894 28.5551 44.742 28.4378C44.8946 28.3205 45.0202 28.1711 45.1102 27.9999C45.1778 27.8426 45.2044 27.6703 45.1872 27.4996L45.1814 27.5093ZM29.8936 37.0684C29.8609 37.596 29.4238 37.8803 28.9501 37.6311C28.5322 37.4111 28.0643 37.2164 27.8621 36.7122C27.7967 36.5668 27.7139 36.4302 27.6156 36.3053C27.5485 36.2166 27.501 36.1145 27.4764 36.0057C27.4518 35.8969 27.4506 35.7841 27.4729 35.6748C27.4951 35.5655 27.5404 35.4623 27.6055 35.3722C27.6707 35.2822 27.7543 35.2073 27.8505 35.1527C28.2568 34.9191 28.6901 34.7341 29.1118 34.5297C29.497 34.3467 29.8571 34.5044 29.8821 34.8977C29.9071 35.2909 29.8821 35.6628 29.8821 36.0463C29.8975 36.387 29.9148 36.7297 29.8936 37.0684ZM23.9434 28.0778C24.0232 28.2445 24.1352 28.3934 24.2727 28.5158C24.4239 28.6487 24.603 28.7452 24.7964 28.7981C24.9567 28.8265 25.1214 28.8144 25.2759 28.7631C25.4363 28.715 25.5883 28.6421 25.7265 28.547C25.8782 28.4088 25.9838 28.2266 26.0289 28.0252C26.0616 27.9415 26.1232 27.7098 26.2214 27.704C26.3196 27.6982 26.4487 27.8987 26.4814 27.9551C26.8434 28.5742 26.5526 29.7774 25.8748 30.5075C25.4067 31.0109 24.76 31.3057 24.0769 31.3271C23.3939 31.3485 22.7304 31.0946 22.2324 30.6214C21.7345 30.1482 21.4429 29.4943 21.4217 28.8037C21.4006 28.1131 21.6517 27.4423 22.1198 26.9389C22.4217 26.6076 22.8065 26.3649 23.2336 26.2364C23.6607 26.1079 24.1141 26.0984 24.5461 26.2088C24.6231 26.2302 24.9312 26.3918 24.9312 26.4697C24.9312 26.5476 24.652 26.6235 24.5788 26.6644C24.426 26.7361 24.278 26.818 24.1359 26.9097C23.9967 27.035 23.9009 27.2022 23.8625 27.3867C23.8346 27.6203 23.8623 27.8572 23.9434 28.0778ZM27.4288 37.1463C27.7446 37.4286 28.0373 37.7304 28.3281 38.0496C28.8056 38.5617 28.5861 39.4884 27.9218 39.4533C27.1034 39.4086 26.5989 40.0257 25.8825 40.1055C25.7088 40.1354 25.5406 40.1919 25.3838 40.273C24.833 40.273 24.7329 40.1347 24.8812 39.8291C25.2798 39.0133 25.6745 38.1957 26.0943 37.3916C26.1509 37.2704 26.2354 37.1645 26.3406 37.0828C26.4458 37.0012 26.5687 36.9461 26.6992 36.9221C26.8297 36.8981 26.9639 36.9059 27.0908 36.9449C27.2177 36.9839 27.3336 37.053 27.4288 37.1463ZM27.4288 32.9119C27.5767 32.8549 27.7349 32.8304 27.8929 32.8398C28.1586 32.8398 28.3108 32.7951 28.407 32.8398C28.5784 32.9352 28.7325 33.0345 28.7402 33.2292C28.7466 33.304 28.727 33.3788 28.6849 33.4406C28.6427 33.5024 28.5805 33.5474 28.5091 33.568C28.2395 33.64 27.9468 33.568 27.7119 33.8327C27.656 33.8989 27.2016 34.0274 27.1053 33.6497C27.0665 33.5074 27.0779 33.3559 27.1377 33.2213C27.1974 33.0866 27.3017 32.9772 27.4327 32.9119H27.4288ZM17.1747 27.9707H17.4289C17.5983 27.9707 17.7678 27.9707 17.9353 27.9707C18.0124 27.9707 18.1279 27.9921 18.1549 28.0389C18.2868 28.3245 18.3887 28.6234 18.4591 28.9305C18.4822 29.0512 18.3416 29.2187 18.2492 29.3433C17.9584 29.7326 17.8987 29.9779 17.5791 30.3478C17.4146 30.5927 17.1674 30.7685 16.8839 30.8423C16.597 30.9046 16.1734 30.8229 16.1772 30.1882C16.1772 29.9254 15.9846 29.6664 15.9461 29.3978C15.8229 28.475 16.2562 27.9863 17.1747 27.9707ZM16.4892 26.7812C16.6529 26.5865 16.8396 26.4152 17.0207 26.24C17.4597 25.8116 17.4732 25.8 17.8891 26.24C18.1106 26.4716 18.5708 26.8746 18.4341 26.9934C18.1645 27.2348 17.7967 27.1083 17.4847 27.2075C17.2151 27.2075 16.9629 27.2075 16.7145 27.2075C16.6637 27.212 16.6128 27.2013 16.568 27.1768C16.5233 27.1523 16.4866 27.115 16.4626 27.0696C16.4386 27.0241 16.4283 26.9726 16.4331 26.9213C16.4378 26.8701 16.4573 26.8213 16.4892 26.7812ZM14.7388 18.9003C15.1058 18.6447 15.5344 18.4943 15.9792 18.4648C16.4239 18.4353 16.8683 18.5279 17.2652 18.7328C17.3345 18.7698 17.608 18.9976 17.581 19.0716C17.5541 19.1456 17.2748 19.1611 17.1959 19.1923C17.0305 19.2278 16.8678 19.2747 16.7087 19.3325C16.5452 19.4233 16.4154 19.5654 16.339 19.7374C16.2658 19.9579 16.2453 20.1927 16.2793 20.4227C16.3214 20.6028 16.3979 20.7727 16.5046 20.9231C16.6235 21.0851 16.7768 21.2182 16.9533 21.3124C17.1032 21.3768 17.2667 21.4022 17.4289 21.3864C17.5932 21.3758 17.7549 21.3396 17.9084 21.2793C18.0881 21.1766 18.2321 21.0202 18.3205 20.8316C18.3705 20.7556 18.4822 20.5454 18.5708 20.5609C18.6594 20.5765 18.7499 20.8004 18.7634 20.8627C18.981 21.548 18.4341 22.6558 17.608 23.2145C17.0413 23.6018 16.3457 23.7456 15.6742 23.6143C15.0027 23.4831 14.4103 23.0875 14.0272 22.5146C13.6442 21.9417 13.5019 21.2385 13.6318 20.5596C13.7616 19.8807 14.1529 19.2817 14.7195 18.8944L14.7388 18.9003ZM3.80104 24.4021C3.35882 24.429 2.92128 24.2981 2.56477 24.0322C2.20468 23.7499 1.82532 23.2905 1.76563 22.8641C1.67512 22.2216 1.33621 21.62 1.4556 20.9308C1.51337 20.594 1.66357 20.3254 1.93508 20.302C2.97686 20.2066 3.96665 19.9457 5.01613 19.7744C5.56301 19.6849 6.37949 19.4746 6.72226 19.3987C8.37254 19.0365 9.37773 18.9236 10.976 18.287C11.3785 18.1274 11.8907 18.0436 12.2816 18.7095C12.7746 19.5466 12.894 19.4746 12.9537 20.3604C12.8882 20.7634 12.9537 21.2638 12.7341 21.5519C12.2989 22.136 11.7867 22.6694 11.0011 22.8544C9.6531 23.1756 8.38602 23.7051 7.00148 23.9096C5.94237 24.0653 4.89674 24.3612 3.80104 24.4021ZM9.69547 35.6277C9.35077 35.8049 9.16399 35.3357 8.93676 35.1216C8.13761 34.3642 7.51948 33.455 6.88594 32.5575C6.72033 32.3239 6.80121 32.1818 6.97452 32.0319C7.19803 31.8222 7.46926 31.6714 7.76417 31.5929C8.05908 31.5145 8.36858 31.5108 8.66524 31.5822C8.89046 31.6368 9.09598 31.7542 9.25838 31.9212C9.42078 32.0881 9.53353 32.2978 9.58378 32.5264C9.72243 33.2428 9.77634 33.9729 9.88611 34.7556C9.83411 35.0262 9.86877 35.5285 9.69547 35.6277ZM8.48038 30.7606C8.09525 30.7878 7.28262 30.6379 7.02844 30.6905C6.38912 30.6009 6.40453 30.6165 5.89615 30.5231C5.66315 30.4802 5.39548 29.8728 5.54568 29.6723C6.05406 28.9889 6.27166 28.5275 6.91482 27.9201C7.33462 27.5307 7.85839 27.1141 8.29167 26.6507C8.86936 26.0394 9.60111 25.5819 10.2963 25.0933C11.209 24.4586 12.0987 23.7889 13.0885 23.2729C13.281 23.1736 13.4178 22.979 13.6122 23.1951C14.2496 23.9018 15.2028 24.0828 15.9384 24.6318C16.5643 25.101 16.6509 25.5508 16.1156 26.1231C15.9122 26.3114 15.7193 26.5109 15.5379 26.7208C15.3242 26.9778 15.1528 26.9622 14.6675 27.3808C14.3825 27.6222 13.8972 27.85 13.489 28.2472C13.2644 28.4893 12.9973 28.6873 12.7014 28.8312C12.2624 29.096 12.2123 29.0824 11.6827 29.4153C11.4415 29.5484 11.1919 29.6655 10.9356 29.7657C10.5728 29.8866 10.2231 30.0444 9.89188 30.2369C9.345 30.5464 8.9772 30.7119 8.47268 30.747L8.48038 30.7606ZM15.4339 31.2415C15.4532 31.5393 15.2991 31.5861 15.0488 31.5763C14.2785 31.5491 13.5083 31.6698 12.8035 31.15C12.5204 30.9455 11.9966 31.0857 11.5826 31.0546C11.5114 31.0546 11.39 30.9845 11.39 30.9397C11.39 30.8248 11.39 30.6613 11.4594 30.6029C11.7086 30.4006 11.9718 30.2165 12.247 30.0519C12.8535 29.682 13.4563 29.3004 14.086 28.9695C14.9525 28.5158 15.353 28.7436 15.4339 29.7054C15.457 30.0032 15.4339 30.3031 15.4339 30.6009C15.4301 30.8015 15.4185 31.0156 15.4339 31.2278V31.2415ZM11.6423 35.7562C11.0646 36.0677 10.7122 35.9178 10.6217 35.2695C10.485 34.2961 10.4291 33.3032 10.3598 32.3161C10.3648 32.1205 10.4425 31.934 10.5774 31.7937C10.7123 31.6533 10.8945 31.5695 11.0877 31.5588C11.1287 31.5547 11.17 31.5547 11.211 31.5588C11.8946 31.8333 12.609 31.8859 13.0596 32.0844C13.3958 32.2405 13.7495 32.3549 14.1129 32.4252C14.681 32.5634 14.7272 32.54 15.0064 32.7853C15.1797 32.9372 15.1547 33.017 14.9968 33.1533C14.3401 33.7179 13.7124 34.3214 13.0384 34.8548C12.5997 35.1955 12.1325 35.4971 11.6423 35.7562ZM17.6927 36.5642C16.986 37.3254 16.2677 38.0827 15.3819 38.6551C14.6694 39.1165 13.8799 38.9919 13.1116 38.9783C12.8131 38.9783 11.8445 37.8297 11.8926 37.5201C11.9408 37.2105 12.0756 36.8562 12.2951 36.7005C14.1226 35.4666 15.7993 34.0184 17.2902 32.3862C17.5309 32.1312 18.1144 31.3875 18.3494 31.076C18.5843 30.7645 18.4495 30.9319 18.7056 30.5795C18.9425 30.2583 18.9367 30.1337 19.2178 29.9059C19.3488 29.7595 19.4584 29.595 19.5433 29.4172C19.7358 28.9773 19.9091 28.693 20.3578 28.7845C20.7545 28.8682 20.9028 29.4328 21.0106 29.8728C21.1184 30.3128 21.2359 30.8073 21.3495 31.2746C21.363 32.431 20.7449 33.1903 19.965 33.8658C19.8841 33.9359 19.7724 34.008 19.7474 34.1014C19.3642 35.18 18.4187 35.7815 17.6927 36.5642ZM20.9162 42.8487C20.5311 43.351 20.275 42.9032 19.965 42.8331C19.5798 42.7435 19.6877 42.4807 19.7031 42.2179C19.7146 42.0505 19.7454 41.8713 19.7454 41.7C19.7146 41.7 19.8571 41.1432 19.8283 41.1374C20.0324 40.1075 19.9688 39.5799 20.302 38.6065C20.5138 37.9815 20.6178 37.3137 20.9836 36.7122C21.2995 36.1904 21.3014 35.4856 21.5344 34.8996C21.8367 34.1281 22.1979 33.3815 22.6147 32.6666C22.838 32.2889 23.1924 31.9696 23.7566 32.0591C24.2515 32.137 24.7695 32.0591 25.2759 32.0786C26.0635 32.102 26.516 32.7503 26.2965 33.529C26.2445 33.7237 26.104 33.895 26.104 34.0819C26.0751 34.5511 26.233 35.0865 26.0539 35.472C25.8748 35.8575 25.638 36.2196 25.4762 36.6401C25.1398 37.5655 24.7422 38.467 24.2861 39.3385C24.1494 39.5955 24.0108 39.7551 23.745 40.1795C23.616 40.3839 23.3734 40.7636 23.2559 40.9018C23.0579 41.1826 22.8271 41.4382 22.5685 41.663C22.3123 41.8733 22.0928 42.1342 21.8213 42.323C21.5498 42.5119 21.1127 42.5897 20.9162 42.8487ZM25.9961 45.29C25.9518 45.366 25.817 45.3796 25.7015 45.3932C25.586 45.4069 25.4512 45.3932 25.0371 45.3932C24.8889 45.3407 24.4845 45.1985 24.0897 45.0428C23.695 44.887 23.3695 44.56 22.8766 44.6125C22.4452 44.6593 22.27 44.2232 22.0408 43.9584C21.9561 43.861 22.0139 43.5048 22.1275 43.3919C22.4468 43.0871 22.7973 42.8176 23.1731 42.5878C23.2944 42.5119 23.6199 42.5197 23.6507 42.5878C23.8972 43.1232 24.6578 43.0122 24.8658 43.7092C24.9948 44.1472 25.6726 44.3906 25.9403 44.8773C25.9827 44.936 26.0101 45.0045 26.0198 45.0765C26.0296 45.1486 26.0214 45.222 25.9961 45.29ZM28.3069 43.6449C28.1143 44.1687 27.9988 44.3127 27.8101 44.4704C27.5675 44.6651 26.8935 44.7235 26.6894 44.5327C25.9769 43.8572 25.1488 43.2653 24.6848 42.3405C24.5307 42.0388 24.5923 41.9142 24.7791 41.7136C25.1835 41.2834 25.6822 41.1082 26.2484 40.9855C26.9686 40.8298 27.579 40.3645 28.3108 40.1815C29.1484 39.9712 29.133 39.907 29.1349 40.9349C28.8865 41.5871 28.6959 42.6871 28.5033 43.0765C28.4995 43.092 28.4032 43.3977 28.3069 43.6449ZM33.743 37.0373C33.6853 37.1307 33.7141 37.2787 33.7026 37.4013C33.6179 38.3047 33.5351 39.2061 33.4465 40.1075C33.4321 40.2259 33.4089 40.343 33.3771 40.4579C33.2004 41.2317 32.9727 41.9927 32.6955 42.7358C32.5819 43.0239 32.5819 43.3841 32.4201 43.6391C32.0176 44.2796 31.8617 45.0292 31.4342 45.6638C31.0741 46.1992 30.7063 46.5516 30.1343 46.4212C29.9757 46.4399 29.8154 46.4399 29.6568 46.4212C29.3198 46.3199 28.8865 46.2791 28.694 46.0454C28.5534 45.8819 28.694 45.4341 28.7768 45.1285C29.1484 43.6722 29.8975 42.3464 30.2056 40.8668C30.2364 40.7169 30.2788 40.5533 30.325 40.2924C30.6601 38.3826 31.1241 36.607 30.9027 34.6465C30.8756 34.5001 30.8974 34.3488 30.9647 34.2162C31.0319 34.0837 31.1409 33.9776 31.2743 33.9145C31.5343 33.7899 31.8039 33.8619 32.0446 34.1092C32.4182 34.481 32.8861 34.7575 33.2674 35.1216C33.8297 35.6375 34.2495 36.2254 33.7449 37.0373H33.743ZM31.9233 31.8002C31.9291 31.3497 32.0553 30.9093 32.2885 30.5254C32.5218 30.1415 32.8533 29.8286 33.2481 29.6197C33.3194 29.5847 33.6602 29.4912 33.7045 29.5574C33.7488 29.6236 33.5986 29.8611 33.5774 29.9468C33.5103 30.1037 33.4537 30.265 33.408 30.4296C33.3871 30.6168 33.4263 30.8059 33.5196 30.9689C33.6563 31.1557 33.8335 31.3082 34.0376 31.4147C34.207 31.4842 34.3883 31.5192 34.5711 31.5179C34.7718 31.5152 34.9693 31.4666 35.1488 31.3758C35.2867 31.2879 35.4016 31.1677 35.4838 31.0254C35.571 30.881 35.6359 30.7241 35.6764 30.5601C35.6954 30.3577 35.6538 30.1542 35.557 29.976C35.5262 29.8903 35.4183 29.6762 35.4838 29.6119C35.5493 29.5477 35.7804 29.6119 35.842 29.6236C36.5198 29.8397 37.0975 30.9339 37.0744 31.9345C37.0494 32.6193 36.7586 33.2665 36.265 33.736C35.7713 34.2055 35.1146 34.4594 34.437 34.4427C33.7595 34.4261 33.1157 34.1402 32.6452 33.6471C32.1747 33.1539 31.9153 32.4932 31.9233 31.808V31.8002ZM40.0919 45.7515C39.8367 46.0518 39.5004 46.2705 39.1242 46.3808C38.7481 46.4911 38.3483 46.4882 37.9737 46.3725C37.5886 46.2693 37.2458 45.732 37.0263 45.3134C36.6877 44.6926 36.4332 44.0286 36.2695 43.3393C36.127 42.6754 35.9614 42.029 35.763 41.3788C35.5647 40.7285 35.582 40.016 35.48 39.3229C35.4222 38.9335 35.3086 38.5442 35.2335 38.1548C35.1642 37.8004 35.1834 37.4578 35.0525 37.084C34.8233 36.4299 34.8349 35.6784 35.5666 35.1839C36.2329 34.7322 36.8568 34.2104 37.5057 33.7432C37.5481 33.7101 37.8909 33.6244 37.9294 33.8211C37.976 34.1005 38.0037 34.3828 38.0122 34.666C38.0305 34.9681 38.0305 35.2711 38.0122 35.5732C37.9987 35.5732 38.0815 36.3384 38.068 36.3403C38.1662 37.5376 38.174 38.5033 38.3877 39.687C38.4311 39.9044 38.4956 40.117 38.5803 40.3216C38.9827 41.26 39.158 42.325 39.5238 43.3607C39.7395 43.9856 40.0688 44.4899 40.1632 45.2725C40.1612 45.3893 40.271 45.5568 40.0919 45.7515ZM41.1914 44.634C41.1067 44.4938 41.0201 44.3263 40.8756 44.0733C40.5926 43.569 40.5656 43.2945 40.3191 42.835C40.1134 42.4109 39.9663 41.9602 39.882 41.4956C39.8032 41.1333 39.7837 40.7604 39.8242 40.3917C39.8435 40.234 39.9475 40.1445 40.1786 40.0744C40.3919 40.1227 40.6011 40.1878 40.8044 40.2691C41.7672 40.602 42.7089 40.9583 43.6813 41.2269C44.1184 41.3496 44.1724 41.5871 44.103 41.9278C44.0659 42.1612 43.9792 42.3837 43.8489 42.58C43.2558 43.3724 42.6145 44.1219 41.746 44.634C41.5477 44.7488 41.4013 44.9727 41.1914 44.6359V44.634ZM46.8105 43.8143C46.3753 44.2426 46.0287 44.8053 45.2527 44.6456C45.1162 44.6311 44.9783 44.6465 44.8484 44.6908C44.7184 44.7352 44.5995 44.8074 44.4997 44.9026C44.0183 45.4341 43.2923 45.2492 42.7666 45.5957C42.7377 45.6132 42.6203 45.5607 42.603 45.5159C42.576 45.4419 42.5587 45.3212 42.603 45.2706C43.3963 44.4548 44.1647 43.6099 45.0119 42.8545C45.5492 42.3756 45.9228 42.4768 46.4677 43.0239C46.6112 43.1529 46.7216 43.3153 46.7893 43.497C46.8625 43.7676 46.8625 43.7676 46.8105 43.8163V43.8143ZM48.819 42.5664C48.6264 42.7221 48.4338 43.057 48.2836 43.0375C47.9356 42.9778 47.6083 42.8298 47.3324 42.6073C46.6873 42.0952 46.2251 41.4022 45.6898 40.785C44.9561 39.9381 44.4959 38.9861 44.0337 38.0088C43.7468 37.4052 43.483 36.79 43.2288 36.1709C42.9746 35.5518 42.9631 34.8646 42.6357 34.2435C42.4431 33.8756 42.5683 33.3265 42.5952 32.8612C42.6145 32.5186 43.1826 32.1195 43.6967 32.0825C44.0819 32.0513 44.4554 32.0825 44.9619 32.0825C45.8997 31.7885 46.2867 32.4719 46.7296 33.274C47.1148 33.9826 47.3266 34.7439 47.5634 35.4837C47.8792 36.4571 48.3992 37.3624 48.5089 38.4215C48.584 39.1282 48.8941 39.8096 48.9384 40.5377C48.9653 40.9369 48.8344 41.334 49.1617 41.7312C49.3851 41.9921 49.104 42.3405 48.819 42.5683V42.5664ZM56.6236 37.999C56.0363 38.4819 55.5164 39.1282 54.619 38.9861C54.316 39.0154 54.0104 38.9728 53.7266 38.8616C53.4427 38.7504 53.1885 38.5737 52.9841 38.3456L48.8671 33.9476C48.5776 33.4496 48.2168 32.9975 47.7964 32.6062C47.2091 32.0377 47.3574 31.4186 47.5519 30.7742C47.7252 30.2077 48.1508 29.7638 48.2066 29.1194C48.2451 28.6911 48.7381 28.6365 49.0539 28.9987C49.3177 29.3024 49.5315 29.6489 49.776 29.9721C50.0444 30.2769 50.2939 30.5981 50.5232 30.9339C50.9179 31.5997 51.486 32.174 52.0232 32.7386C52.5027 33.2389 52.7492 33.9359 53.5638 34.1618C54.2031 34.337 54.4958 35.1566 55.1736 35.472C55.7513 35.7426 55.9997 36.5038 56.6872 36.7316C56.9086 36.7959 56.8586 37.8082 56.6236 38.001V37.999ZM53.9431 29.1544C54.0875 28.8273 54.1992 28.6735 54.5208 28.7417C54.7134 28.7814 54.8999 28.8469 55.0754 28.9364C55.8052 29.3257 56.537 29.6995 57.2475 30.1181C57.3266 30.178 57.3927 30.2536 57.4418 30.3403C57.4908 30.4271 57.5217 30.5231 57.5325 30.6224C57.5422 30.7353 57.3303 30.9845 57.2302 30.9767C56.2674 30.9085 55.4798 31.5471 54.5497 31.5607C54.4669 31.5607 54.3822 31.5607 54.2974 31.5607C54.1302 31.5814 53.9609 31.5774 53.7948 31.5491C53.6774 31.5121 53.5176 31.3777 53.506 31.2726C53.4328 30.5231 53.6408 29.8436 53.9431 29.1564V29.1544ZM58.5647 33.4512C58.1892 34.0664 58.3721 34.7984 58.0794 35.4253C57.8753 35.8731 57.5364 36.0716 57.1166 35.8146C56.5389 35.4701 55.9901 35.0515 55.4413 34.6465C55.0562 34.3584 54.6864 34.0255 54.2859 33.751C53.9296 33.5057 54.0182 33.1669 54.0279 32.8359C54.0372 32.7811 54.0596 32.7294 54.0932 32.6853C54.1267 32.6412 54.1704 32.6061 54.2204 32.5828C55.1659 32.3122 56.1191 32.063 57.0685 31.8041C57.261 31.7535 57.4401 31.6834 57.6269 31.625C58.2585 31.4303 58.5589 31.6367 58.5897 32.3044C58.5897 32.431 58.5897 32.5595 58.5897 32.6938C58.5782 32.9528 58.6725 33.2681 58.5608 33.4531L58.5647 33.4512ZM61.6573 32.9313C60.9294 33.7665 60.1899 34.592 59.4505 35.4155C59.3754 35.4993 59.2926 35.6608 59.1848 35.6258C59.0769 35.5908 59.1135 35.4 59.0923 35.2851C59.0835 35.16 59.0835 35.0344 59.0923 34.9094C59.4004 34.0488 59.3157 32.9625 59.8626 32.0494C59.9781 31.8547 60.188 31.5802 60.3498 31.5841C60.7869 31.5841 61.2664 31.3641 61.6669 31.7204C61.9712 32.0007 61.9808 32.5595 61.6534 32.9333L61.6573 32.9313ZM62.2003 30.7898C62.0328 30.7898 61.8633 30.7898 61.4686 30.7898C60.9641 30.7236 60.2362 30.6496 59.5198 30.5133L58.8766 30.1765C57.977 29.782 57.1017 29.3328 56.2558 28.8312C55.0542 28.0525 53.8603 27.2854 52.8898 26.2088C52.2139 25.4573 52.2774 24.9083 53.2364 24.5481C54.0537 24.2447 54.8166 23.8088 55.4952 23.2574C55.6878 23.1074 55.7995 23.0627 56.0286 23.2048C56.7777 23.6623 57.5268 24.1081 58.2527 24.6143C59.3234 25.36 60.2535 26.2692 61.2876 27.0518C62.0304 27.6377 62.6592 28.3579 63.142 29.1758C63.6426 29.9935 63.1766 30.7703 62.1984 30.7898H62.2003ZM65.9688 24.2269C65.8706 24.2872 65.7532 24.3885 65.6569 24.3749C64.8866 24.2717 64.1009 24.5695 63.3268 24.2035C62.7915 23.9504 62.1021 24.295 61.5687 23.8726C60.7272 24.0147 60.0089 23.5358 59.2579 23.3099C58.6032 23.1152 57.9446 22.8232 57.2957 22.5584C56.7045 22.317 56.1634 21.8537 56.2847 21.0262C56.303 20.7715 56.303 20.5158 56.2847 20.2611C56.2847 20.0489 56.2963 19.8348 56.2847 19.6245C56.2539 19.1456 56.2847 18.7153 56.7411 18.4038C57.1975 18.0923 57.5961 18.1916 58.0255 18.3279C58.9171 18.6141 59.8029 18.9236 60.6925 19.2196C60.7665 19.2517 60.8475 19.2638 60.9275 19.2546C61.7247 19.0813 62.468 19.4493 63.2228 19.5408C63.9777 19.6323 64.7114 19.716 65.4239 20.008C65.7146 20.1268 66.0901 20.0197 66.4271 20.0294C66.6885 20.0436 66.9364 20.1512 67.1265 20.3331C67.3167 20.515 67.4367 20.7593 67.4651 21.0224C67.5902 21.8478 66.7352 23.7519 65.965 24.2269H65.9688Z" fill="#FBFBFB"/>
</g>
<defs>
<clipPath id="clip0_143_50">
<rect width="69" height="48" fill="white"/>
</clipPath>
</defs>
</svg>
