<svg id="Capa_1" data-name="Capa 1" xmlns="http://www.w3.org/2000/svg" viewBox="0 0 383.78 568.82"><defs><style>.cls-1{fill:#1d163b;}.cls-2{fill:#fdfcef;}</style></defs><title>spellLevelFrame</title><path class="cls-1" d="M328.74,518.27c-13.78,14.8-44.78,33.84-63.39,41-16.05,6.13-51.37,12-68.61,12.52-29.36.81-69.54-8.81-69.54-8.81L84.83,543.18,58.6,525s-40.08-45.12-39.28-73.13c1.89-67-.8-202.86-1.47-268-.13-12-14.68-17.21-14.68-17.21s8.7,1.09,13-12.55c1.6-5.06,1.35-11.12,1.63-21.5.83-30.65,0-122.66,0-122.66L366.12,7.49,365.29,25s-1.48,146.35,0,200c.39,14.5,17.19,16.72,14.06,17.69-7.74,2.41-13.23,17.92-13.23,17.92l-.83,25.7-.68,47.86L364,385.55v49.82l-2.93,30.46-10.16,22.31S336,510.49,328.74,518.27Z" transform="translate(0 -4.66)"/><path class="cls-2" d="M232.42,9.06,153,9H26.41c-1.83,0-3.67.07-5.5,0-1.59,0-1.91.75-1.81,2.12.1,1.6,0,3.21,0,4.8V130.79c0,1.17,1,3.18-1,3.4-2.91.3-1.63-2.22-1.63-3.44q-.11-60.18-.07-120.37V8.31c.22-2.49,2.76-4.58,4.59-3.23,2.4,1.78,4.74,1.17,7.11,1.18q53.65.09,107.33,0c4.38,0,8.77-1,13.18-1.25s8.71,0,13.07,0c4.58,0,9.23-.49,13.76.08,18.81,2.43,37.69,1,56.52,1.24h76c18.84.25,37.61,0,56.42.07,3.31,0,3.82.15,3.18,3.3-2.56,12.39-.92,24.85-1.22,37.3s-.07,25.22-.07,37.83v37.83c0,12.61-1,25.32.26,37.8,1.52,15.45.68,30.84,1.09,46.24a18.18,18.18,0,0,1-.56,4.58,2.22,2.22,0,0,1-.53.85,2.08,2.08,0,0,1-.85.52c-.41,0-1.18-.7-1.37-1.25a8.77,8.77,0,0,1-.68-3.15c0-14,0-28-.15-41.95,0-1.71,2-3,.32-5.2-1-1.38-.2-4-.2-6v-139a21.92,21.92,0,0,1,0-4.13c.53-2.83-1-3-3.13-2.85-1.38.13-2.76,0-4.13,0H232.42Z" transform="translate(0 -4.66)"/><path class="cls-2" d="M20.27,365.51c0,23.15-.29,46.29.18,69.42a117.27,117.27,0,0,0,4.94,30.67,108.09,108.09,0,0,0,15.54,33.48,163.57,163.57,0,0,0,16.42,20.15,152.46,152.46,0,0,0,23.22,19.11,161.26,161.26,0,0,0,29.87,16,211.13,211.13,0,0,0,33.6,10.9c7.65,1.67,15.43,3,23.27,4,12.94,1.85,25.78.9,38.62,1a116.76,116.76,0,0,0,25.39-3.07q11.27-2.5,22.16-5.93a212.48,212.48,0,0,0,20.48-7.5c8.91-3.85,17.77-8,25.17-13.66,3.84-3,8.3-5.41,12.22-8.34a149.2,149.2,0,0,0,26.29-26.5c6.53-8.26,10.93-17.49,16.29-26.29-.4-5.13,3.58-9.63,3.63-14.66,0-1.65,1.19-3.26,1.65-4.94s0-3.29,1.24-5.12.48-4.87.52-7.38c0-3.89-.14-7.8.14-11.68,0-.77,5.26-.05,5,.39,0,2-.6,3.54-.74,5.37-.23,3.06-.6,6.2-.8,9.24a96.93,96.93,0,0,1-4.07,19.36c-1.5,5.34-4.28,10.47-6.5,15.71-3.38,7.9-8.61,15.14-13.78,22.32-8.12,11.3-19.1,20.8-30.77,29.88-7.61,5.94-16.52,10.41-25.32,15a187,187,0,0,1-43.92,15.89A218,218,0,0,1,218.38,572c-12.94,1.71-25.78.61-38.63,1.09-3.77.15-8.05.89-11.21-.21-3.5-1.21-7.08-.18-9.76-1.38-3.27-1.37-7.41-.15-10-2.57-10.36-1.07-19.58-4.65-29.16-7.64-13-4-23.7-10.54-34.93-16.67A129.21,129.21,0,0,1,58.6,525C47,514.2,36.25,502.69,31,488.74c-5.77-7.19-7-15.64-10-23.55a31.27,31.27,0,0,1-2.22-9.63c-.35-9.22-2.39-18.34-1.87-27.63s0-18.78,0-28.18V365.12l-.13-156.76V198.27c0-.26.91-.68,1.31-.63.74.08,2,.43,2,.76a35,35,0,0,1,0,4.8v5.55Z" transform="translate(0 -4.66)"/><path class="cls-2" d="M346.79,242.6c1-.86,1.7-1.93,2.39-1.93,7.4,0,10.5-4.88,13.35-10.69,1-2.11.55-3.92.81-5.85.3-2.2.25-4.46.54-6.67.07-.54.9-1,1.37-1.46a5.69,5.69,0,0,1,.83,1.38,37.13,37.13,0,0,1,1.48,9c.09,7.88,4.75,12.77,12.84,14.18a10,10,0,0,1,2.38.88c.39.18.65.62,1,.94-.41.32-.81.63-1.24.92-.71.47-1.37,1.23-2.17,1.38-4.2.51-6.81,2.53-9.13,6.28a20.87,20.87,0,0,0-3.71,10.17,5.82,5.82,0,0,1-1.31,3.64c-.86,1.12.86,3.28-1.07,4.45-.59-1.81-1.82-3.68-1.67-5.5.44-4.69-1.66-8.37-3.56-12.38a12,12,0,0,0-3.29-4.33,12.26,12.26,0,0,0-4.87-2.42,34.68,34.68,0,0,1-3.55-1.37A6.65,6.65,0,0,1,346.79,242.6Zm7,.08c.28.28.4.51.59.59,5.87,2.26,8,7.53,10.41,12.66.18.39.4.74.6,1.12.26-.31.65-.57.75-.93,1.52-5.24,5-9.13,8.88-12.71,1.05-.94.32-.94-.56-1.51-4.13-2.66-7.8-5.73-8.32-11.14,0-.38-.4-.73-.61-1.1a3.66,3.66,0,0,0-.73.93c-2,5.06-4,10.07-10.13,11.4-.36.08-.62.46-.91.69Z" transform="translate(0 -4.66)"/><path class="cls-2" d="M18.71,192.78c-.27-.23-.71-.44-.79-.74-.51-1.84-.94-3.73-1.38-5.59-1.23-5-1.38-10.29-5.93-14-2.75-2.33-5.28-4.65-9.23-4.32-.42,0-.9-.69-1.38-1,.51-.55.94-1.5,1.51-1.59,10.71-1.79,13.9-6.47,15-17a4,4,0,0,1,0-.69c.76-2.32-1.62-5.3,1.49-7.13,2.52,1.64.38,5,2.58,6.88.35.29.14,1.38,0,2-.89,5.51,2,9.25,5.73,12.74,2.41,2.25,5.43,2.37,8.25,3.21a1.79,1.79,0,0,1,.7.52,1.74,1.74,0,0,1,.38.77,1.82,1.82,0,0,1-1,1.38c-9.23,1.2-12.74,7.87-14.1,15.86q-.7,4.14-1.38,8.26C19.17,192.47,18.89,192.6,18.71,192.78Zm-.27-38.52a16.1,16.1,0,0,0-1.89,2.86c-1.37,3.4-3.3,6.67-6.45,8s-1.89,2.2-.5,3.59c3.27,3.26,7,6.19,7.28,11.39,0,.17.29.35.47.48.47.35,1,.68,1.38,1a8.35,8.35,0,0,0,.46-1.17c1.38-5.19,3.42-9.77,8.51-12.38,1.58-.83,1.61-2.3.08-2.66-4.35-1-6.53-3.77-7.48-7.9a10.61,10.61,0,0,0-1.11-2.27,6.69,6.69,0,0,0-.75-1Z" transform="translate(0 -4.66)"/><path class="cls-2" d="M9.15,0" transform="translate(0 -4.66)"/><path class="cls-2" d="M9.15,575" transform="translate(0 -4.66)"/><path class="cls-2" d="M370.15,0" transform="translate(0 -4.66)"/><path class="cls-2" d="M370.15,575" transform="translate(0 -4.66)"/><path class="cls-2" d="M366.07,435.53l-5-.39,2.46-151.78V273.27c0-.26.9-.69,1.31-.64.73.09,2,.43,2,.76a35,35,0,0,1,0,4.8v5.56Z" transform="translate(0 -4.66)"/></svg>