<svg width="271" height="48" viewBox="0 0 271 48" fill="none" xmlns="http://www.w3.org/2000/svg">
<path d="M228.371 24.0228L232.688 29.6311L226.508 26.1471L219.862 32.3079L224.942 24.745L220.666 19.2216L226.72 22.6207L233.493 16.375L228.371 24.0228Z" fill="#C5AA80"/>
<path d="M227.439 23.5979L232.646 24.0227L227.566 25.2124L227.143 30.3534L226 25.3399L220.878 24.915L225.873 23.7253L226.254 18.4993L227.439 23.5979Z" fill="#C5AA80"/>
<path d="M90.3692 31.3731L97.3116 29.8436L91.5122 33.9649L94.1791 42.6749L89.5649 34.8146L82.7072 36.3017L88.4219 32.2654L85.6704 23.3854L90.3692 31.3731Z" fill="#C5AA80"/>
<path d="M89.6072 32.0529L92.2318 27.4643L91.0889 32.6053L95.576 35.197L90.5385 34.0923L87.9563 38.596L89.0569 33.54L84.4851 30.9058L89.6072 32.0529Z" fill="#C5AA80"/>
<path d="M44.9049 26.9969C44.9472 27.7617 45.5822 28.3565 46.3018 28.314C47.0638 28.2715 47.6565 27.6342 47.6141 26.9119C47.5718 26.1471 46.9368 25.5523 46.2172 25.5948C45.4552 25.6373 44.9049 26.2746 44.9049 26.9969Z" fill="#C5AA80"/>
<path d="M9.38861 21.1761C9.38861 21.601 9.72727 21.9408 10.1506 21.8983C10.5739 21.8983 10.9126 21.5585 10.8702 21.1336C10.8702 20.7087 10.5316 20.3688 10.1083 20.4113C9.72727 20.4113 9.38861 20.7512 9.38861 21.1761Z" fill="#C5AA80"/>
<path d="M269.305 2.09911C268.924 2.26906 268.797 2.73643 268.967 3.11882C269.136 3.50121 269.602 3.62867 269.983 3.45872C270.364 3.28877 270.491 2.82139 270.321 2.439C270.11 2.05661 269.686 1.88667 269.305 2.09911Z" fill="#C5AA80"/>
<path d="M28.0992 26.5295C28.0992 26.9544 28.4379 27.2943 28.8612 27.2518C29.2845 27.2518 29.6232 26.9119 29.5809 26.4871C29.5809 26.0622 29.2422 25.7223 28.8189 25.7648C28.4379 25.7648 28.0992 26.1047 28.0992 26.5295Z" fill="#C5AA80"/>
<path d="M222.867 35.0271C222.486 35.2395 222.359 35.6644 222.529 36.0468C222.74 36.4292 223.164 36.5566 223.545 36.3867C223.926 36.1742 224.053 35.7494 223.883 35.367C223.714 34.9846 223.248 34.8571 222.867 35.0271Z" fill="#C5AA80"/>
<path d="M59.086 47.2636C59.086 47.6884 59.4247 48.0283 59.848 47.9858C60.2713 47.9434 60.61 47.6459 60.5676 47.221C60.5676 46.7962 60.229 46.4563 59.8057 46.4988C59.3824 46.4988 59.0437 46.8387 59.086 47.2636Z" fill="#C5AA80"/>
<path d="M80.9716 45.819C80.9716 46.2438 81.3102 46.5837 81.7335 46.5412C82.1568 46.5412 82.4955 46.2013 82.4532 45.7765C82.4532 45.3516 82.1145 45.0117 81.6912 45.0542C81.3102 45.0542 80.9716 45.3941 80.9716 45.819Z" fill="#C5AA80"/>
<path d="M56.2498 22.0683C56.2498 22.4932 56.5885 22.8331 57.0118 22.7906C57.4351 22.7481 57.7738 22.4507 57.7314 22.0258C57.7314 21.6009 57.3928 21.261 56.9695 21.3035C56.5885 21.3035 56.2498 21.6434 56.2498 22.0683Z" fill="#C5AA80"/>
<path d="M33.5601 17.6921C33.5601 18.1169 33.8987 18.4569 34.322 18.4144C34.7453 18.4144 35.084 18.0744 35.0417 17.6496C35.0417 17.2247 34.703 16.8848 34.2797 16.9273C33.8987 16.9698 33.5601 17.3097 33.5601 17.6921Z" fill="#C5AA80"/>
<path d="M0.0333252 1.16436C0.0333252 1.58924 0.37198 1.92915 0.795297 1.88666C1.21861 1.88666 1.55727 1.54676 1.51494 1.12189C1.51494 0.697008 1.17628 0.357102 0.752965 0.399589C0.329648 0.399589 0.0333252 0.739486 0.0333252 1.16436Z" fill="#C5AA80"/>
<path d="M241.917 24.4476C241.536 24.6176 241.409 25.085 241.578 25.4673C241.747 25.8497 242.213 25.9772 242.594 25.8072C242.975 25.6373 243.102 25.1699 242.933 24.7876C242.721 24.4052 242.298 24.2777 241.917 24.4476Z" fill="#C5AA80"/>
<path d="M252.288 28.8664C250.679 27.3793 248.944 29.4612 248.944 29.4612C248.944 29.4612 250.849 27.5917 249.24 26.0622C250.849 27.5493 252.584 25.4673 252.584 25.4673C252.584 25.4673 250.722 27.3368 252.288 28.8664Z" fill="#C5AA80"/>
<path d="M78.7279 23.3429C76.696 24.1502 77.839 26.6145 77.839 26.6145C77.839 26.6145 76.95 24.0652 74.9181 24.8725C76.95 24.0652 75.8494 21.601 75.8494 21.601C75.8494 21.601 76.696 24.1502 78.7279 23.3429Z" fill="#C5AA80"/>
<path d="M26.2366 34.1348C24.2047 34.9421 25.3476 37.4064 25.3476 37.4064C25.3476 37.4064 24.4587 34.8571 22.4268 35.6644C24.4587 34.8571 23.3581 32.3928 23.3581 32.3928C23.3581 32.3928 24.2047 34.9421 26.2366 34.1348Z" fill="#C5AA80"/>
<path d="M215.375 25.2549C213.766 23.7678 212.031 25.8497 212.031 25.8497C212.031 25.8497 213.935 23.9378 212.327 22.4507C213.935 23.9378 215.671 21.8559 215.671 21.8559C215.671 21.8559 213.766 23.7678 215.375 25.2549Z" fill="#C5AA80"/>
<path d="M12.2248 9.36451C10.1929 10.1718 11.3359 12.6361 11.3359 12.6361C11.3359 12.6361 10.4469 10.0868 8.41498 10.8941C10.4469 10.0868 9.34627 7.62253 9.34627 7.62253C9.34627 7.62253 10.1929 10.1718 12.2248 9.36451Z" fill="#C5AA80"/>
<path d="M49.8577 38.851C46.3442 40.2531 48.2914 44.5018 48.2914 44.5018C48.2914 44.5018 46.7675 40.1256 43.254 41.5277C46.7675 40.1256 44.8202 35.8768 44.8202 35.8768C44.8202 35.8768 46.3865 40.2955 49.8577 38.851Z" fill="#C5AA80"/>
<path d="M196.749 45.0117C196.622 45.3941 196.198 45.6065 195.775 45.479C195.394 45.3516 195.183 44.9267 195.31 44.5018C195.436 44.1194 195.86 43.907 196.283 44.0345C196.706 44.1619 196.918 44.5868 196.749 45.0117Z" fill="#C5AA80"/>
<path d="M181.552 43.3122C181.425 43.6946 181.001 43.907 180.578 43.7795C180.197 43.6521 179.985 43.2272 180.112 42.8023C180.239 42.4199 180.663 42.2075 181.086 42.335C181.467 42.4624 181.679 42.8873 181.552 43.3122Z" fill="#C5AA80"/>
<path d="M172.45 22.4932C172.323 22.8756 171.9 23.088 171.477 22.9606C171.096 22.8331 170.884 22.4082 171.011 21.9834C171.138 21.601 171.561 21.3885 171.985 21.516C172.366 21.6435 172.577 22.0683 172.45 22.4932Z" fill="#C5AA80"/>
<path d="M186.378 16.7998C188.071 18.2019 186.208 20.1989 186.208 20.1989C186.208 20.1989 187.817 18.0745 189.51 19.4766C187.817 18.0745 189.679 16.0776 189.679 16.0776C189.679 16.0776 188.028 18.2019 186.378 16.7998Z" fill="#C5AA80"/>
<path d="M231.884 42.8023C233.577 44.2044 231.715 46.2014 231.715 46.2014C231.715 46.2014 233.323 44.0769 235.017 45.479C233.323 44.0769 235.186 42.08 235.186 42.08C235.186 42.08 233.577 44.2469 231.884 42.8023Z" fill="#C5AA80"/>
<path d="M257.918 6.94272C259.611 8.34482 257.749 10.3417 257.749 10.3417C257.749 10.3417 259.357 8.21735 261.051 9.61944C259.357 8.21735 261.22 6.22043 261.22 6.22043C261.22 6.22043 259.569 8.30233 257.918 6.94272Z" fill="#C5AA80"/>
<path d="M208.051 39.9132C210.93 42.335 207.797 45.734 207.797 45.734C207.797 45.734 210.634 42.08 213.47 44.5018C210.591 42.08 213.724 38.681 213.724 38.681C213.724 38.681 210.93 42.3774 208.051 39.9132Z" fill="#C5AA80"/>
<path d="M174.779 26.2321C177.657 28.6539 174.525 32.0529 174.525 32.0529C174.525 32.0529 177.361 28.399 180.197 30.8208C177.319 28.399 180.451 25 180.451 25C180.451 25 177.657 28.6964 174.779 26.2321Z" fill="#C5AA80"/>
</svg>
