<?xml version="1.0" encoding="utf-8"?>
<!-- Generator: Adobe Illustrator 24.0.1, SVG Export Plug-In . SVG Version: 6.00 Build 0)  -->
<svg version="1.1" id="Capa_1" xmlns="http://www.w3.org/2000/svg" xmlns:xlink="http://www.w3.org/1999/xlink" x="0px" y="0px"
	 viewBox="0 0 175.3 190.7" style="enable-background:new 0 0 175.3 190.7;" xml:space="preserve">
<style type="text/css">
	.st0{fill:#E5CDAA;}
	.st1{fill:#E6C285;}
	.st2{fill:#3C1B67;}
</style>
<title>conjuro-gemelo</title>
<path class="st0" d="M65.1,0l-8.1,9.1C47,20.6,37.7,32.7,29.1,45.2C15.1,65.6,0,90,0,113.5c0.4,35.9,29.9,64.7,65.9,64.3
	c35.3-0.4,63.8-29,64.3-64.3c0-23.4-15.1-47.8-29.1-68.2C92.5,32.7,83.1,20.6,73.2,9.1L65.1,0 M65.1,33.9
	c6.6,7.4,12.7,15.3,18.2,23.5c13.1,19.1,25.2,43.4,25.2,56c-0.4,24-20.1,43.1-44,42.7C41,155.8,22,136.9,21.7,113.4
	c0-12.6,12-36.9,25.2-56C52.4,49.2,58.5,41.4,65.1,33.9z"/>
<path class="st1" d="M107.4,4.5L98.9,14C88.6,26,78.8,38.6,69.8,51.7C55.3,73,39.5,98.4,39.5,122.8c0,37.5,30.4,67.9,67.9,67.9
	c37.5,0,67.9-30.4,67.9-67.9c0-24.4-15.7-49.9-30.3-71.2C136,38.6,126.2,26,115.9,14L107.4,4.5"/>
<path class="st2" d="M107.4,39.9c6.9,7.8,13.2,16,19,24.5c13.7,19.9,26.2,45.3,26.2,58.4c-0.4,25-20.9,44.9-45.9,44.6
	c-24.5-0.4-44.2-20.1-44.6-44.6c0-13.1,12.6-38.5,26.2-58.4C94.2,55.9,100.5,47.7,107.4,39.9z"/>
</svg>
