<?xml version="1.0" encoding="utf-8"?>
<!-- Generator: Adobe Illustrator 24.0.1, SVG Export Plug-In . SVG Version: 6.00 Build 0)  -->
<svg version="1.1" id="Capa_1" xmlns="http://www.w3.org/2000/svg" xmlns:xlink="http://www.w3.org/1999/xlink" x="0px" y="0px"
	 viewBox="0 0 138.2 189.6" style="enable-background:new 0 0 138.2 189.6;" xml:space="preserve">
<style type="text/css">
	.st0{fill:#E6C285;}
	.st1{fill:#3C1B67;}
</style>
<title>conjuro-extendido</title>
<path class="st0" d="M69.1,0l-8.6,9.7C49.9,21.9,40,34.7,30.9,48C16,69.7,0,95.6,0,120.5c0,38.2,31,69.1,69.1,69.1
	c38.2,0,69.1-30.9,69.1-69.1c0-24.9-16-50.8-30.9-72.5c-9.2-13.3-19-26.1-29.6-38.3L69.1,0"/>
<path class="st0" d="M69.1,36.1c7,7.9,13.4,16.3,19.3,25c13.9,20.3,26.7,46.1,26.7,59.4c0,25.4-20.6,46.1-46.1,46.1
	S23,145.9,23,120.5c0-13.4,12.8-39.2,26.7-59.4C55.7,52.3,62.1,44,69.1,36.1z"/>
<path class="st1" d="M69.1,163c23.2,0,42-18.8,42-42s-18.8-42-42-42s-42,18.8-42,42S45.9,163,69.1,163 M69.1,68.6
	c29,0,52.5,23.5,52.5,52.5s-23.5,52.5-52.5,52.5S16.7,150,16.7,121l0,0C16.7,92.1,40.1,68.6,69.1,68.6 M71.7,94.8v27.5l23.6,14
	l-3.9,6.5l-27.6-16.5V94.8H71.7z"/>
</svg>
