<?xml version="1.0" encoding="utf-8"?>
<!-- Generator: Adobe Illustrator 24.0.1, SVG Export Plug-In . SVG Version: 6.00 Build 0)  -->
<svg version="1.1" id="Capa_1" xmlns="http://www.w3.org/2000/svg" xmlns:xlink="http://www.w3.org/1999/xlink" x="0px" y="0px"
	 viewBox="0 0 135.4 189.6" style="enable-background:new 0 0 135.4 189.6;" xml:space="preserve">
<style type="text/css">
	.st0{fill:#E6C285;}
</style>
<title>Intercambio</title>
<path class="st0" d="M67.7,0C67.7,0,0,76.7,0,121.9c0,37.4,30.3,67.7,67.7,67.7c37.4,0,67.7-30.3,67.7-67.7
	C135.4,76.7,67.7,0,67.7,0 M67.7,59.8v16.9c24.9,0.1,45.1,20.2,45.1,45.2c0,9-2.3,18-7.9,24.8l-12.4-12.4c2.3-3.7,3.5-8,3.4-12.4
	c0.2-15.4-12.2-28.1-27.7-28.2c-0.2,0-0.4,0-0.6,0v16.9L42.9,85.8L67.7,59.8 M30.5,97.1l12.4,12.4c-2.3,3.7-3.5,8-3.4,12.4
	c-0.2,15.4,12.2,28.1,27.6,28.2c0.2,0,0.4,0,0.6,0v-16.9L92.5,158l-24.8,26v-17c-24.9-0.1-45-20.2-45.1-45.1
	C22.6,112.9,24.8,103.8,30.5,97.1z"/>
</svg>
